<svg width="7" height="10" viewBox="0 0 7 10" fill="none" xmlns="http://www.w3.org/2000/svg">
<path fill-rule="evenodd" clip-rule="evenodd" d="M5.1412 4.49077H6.76123V2.27135C6.76123 1.82398 6.39857 1.46133 5.95121 1.46133C5.50385 1.46133 5.1412 1.82398 5.1412 2.27134V4.49077ZM4.42537 4.4915L4.39187 9.1568L3.40814 8.70408L2.39091 9.17222L1.37368 8.70408L0.356446 9.17222L0.356445 2.17727C0.356445 1.50237 0.356445 1.16493 0.566107 0.955267C0.775769 0.745606 1.11321 0.745605 1.7881 0.745605L5.10353 0.745606C5.38934 0.745606 5.60237 0.745606 5.77246 0.755857C5.01399 0.84436 4.42537 1.48911 4.42537 2.27134V4.4915ZM1.01574 2.61808C1.01574 2.42041 1.17598 2.26017 1.37365 2.26017H3.40812C3.60579 2.26017 3.76603 2.42041 3.76603 2.61808C3.76603 2.81575 3.60579 2.976 3.40812 2.976H1.37365C1.17598 2.976 1.01574 2.81575 1.01574 2.61808ZM1.01574 4.49067C1.01574 4.293 1.17598 4.13275 1.37365 4.13275H2.05181C2.24948 4.13275 2.40972 4.293 2.40972 4.49067C2.40972 4.68834 2.24948 4.84858 2.05181 4.84858H1.37365C1.17598 4.84858 1.01574 4.68834 1.01574 4.49067ZM1.01574 6.36325C1.01574 6.16558 1.17598 6.00533 1.37365 6.00533H2.72996C2.92763 6.00533 3.08788 6.16558 3.08788 6.36325C3.08788 6.56092 2.92763 6.72116 2.72996 6.72116H1.37365C1.17598 6.72116 1.01574 6.56092 1.01574 6.36325Z" fill="#b41218"/>
</svg>
