<svg width="18" height="16" viewBox="0 0 18 16" fill="none" xmlns="http://www.w3.org/2000/svg">
<path d="M0 1.14286C0 0.511675 0.50368 0 1.125 0H16.875C17.4963 0 18 0.511675 18 1.14286C18 1.77404 17.4963 2.28571 16.875 2.28571H1.125C0.50368 2.28571 0 1.77404 0 1.14286ZM0 5.71429C0 5.0831 0.50368 4.57143 1.125 4.57143H16.875C17.4963 4.57143 18 5.0831 18 5.71429C18 6.34547 17.4963 6.85714 16.875 6.85714H1.125C0.50368 6.85714 0 6.34547 0 5.71429ZM0 10.2857C0 9.65453 0.50368 9.14286 1.125 9.14286H16.875C17.4963 9.14286 18 9.65453 18 10.2857C18 10.9169 17.4963 11.4286 16.875 11.4286H1.125C0.50368 11.4286 0 10.9169 0 10.2857ZM0 14.8571C0 14.226 0.50368 13.7143 1.125 13.7143H16.875C17.4963 13.7143 18 14.226 18 14.8571C18 15.4883 17.4963 16 16.875 16H1.125C0.50368 16 0 15.4883 0 14.8571Z" fill="white"/>
</svg>
