<svg width="7" height="10" viewBox="0 0 7 10" fill="none" xmlns="http://www.w3.org/2000/svg">
<path fill-rule="evenodd" clip-rule="evenodd" d="M1.88236 7.2983H5.10359C5.74296 7.2983 6.06265 7.2983 6.26128 7.02406C6.4599 6.74983 6.4599 6.30846 6.4599 5.42571V3.08499C6.4599 2.20224 6.4599 1.76087 6.26128 1.48664C6.06265 1.2124 5.74296 1.2124 5.10359 1.2124H2.39098C1.75161 1.2124 1.43192 1.2124 1.23329 1.48664C1.03467 1.76087 1.03467 2.20224 1.03467 3.08499V8.46866C1.03467 7.82229 1.41419 7.2983 1.88236 7.2983ZM5.34424 3.97308C5.57615 3.6529 5.50459 3.20535 5.18441 2.97344C4.86423 2.74154 4.41668 2.8131 4.18477 3.13328L3.4082 4.20545L3.30978 4.06957C3.07788 3.74939 2.63032 3.67783 2.31014 3.90973C1.98996 4.14164 1.9184 4.58919 2.15031 4.90937L2.53859 5.44546C2.96727 6.03731 3.84912 6.03731 4.2778 5.44546L5.34424 3.97308Z" fill="#b41218"/>
<path d="M6.26128 7.02406L5.97141 6.81411L5.97141 6.81411L6.26128 7.02406ZM6.26128 1.48664L5.97141 1.69659V1.69659L6.26128 1.48664ZM1.23329 1.48664L0.943427 1.27668L0.943427 1.27668L1.23329 1.48664ZM5.18441 2.97344L4.97446 3.26331L5.18441 2.97344ZM5.34424 3.97308L5.05438 3.76313L5.05438 3.76313L5.34424 3.97308ZM4.18477 3.13328L4.47464 3.34323V3.34323L4.18477 3.13328ZM3.4082 4.20545L3.11833 4.4154L3.4082 4.81561L3.69807 4.4154L3.4082 4.20545ZM3.30978 4.06957L3.01991 4.27952H3.01991L3.30978 4.06957ZM2.31014 3.90973L2.52009 4.1996H2.52009L2.31014 3.90973ZM2.15031 4.90937L2.44018 4.69942L2.15031 4.90937ZM2.53859 5.44546L2.24873 5.65541H2.24873L2.53859 5.44546ZM4.2778 5.44546L4.56767 5.65541L4.2778 5.44546ZM5.10359 6.94038H1.88236V7.65621H5.10359V6.94038ZM5.97141 6.81411C5.93934 6.85839 5.90201 6.88991 5.78239 6.91211C5.63778 6.93896 5.43708 6.94038 5.10359 6.94038V7.65621C5.40948 7.65621 5.6883 7.65764 5.91304 7.61592C6.16276 7.56957 6.38459 7.46397 6.55114 7.23401L5.97141 6.81411ZM6.10199 5.42571C6.10199 5.87446 6.10159 6.18486 6.07884 6.41839C6.05625 6.6504 6.01526 6.75357 5.97141 6.81411L6.55114 7.23401C6.70592 7.02032 6.76424 6.76569 6.7913 6.48777C6.81822 6.21137 6.81782 5.85971 6.81782 5.42571H6.10199ZM6.10199 3.08499V5.42571H6.81782V3.08499H6.10199ZM5.97141 1.69659C6.01526 1.75713 6.05625 1.8603 6.07884 2.09231C6.10159 2.32584 6.10199 2.63624 6.10199 3.08499H6.81782C6.81782 2.65099 6.81822 2.29933 6.7913 2.02293C6.76424 1.74501 6.70592 1.49038 6.55114 1.27668L5.97141 1.69659ZM5.10359 1.57032C5.43708 1.57032 5.63778 1.57174 5.78239 1.59859C5.90201 1.62079 5.93934 1.65231 5.97141 1.69659L6.55114 1.27668C6.38459 1.04673 6.16276 0.941133 5.91303 0.894778C5.6883 0.853063 5.40948 0.854488 5.10359 0.854488V1.57032ZM2.39098 1.57032H5.10359V0.854488H2.39098V1.57032ZM1.52316 1.69659C1.55523 1.65231 1.59256 1.62079 1.71218 1.59859C1.85679 1.57174 2.05749 1.57032 2.39098 1.57032V0.854488C2.08509 0.854488 1.80627 0.853063 1.58154 0.894778C1.33181 0.941133 1.10998 1.04673 0.943427 1.27668L1.52316 1.69659ZM1.39258 3.08499C1.39258 2.63624 1.39299 2.32584 1.41573 2.09231C1.43832 1.8603 1.47931 1.75713 1.52316 1.69659L0.943427 1.27668C0.788649 1.49038 0.73033 1.74501 0.703267 2.02293C0.676351 2.29933 0.676753 2.65099 0.676753 3.08499H1.39258ZM1.39258 8.46866V3.08499H0.676753V8.46866H1.39258ZM1.88236 6.94038C1.50491 6.94038 1.19505 7.1523 0.993083 7.43114C0.790816 7.7104 0.676753 8.07837 0.676753 8.46866H1.39258C1.39258 8.21257 1.46828 7.99537 1.57282 7.85104C1.67766 7.70629 1.79165 7.65621 1.88236 7.65621V6.94038ZM4.97446 3.26331C5.13455 3.37926 5.17033 3.60304 5.05438 3.76313L5.63411 4.18303C5.98197 3.70276 5.87463 3.03143 5.39436 2.68357L4.97446 3.26331ZM4.47464 3.34323C4.59059 3.18314 4.81437 3.14736 4.97446 3.26331L5.39436 2.68357C4.91409 2.33572 4.24276 2.44306 3.8949 2.92333L4.47464 3.34323ZM3.69807 4.4154L4.47464 3.34323L3.8949 2.92333L3.11833 3.9955L3.69807 4.4154ZM3.01991 4.27952L3.11833 4.4154L3.69807 3.9955L3.59965 3.85962L3.01991 4.27952ZM2.52009 4.1996C2.68018 4.08365 2.90396 4.11943 3.01991 4.27952L3.59965 3.85962C3.25179 3.37935 2.58046 3.27201 2.10019 3.61987L2.52009 4.1996ZM2.44018 4.69942C2.32422 4.53933 2.36 4.31555 2.52009 4.1996L2.10019 3.61987C1.61992 3.96772 1.51258 4.63905 1.86044 5.11932L2.44018 4.69942ZM2.82846 5.23551L2.44018 4.69942L1.86044 5.11932L2.24873 5.65541L2.82846 5.23551ZM3.98793 5.23551C3.70215 5.63008 3.11425 5.63008 2.82846 5.23551L2.24873 5.65541C2.8203 6.44455 3.9961 6.44455 4.56767 5.65541L3.98793 5.23551ZM5.05438 3.76313L3.98793 5.23551L4.56767 5.65541L5.63411 4.18303L5.05438 3.76313ZM3.40821 9.28111H1.88236V9.99694H3.40821V9.28111ZM0.676753 8.46866C0.676753 8.85895 0.790816 9.22692 0.993083 9.50618C1.19505 9.78502 1.50491 9.99694 1.88236 9.99694V9.28111C1.79165 9.28111 1.67766 9.23103 1.57282 9.08628C1.46828 8.94195 1.39258 8.72475 1.39258 8.46866H0.676753Z" fill="#b41218"/>
</svg>
