<svg width="16" height="16" viewBox="0 0 16 16" fill="none" xmlns="http://www.w3.org/2000/svg">
<path d="M4.20813 10.8804H6.51709C7.53725 10.8804 8.36426 11.7074 8.36426 12.7275V7.0321C8.36426 4.73674 6.5035 2.87598 4.20813 2.87598C3.44301 2.87598 2.82276 3.49623 2.82276 4.26135V9.49499C2.82276 10.2601 3.44301 10.8804 4.20813 10.8804Z" stroke="#B51118" stroke-width="1.23144"/>
<path d="M12.5204 10.8804H10.2114C9.19126 10.8804 8.36426 11.7074 8.36426 12.7275V7.0321C8.36426 4.73674 10.225 2.87598 12.5204 2.87598C13.2855 2.87598 13.9058 3.49623 13.9058 4.26135V9.49499C13.9058 10.2601 13.2855 10.8804 12.5204 10.8804Z" stroke="#B51118" stroke-width="1.23144"/>
</svg>
