<svg width="15" height="12" viewBox="0 0 15 12" fill="none" xmlns="http://www.w3.org/2000/svg">
<path d="M5.3882 11.1321C4.8019 11.1325 4.23983 10.8951 3.8273 10.473L1.05206 7.66531C0.507619 7.11393 0.507358 6.21972 1.05145 5.66798C1.05167 5.66776 1.05188 5.66754 1.05206 5.66732C1.59628 5.11599 2.47846 5.11599 3.02269 5.66732L5.3882 8.06354L12.0889 1.27312C12.6331 0.721786 13.5153 0.721786 14.0595 1.27312C14.604 1.8245 14.6042 2.71871 14.0601 3.27044C14.0599 3.27066 14.0597 3.27089 14.0595 3.27106L6.94818 10.4777C6.53522 10.8981 5.97353 11.1337 5.3882 11.1321Z" fill="#43AD81"/>
</svg>
