<svg width="10" height="14" viewBox="0 0 10 14" fill="none" xmlns="http://www.w3.org/2000/svg">
<path fill-rule="evenodd" clip-rule="evenodd" d="M4.74683 11.8779C6.71314 11.8779 8.30714 9.67718 8.30714 6.9624C8.30714 4.24763 6.71314 2.04688 4.74683 2.04688C2.78053 2.04688 1.18652 4.24763 1.18652 6.9624C1.18652 9.67718 2.78053 11.8779 4.74683 11.8779ZM4.7814 3.16656C4.74689 3.19765 4.74689 3.24775 4.74689 3.34793V6.86176C4.74689 6.91117 4.74689 6.93588 4.73655 6.95735C4.72621 6.97882 4.70689 6.99422 4.66825 7.02502L2.47208 8.77562C2.4122 8.82336 2.38226 8.84722 2.37395 8.88232C2.36564 8.91741 2.38118 8.95105 2.41226 9.01832C2.65105 9.5352 2.97674 9.96595 3.36233 10.2733C3.78329 10.6089 4.26081 10.7855 4.74689 10.7855C5.23298 10.7855 5.7105 10.6089 6.13146 10.2733C6.55242 9.93776 6.90199 9.45513 7.14503 8.87393C7.38807 8.29273 7.51602 7.63344 7.51602 6.96233C7.51602 6.29122 7.38807 5.63194 7.14503 5.05074C6.90199 4.46954 6.55242 3.98691 6.13146 3.65135C5.77085 3.36391 5.36875 3.19307 4.9553 3.14999C4.86237 3.1403 4.8159 3.13546 4.7814 3.16656Z" fill="#b41218"/>
</svg>
