<svg width="80" height="70" viewBox="0 0 80 70" fill="none" xmlns="http://www.w3.org/2000/svg">
<path d="M72.7273 2.05882C68.6909 0.617647 64.2545 0 60 0C52.9091 0 45.2727 1.64706 40 6.17647C34.7273 1.64706 27.0909 0 20 0C12.9091 0 5.27273 1.64706 0 6.17647V66.5C0 67.5294 0.909091 68.5588 1.81818 68.5588C2.18182 68.5588 2.36364 68.3529 2.72727 68.3529C7.63636 65.6765 14.7273 63.8235 20 63.8235C27.0909 63.8235 34.7273 65.4706 40 70C44.9091 66.5 53.8182 63.8235 60 63.8235C66 63.8235 72.1818 65.0588 77.2727 68.1471C77.6364 68.3529 77.8182 68.3529 78.1818 68.3529C79.0909 68.3529 80 67.3235 80 66.2941V6.17647C77.8182 4.32353 75.4545 3.08824 72.7273 2.05882ZM72.7273 57.6471C68.7273 56.2059 64.3636 55.5882 60 55.5882C53.8182 55.5882 44.9091 58.2647 40 61.7647V14.4118C44.9091 10.9118 53.8182 8.23529 60 8.23529C64.3636 8.23529 68.7273 8.85294 72.7273 10.2941V57.6471Z" fill="#B41218"/>
</svg>
