<svg width="11" height="9" viewBox="0 0 11 9" fill="none" xmlns="http://www.w3.org/2000/svg">
<path d="M0.859375 1.50238C0.859375 1.14887 1.13036 0.862305 1.46464 0.862305H9.93832C10.2726 0.862305 10.5436 1.14887 10.5436 1.50238C10.5436 1.85588 10.2726 2.14245 9.93832 2.14245H1.46464C1.13036 2.14245 0.859375 1.85588 0.859375 1.50238ZM2.0699 4.70273C2.0699 4.34923 2.34089 4.06266 2.67516 4.06266H8.7278C9.06207 4.06266 9.33306 4.34923 9.33306 4.70273C9.33306 5.05623 9.06207 5.3428 8.7278 5.3428H2.67516C2.34089 5.3428 2.0699 5.05623 2.0699 4.70273ZM3.28043 7.90308C3.28043 7.54958 3.55141 7.26301 3.88569 7.26301H7.51727C7.85155 7.26301 8.12253 7.54958 8.12253 7.90308C8.12253 8.25659 7.85155 8.54315 7.51727 8.54315H3.88569C3.55141 8.54315 3.28043 8.25659 3.28043 7.90308Z" fill="white"/>
</svg>
