<svg width="35" height="38" viewBox="0 0 35 38" fill="none" xmlns="http://www.w3.org/2000/svg">
<path fill-rule="evenodd" clip-rule="evenodd" d="M7.34128 26.5884H24.8883C28.3712 26.5884 30.1126 26.5884 31.1946 25.5064C32.2766 24.4245 32.2766 22.683 32.2766 19.2002V9.96489C32.2766 6.48205 32.2766 4.74062 31.1946 3.65864C30.1126 2.57666 28.3712 2.57666 24.8883 2.57666H10.1119C6.62902 2.57666 4.8876 2.57666 3.80561 3.65864C2.72363 4.74062 2.72363 6.48205 2.72363 9.9649V31.2061C2.72363 28.6558 4.79102 26.5884 7.34128 26.5884ZM28.4626 17.2332C31.4566 14.2391 31.4566 9.38488 28.4626 6.39086C25.4685 3.39684 20.6143 3.39684 17.6203 6.39086L15.3723 8.63884C12.5039 7.21273 8.92811 7.69478 6.53791 10.085C3.54389 13.079 3.54389 17.9333 6.53791 20.9273L7.52145 21.9108C12.0125 26.4019 19.2939 26.4018 23.7849 21.9108L28.4626 17.2332Z" fill="white"/>
<path d="M31.1946 25.5064L29.8971 24.2089L29.897 24.2089L31.1946 25.5064ZM31.1946 3.65864L29.897 4.95618L29.897 4.95618L31.1946 3.65864ZM28.4626 6.39086L27.165 7.6884V7.6884L28.4626 6.39086ZM28.4626 17.2332L27.165 15.9356V15.9356L28.4626 17.2332ZM17.6203 6.39086L16.3227 5.09332V5.09332L17.6203 6.39086ZM15.3723 8.63884L14.5554 10.282L15.7368 10.8694L16.6698 9.93638L15.3723 8.63884ZM6.53791 10.085L7.83545 11.3825L6.53791 10.085ZM6.53791 20.9273L5.24036 22.2248H5.24037L6.53791 20.9273ZM7.52145 21.9108L8.81899 20.6133H8.81899L7.52145 21.9108ZM23.7849 21.9108L25.0824 23.2084L23.7849 21.9108ZM24.8883 24.7534H7.34128V28.4234H24.8883V24.7534ZM29.897 24.2089C29.7538 24.3521 29.4998 24.5266 28.6973 24.6345C27.842 24.7495 26.6816 24.7534 24.8883 24.7534V28.4234C26.5779 28.4234 28.0296 28.4273 29.1863 28.2718C30.3957 28.1092 31.5534 27.7427 32.4921 26.804L29.897 24.2089ZM30.4416 19.2002C30.4416 20.9935 30.4377 22.1539 30.3227 23.0091C30.2148 23.8116 30.0403 24.0657 29.8971 24.2089L32.4921 26.804C33.4309 25.8652 33.7974 24.7076 33.96 23.4981C34.1155 22.3415 34.1116 20.8897 34.1116 19.2002H30.4416ZM30.4416 9.96489V19.2002H34.1116V9.96489H30.4416ZM29.897 4.95618C30.0403 5.0994 30.2148 5.35348 30.3227 6.15595C30.4377 7.01122 30.4416 8.1716 30.4416 9.96489H34.1116C34.1116 8.27535 34.1155 6.82359 33.96 5.66693C33.7974 4.45749 33.4309 3.29986 32.4921 2.3611L29.897 4.95618ZM24.8883 4.41166C26.6816 4.41166 27.842 4.41556 28.6973 4.53054C29.4998 4.63844 29.7538 4.81296 29.897 4.95618L32.4921 2.3611C31.5534 1.42234 30.3957 1.05588 29.1863 0.893271C28.0296 0.737763 26.5779 0.74166 24.8883 0.74166V4.41166ZM10.1119 4.41166H24.8883V0.74166H10.1119V4.41166ZM5.10316 4.95618C5.24638 4.81296 5.50045 4.63844 6.30293 4.53054C7.15819 4.41556 8.31857 4.41166 10.1119 4.41166V0.74166C8.42232 0.74166 6.97056 0.737763 5.81391 0.893271C4.60447 1.05588 3.44684 1.42234 2.50807 2.3611L5.10316 4.95618ZM4.55863 9.9649C4.55863 8.1716 4.56253 7.01122 4.67752 6.15595C4.78541 5.35347 4.95994 5.0994 5.10316 4.95618L2.50807 2.3611C1.56931 3.29986 1.20285 4.45749 1.04024 5.66693C0.884736 6.82359 0.888633 8.27535 0.888633 9.9649H4.55863ZM4.55863 31.2061V9.9649H0.888633V31.2061H4.55863ZM7.34128 24.7534C3.77758 24.7534 0.888633 27.6424 0.888633 31.2061H4.55863C4.55863 29.6693 5.80447 28.4234 7.34128 28.4234V24.7534ZM27.165 7.6884C29.4424 9.96581 29.4424 13.6582 27.165 15.9356L29.7601 18.5307C33.4707 14.8201 33.4707 8.80395 29.7601 5.09332L27.165 7.6884ZM18.9178 7.6884C21.1952 5.41099 24.8876 5.41099 27.165 7.6884L29.7601 5.09332C26.0495 1.38269 20.0333 1.38268 16.3227 5.09332L18.9178 7.6884ZM16.6698 9.93638L18.9178 7.6884L16.3227 5.09332L14.0747 7.3413L16.6698 9.93638ZM7.83545 11.3825C9.65155 9.56641 12.3715 9.1962 14.5554 10.282L16.1892 6.99571C12.6363 5.22927 8.20466 5.82314 5.24037 8.78743L7.83545 11.3825ZM7.83545 19.6297C5.55804 17.3523 5.55804 13.6599 7.83545 11.3825L5.24037 8.78743C1.52973 12.4981 1.52973 18.5142 5.24036 22.2248L7.83545 19.6297ZM8.81899 20.6133L7.83545 19.6297L5.24037 22.2248L6.22391 23.2084L8.81899 20.6133ZM22.4874 20.6133C18.7129 24.3877 12.5934 24.3877 8.81899 20.6133L6.22391 23.2084C11.4316 28.416 19.8748 28.416 25.0824 23.2084L22.4874 20.6133ZM27.165 15.9356L22.4874 20.6133L25.0824 23.2084L29.7601 18.5307L27.165 15.9356ZM15.653 33.9887H7.34128V37.6587H15.653V33.9887ZM0.888633 31.2061C0.888633 34.7698 3.77758 37.6587 7.34128 37.6587V33.9887C5.80447 33.9887 4.55863 32.7429 4.55863 31.2061H0.888633Z" fill="#B41218"/>
</svg>
