<svg width="70" height="80" viewBox="0 0 70 80" fill="none" xmlns="http://www.w3.org/2000/svg">
<path d="M46.6667 37.8947V12.6316L35 0L23.3333 12.6316V21.0526H0V80H70V37.8947H46.6667ZM15.5556 71.5789H7.77778V63.1579H15.5556V71.5789ZM15.5556 54.7368H7.77778V46.3158H15.5556V54.7368ZM15.5556 37.8947H7.77778V29.4737H15.5556V37.8947ZM38.8889 71.5789H31.1111V63.1579H38.8889V71.5789ZM38.8889 54.7368H31.1111V46.3158H38.8889V54.7368ZM38.8889 37.8947H31.1111V29.4737H38.8889V37.8947ZM38.8889 21.0526H31.1111V12.6316H38.8889V21.0526ZM62.2222 71.5789H54.4444V63.1579H62.2222V71.5789ZM62.2222 54.7368H54.4444V46.3158H62.2222V54.7368Z" fill="#B41218"/>
</svg>
