<svg width="30" height="30" viewBox="0 0 30 30" fill="none" xmlns="http://www.w3.org/2000/svg">
<path d="M28.3025 14.4333C28.6916 14.0355 28.9626 13.5374 29.0852 12.9946C29.2078 12.4517 29.1771 11.8855 28.9967 11.3591C28.8273 10.8311 28.5131 10.3613 28.0898 10.0032C27.6666 9.64501 27.1512 9.4129 26.6025 9.33328L20.525 8.39828C20.4966 8.39006 20.4705 8.37563 20.4484 8.35602C20.4264 8.33641 20.409 8.31213 20.3975 8.28494L17.7342 2.61828C17.5006 2.08765 17.1178 1.63639 16.6323 1.31946C16.1469 1.00253 15.5797 0.833612 15 0.833277C14.427 0.830908 13.8654 0.994089 13.3829 1.30321C12.9004 1.61232 12.5174 2.05422 12.28 2.57578L9.61666 8.24244C9.60212 8.27007 9.58204 8.2944 9.55766 8.3139C9.53328 8.33341 9.50514 8.34766 9.47499 8.35578L3.41166 9.33328C2.86213 9.41515 2.34608 9.64784 1.9209 10.0055C1.49572 10.3631 1.17809 10.8317 1.00332 11.3591C0.829496 11.8874 0.803612 12.4531 0.928478 12.995C1.05334 13.537 1.32419 14.0344 1.71166 14.4333L6.18833 19.0374C6.20121 19.0664 6.20787 19.0978 6.20787 19.1295C6.20787 19.1613 6.20121 19.1926 6.18833 19.2216L5.13999 25.6533C5.04254 26.2134 5.10607 26.7897 5.3232 27.3151C5.54034 27.8406 5.90216 28.2936 6.36659 28.6215C6.83103 28.9494 7.37901 29.1388 7.94681 29.1676C8.51462 29.1964 9.07894 29.0634 9.57416 28.7841L14.8583 25.8516C14.8846 25.838 14.9137 25.8308 14.9433 25.8308C14.9729 25.8308 15.0021 25.838 15.0283 25.8516L20.3125 28.7841C20.8084 29.0574 21.3711 29.1856 21.9364 29.1542C22.5018 29.1228 23.0468 28.9329 23.5093 28.6063C23.9719 28.2798 24.3332 27.8296 24.552 27.3074C24.7708 26.7852 24.8382 26.212 24.7467 25.6533L23.7692 19.2499C23.7542 19.2241 23.7464 19.1948 23.7464 19.1649C23.7464 19.1351 23.7542 19.1058 23.7692 19.0799L28.3025 14.4333Z" fill="#B51118"/>
</svg>
