<svg width="9" height="12" viewBox="0 0 9 12" fill="none" xmlns="http://www.w3.org/2000/svg">
<mask id="path-1-outside-1_962_177" maskUnits="userSpaceOnUse" x="0.356445" y="0.348145" width="9" height="11" fill="black">
<rect fill="white" x="0.356445" y="0.348145" width="9" height="11"/>
<path d="M4.74722 1.34814C5.53169 1.34814 6.2919 1.72369 6.8983 2.41079C7.50471 3.09789 7.9198 4.05403 8.07284 5.1163C8.22588 6.17856 8.10741 7.28123 7.73761 8.23643C7.36782 9.19162 6.76957 9.94023 6.04481 10.3547C5.32005 10.7692 4.51363 10.8239 3.76293 10.5095C3.01224 10.1951 2.36373 9.53103 1.9279 8.63048C1.49207 7.72993 1.29589 6.6486 1.37278 5.57074C1.44967 4.49287 1.79488 3.48516 2.34959 2.71931L3.30864 4.04343C2.97582 4.50294 2.76869 5.10756 2.72256 5.75428C2.67642 6.401 2.79413 7.0498 3.05563 7.59013C3.31713 8.13046 3.70623 8.52889 4.15665 8.71753C4.60706 8.90617 5.09092 8.87335 5.52578 8.62466C5.96063 8.37598 6.31958 7.92681 6.54146 7.3537C6.76334 6.78058 6.83442 6.11898 6.74259 5.48162C6.65077 4.84426 6.40171 4.27057 6.03787 3.85831C5.67403 3.44605 5.21791 3.22073 4.74722 3.22073V1.34814Z"/>
</mask>
<path d="M4.74722 1.34814C5.53169 1.34814 6.2919 1.72369 6.8983 2.41079C7.50471 3.09789 7.9198 4.05403 8.07284 5.1163C8.22588 6.17856 8.10741 7.28123 7.73761 8.23643C7.36782 9.19162 6.76957 9.94023 6.04481 10.3547C5.32005 10.7692 4.51363 10.8239 3.76293 10.5095C3.01224 10.1951 2.36373 9.53103 1.9279 8.63048C1.49207 7.72993 1.29589 6.6486 1.37278 5.57074C1.44967 4.49287 1.79488 3.48516 2.34959 2.71931L3.30864 4.04343C2.97582 4.50294 2.76869 5.10756 2.72256 5.75428C2.67642 6.401 2.79413 7.0498 3.05563 7.59013C3.31713 8.13046 3.70623 8.52889 4.15665 8.71753C4.60706 8.90617 5.09092 8.87335 5.52578 8.62466C5.96063 8.37598 6.31958 7.92681 6.54146 7.3537C6.76334 6.78058 6.83442 6.11898 6.74259 5.48162C6.65077 4.84426 6.40171 4.27057 6.03787 3.85831C5.67403 3.44605 5.21791 3.22073 4.74722 3.22073V1.34814Z" fill="#b41218"/>
<path d="M4.74722 1.34814V0.99023H4.38931V1.34814L4.74722 1.34814ZM8.07284 5.1163L8.4271 5.06526L8.07284 5.1163ZM7.73761 8.23643L7.40384 8.10721L7.73761 8.23643ZM6.04481 10.3547L5.86713 10.044L6.04481 10.3547ZM3.76293 10.5095L3.9012 10.1793L3.76293 10.5095ZM1.9279 8.63048L1.60573 8.7864L1.9279 8.63048ZM1.37278 5.57074L1.01577 5.54527L1.37278 5.57074ZM2.34959 2.71931L2.63945 2.50936L2.34959 2.10915L2.05972 2.50936L2.34959 2.71931ZM3.30864 4.04343L3.59851 4.25338L3.75058 4.04343L3.59851 3.83348L3.30864 4.04343ZM2.72256 5.75428L2.36555 5.72882L2.72256 5.75428ZM3.05563 7.59013L2.73346 7.74605L3.05563 7.59013ZM4.15665 8.71753L4.01838 9.04766L4.15665 8.71753ZM5.52578 8.62466L5.34809 8.31397L5.52578 8.62466ZM6.74259 5.48162L7.09685 5.43058L6.74259 5.48162ZM6.03787 3.85831L6.30622 3.62148L6.03787 3.85831ZM4.74722 3.22073H4.38931V3.57864H4.74722V3.22073ZM4.74722 1.70606C5.41141 1.70606 6.0789 2.02324 6.62995 2.64762L7.16666 2.17395C6.5049 1.42413 5.65198 0.99023 4.74722 0.99023V1.70606ZM6.62995 2.64762C7.1828 3.27404 7.57374 4.16199 7.71858 5.16733L8.4271 5.06526C8.26585 3.94606 7.82662 2.92173 7.16666 2.17395L6.62995 2.64762ZM7.71858 5.16733C7.8633 6.17178 7.75037 7.21213 7.40384 8.10721L8.07139 8.36564C8.46446 7.35034 8.58847 6.18535 8.4271 5.06526L7.71858 5.16733ZM7.40384 8.10721C7.05676 9.00371 6.50551 9.67893 5.86713 10.044L6.2225 10.6654C7.03364 10.2015 7.67887 9.37953 8.07139 8.36564L7.40384 8.10721ZM5.86713 10.044C5.23602 10.4049 4.54621 10.4495 3.9012 10.1793L3.62467 10.8396C4.48104 11.1983 5.40409 11.1334 6.2225 10.6654L5.86713 10.044ZM3.9012 10.1793C3.24835 9.90592 2.65697 9.31534 2.25007 8.47456L1.60573 8.7864C2.07049 9.74672 2.77613 10.4842 3.62467 10.8396L3.9012 10.1793ZM2.25007 8.47456C1.84369 7.63487 1.65698 6.61677 1.72979 5.59621L1.01577 5.54527C0.934791 6.68044 1.14045 7.82499 1.60573 8.7864L2.25007 8.47456ZM1.72979 5.59621C1.80262 4.57518 2.12923 3.6337 2.63945 2.92926L2.05972 2.50936C1.46053 3.33663 1.09672 4.41057 1.01577 5.54527L1.72979 5.59621ZM2.05972 2.92926L3.01877 4.25338L3.59851 3.83348L2.63945 2.50936L2.05972 2.92926ZM3.01877 3.83348C2.64147 4.3544 2.41574 5.02526 2.36555 5.72882L3.07956 5.77975C3.12164 5.18987 3.31017 4.65148 3.59851 4.25338L3.01877 3.83348ZM2.36555 5.72882C2.31532 6.43284 2.44251 7.14486 2.73346 7.74605L3.3778 7.43421C3.14575 6.95474 3.03752 6.36917 3.07956 5.77975L2.36555 5.72882ZM2.73346 7.74605C3.02388 8.34615 3.47012 8.81804 4.01838 9.04766L4.29491 8.3874C3.94234 8.23974 3.61037 7.91477 3.3778 7.43421L2.73346 7.74605ZM4.01838 9.04766C4.57448 9.28056 5.17495 9.2376 5.70346 8.93536L5.34809 8.31397C5.00689 8.5091 4.63965 8.53178 4.29491 8.3874L4.01838 9.04766ZM5.70346 8.93536C6.2247 8.63727 6.63063 8.11472 6.87523 7.48292L6.20768 7.22448C6.00853 7.7389 5.69657 8.11468 5.34809 8.31397L5.70346 8.93536ZM6.87523 7.48292C7.12038 6.84969 7.19701 6.12577 7.09685 5.43058L6.38834 5.53266C6.47183 6.11219 6.40629 6.71147 6.20768 7.22448L6.87523 7.48292ZM7.09685 5.43058C6.99682 4.73629 6.72362 4.09442 6.30622 3.62148L5.76952 4.09515C6.07981 4.44672 6.30471 4.95222 6.38834 5.53266L7.09685 5.43058ZM6.30622 3.62148C5.88702 3.1465 5.33819 2.86281 4.74722 2.86281V3.57864C5.09762 3.57864 5.46103 3.74561 5.76952 4.09515L6.30622 3.62148ZM5.10514 3.22073V1.34814L4.38931 1.34814V3.22073H5.10514Z" fill="#b41218" mask="url(#path-1-outside-1_962_177)"/>
</svg>
