<svg width="14" height="11" viewBox="0 0 14 11" fill="none" xmlns="http://www.w3.org/2000/svg">
<path fill-rule="evenodd" clip-rule="evenodd" d="M0.309523 0.0436488C0.0673892 0.134574 -0.059436 0.427362 0.0333029 0.681415C0.0656658 0.770117 0.628391 1.45779 2.04727 3.14261C3.13026 4.42855 4.01634 5.48947 4.01634 5.50018C4.01634 5.51085 3.13499 6.5651 2.0578 7.84291C0.775789 9.36366 0.0801374 10.2107 0.043972 10.2949C-0.0276203 10.4618 -0.0111516 10.6404 0.0887 10.7804C0.240639 10.9934 0.167104 10.9844 1.82781 10.9938C3.13267 11.0011 3.33289 10.9964 3.43209 10.956C3.52866 10.9166 3.86285 10.5327 5.68901 8.36301C6.86797 6.96227 7.85363 5.77468 7.87931 5.72392C7.90503 5.67319 7.92604 5.57241 7.92604 5.5C7.92604 5.42759 7.90503 5.32681 7.87931 5.27608C7.85363 5.22532 6.86841 4.03823 5.68994 2.6381C3.94368 0.56337 3.52729 0.0838458 3.43931 0.0461942C3.3455 0.00605592 3.14011 0.000175494 1.87514 0.0012872C0.69733 0.00231113 0.398021 0.0104148 0.309523 0.0436488ZM6.38693 0.0426835C6.12201 0.143702 5.99381 0.452755 6.1091 0.712572C6.13164 0.763388 7.03632 1.85806 8.11945 3.14518C9.20261 4.43227 10.0888 5.49195 10.0889 5.5C10.0889 5.50805 9.20286 6.56735 8.11989 7.854C7.0369 9.14068 6.13221 10.2354 6.10945 10.2866C5.98974 10.5564 6.13883 10.8866 6.41773 10.9695C6.4818 10.9885 7.05722 10.9997 7.97192 10.9998L9.42433 11L9.53748 10.9342C9.68165 10.8503 13.9244 5.81546 13.9708 5.67328C14.0097 5.55374 14.0097 5.44626 13.9708 5.32672C13.9244 5.18454 9.68165 0.149729 9.53748 0.0658245L9.42433 0L7.95824 0.0012872C6.78817 0.00231113 6.47089 0.0106782 6.38693 0.0426835Z" fill="#B51118"/>
</svg>
