<?xml version="1.0" encoding="UTF-8"?><svg xmlns="http://www.w3.org/2000/svg" xmlns:xlink="http://www.w3.org/1999/xlink" viewBox="0 0 543.42 420.74"><defs><style>.e{fill:#f6f4ff;}.f{fill:#c7bfbf;}.g{fill:#ff4060;}.h{fill:#c4c4e8;}.i{fill:#4c4c72;}.j{fill:#fff;}.k{fill:#553530;}.l{stroke:#935954;stroke-width:16px;}.l,.m{stroke-linecap:round;}.l,.m,.n,.o{fill:none;}.l,.o{stroke-miterlimit:10;}.p{fill:#60608c;}.q{isolation:isolate;}.r{fill:#ede8e8;}.m{stroke:#fff;stroke-linejoin:round;stroke-width:10px;}.s{fill:#daceea;}.t{fill:#4edd70;}.u{fill:#e8e7f7;}.v{opacity:.2;}.v,.w{fill:#e0e5e8;mix-blend-mode:color-dodge;}.x{fill:#fbf2eb;}.y{fill:#7991a5;mix-blend-mode:multiply;opacity:.14;}.w{opacity:.62;}.a`{fill:#9caab5;}.aa{fill:#784741;}.ab{fill:#d88d87;}.ac{clip-path:url(#d);}.ad{fill:#e4eaf4;}.ae{fill:#cacbcc;}.af{fill:#edb29a;}.ag{fill:#706e6e;}.ah{fill:#3e3d5e;}.ai{fill:#a19a9a;}.aj{fill:#34344f;}.ak{fill:#b5b5b5;}.al{fill:#9b9bba;}.am{fill:#683e38;}.an{fill:#aeaed6;}.o{stroke:#4c4c72;stroke-width:4px;}</style><clipPath id="d"><circle class="n" cx="253.1" cy="214.37" r="77.76" transform="translate(-77.45 241.76) rotate(-45)"/></clipPath></defs><g class="q"><g id="a"/><g id="b"><g id="c"><g><rect class="ak" width="543.42" height="420.74"/><g><g><g><polygon class="e" points="305.43 24.68 84.42 77.59 68.12 111.65 137.34 400.79 381.48 342.35 305.43 24.68"/><path class="u" d="M84.42,77.59l-16.31,34.06,16.21,67.73c29.19-64.36,89.34-108.16,146.53-136.85L84.42,77.59Z"/><polygon class="j" points="68.12 111.65 96.78 98.85 84.42 77.59 68.12 111.65"/></g><g><rect class="u" x="219.26" y="93.79" width="83.56" height="93.33" transform="translate(-25.5 64.54) rotate(-13.45)"/><g><polygon class="ah" points="279.3 156.73 274.56 156.69 268.74 158.36 267.73 162.8 264.86 159.27 258.9 160.34 254.67 162.48 240.8 174.66 244.85 192.01 262 188 284.03 182.86 301.18 178.85 297.13 161.51 279.3 156.73"/><polygon class="u" points="266.55 186.94 280.73 183.63 280.98 158.55 268.01 161.58 267.73 162.8 266.94 161.83 254.27 164.79 266.55 186.94"/><path class="ah" d="M266.32,168.05h3.35c2.38,0,4.31,1.93,4.31,4.31v3.35h-7.66v-7.66h0Z" transform="translate(-18.42 310.62) rotate(-58.14)"/><polygon class="ah" points="277.65 184.35 270.64 173.98 268.95 186.38 277.65 184.35"/><g><g><path class="af" d="M278.46,160.79c.74,3.16-3.39,6.82-9.21,8.18s-11.14-.1-11.88-3.25c-.74-3.16,3.39-6.82,9.21-8.18,5.82-1.36,11.14,.1,11.88,3.25Z"/><g><path class="af" d="M257.37,152.96l1.84,7.89c1.01,4.31,5.32,6.99,9.63,5.98h0c4.31-1.01,6.99-5.32,5.98-9.63l-1.84-7.89-15.61,3.65Z"/><path class="ab" d="M258.14,156.25c6.72,3.57,12.4,4.35,16.81,4,.15-.98,.12-2.01-.12-3.04l-1.84-7.89-15.61,3.65,.77,3.29Z"/></g></g><g><g><path class="af" d="M278.89,128.93c3.02,12.95-2.05,25.2-12.8,27.71-10.75,2.51-20.73-6.23-23.76-19.18-3.02-12.95,3.16-20.43,13.92-22.95,10.75-2.51,19.62,1.46,22.64,14.41Z"/><path class="ab" d="M275.6,120.89c-4.27-6.48-11.28-8.25-19.36-6.37-7.13,1.66-12.24,5.52-14.01,11.69,16.93,10.07,27.82,1.73,33.36-5.32Z"/><path class="ah" d="M240.4,136.45s-1.95-9.69,2.37-14.57l8.13,2.22-7.21,4.73v8.63l-3.3-1.01Z"/><path class="ah" d="M279.08,127.42s-2.55-9.55-8.58-12.01l-6.3,5.6,8.55,1.05,3.84,7.73,2.49-2.36Z"/><g><g><path class="aj" d="M256.44,135.99c.3,1.27-.49,2.55-1.77,2.85-1.28,.3-2.55-.49-2.85-1.77-.3-1.28,.49-2.55,1.77-2.85,1.28-.3,2.55,.49,2.85,1.77Z"/><path class="aj" d="M270.26,132.77c.3,1.27-.49,2.55-1.77,2.85-1.27,.3-2.55-.49-2.85-1.77-.3-1.28,.49-2.55,1.77-2.85,1.27-.3,2.55,.49,2.85,1.77Z"/></g><path class="ab" d="M261.76,131.82l-.41,6.29-3.68,.58s.82,3.52,4.14,3.52l-2.25-2.54,3.32-.25-1.11-7.6Z"/></g><g><g><path class="af" d="M275.57,132.94c.25,3.7,2.47,6.61,4.95,6.51,2.48-.1,4.29-3.18,4.04-6.88-.25-3.7-2.47-6.61-4.95-6.51-2.48,.1-4.29,3.18-4.04,6.88Z"/><path class="ab" d="M278.17,132.71c-.38,.02-.73,.14-1.05,.35,0-.06-.01-.12-.02-.18-.17-2.44,1.03-4.48,2.67-4.54,1.64-.07,3.11,1.86,3.27,4.3,.13,1.88-.55,3.51-1.62,4.2-.23-2.35-1.65-4.18-3.25-4.12Z"/></g><g><path class="af" d="M246.55,139.72c1.41,3.42,.71,7.02-1.56,8.03-2.27,1.01-5.26-.95-6.67-4.38-1.41-3.42-.71-7.02,1.56-8.03,2.27-1.01,5.26,.95,6.67,4.38Z"/><path class="ab" d="M244.12,140.67c.35-.15,.72-.2,1.1-.16-.02-.06-.04-.11-.06-.17-.93-2.26-2.91-3.56-4.41-2.89-1.5,.67-1.96,3.04-1.03,5.3,.72,1.74,2.05,2.9,3.31,3.05-.84-2.21-.37-4.48,1.1-5.13Z"/></g></g><g><path class="aj" d="M268.54,142.61s-5.1,2.55-11.94,2.27c0,0,2.05,4.5,7.22,3.44,5.17-1.05,4.72-5.71,4.72-5.71Z"/><path class="x" d="M257.8,146.55l.18-.76-.64-.89c5.24,.06,9.34-1.48,10.71-2.07l-.44,1.41,.56,.69c-.5,1.33-1.67,2.85-4.35,3.39-2.98,.61-4.92-.62-6.03-1.78Z"/><path class="s" d="M267.85,144.53c-.72,.53-2.01,1.18-4.26,1.66-3.33,.71-5.02,.18-5.67-.13l.06-.27c4.34,1.09,9.63-1.55,9.63-1.55l.23,.28Z"/></g></g><path class="ah" d="M249.91,132.83s2.63-2.05,6.46-2.54l-1.14-2.64s-4.01,1.45-6.12,3.82l.8,1.37Z"/><path class="ah" d="M269.96,128.15s-3.27-.67-6.92,.58l-.15-2.87s4.23-.47,7.18,.71l-.11,1.58Z"/><g><path class="i" d="M273.96,117.81s-9.68,7.75-22.13,8.4c-12.45,.65-15.06-4.1-15.02-5.55,.03-1.45,1.97-2.44,3.58-1.88,0,0-4.31-5.17-1.67-8.62,2.65-3.45,8.13-1.95,10.46,1.67,0,0-1.88-2.95-.11-4.11,1.78-1.16,4.21-.25,5.21,2.68,0,0,16.88-4.82,19.68,7.4Z"/><path class="p" d="M273.49,116.23c-12.88,4.7-17.47-1.45-19.08-5.85,.56-.15,3.09-.78,6.18-.89,1.72,3.16,5.16,6.62,11.65,4.38,.5,.68,.92,1.46,1.26,2.36Z"/></g></g></g><polygon class="e" points="280.98 158.55 276.46 155.82 274.58 156.47 269.1 167.97 259.08 160.09 257.12 160.34 254.27 164.79 263.54 176.6 269.43 169.38 277.9 173.25 280.98 158.55"/></g><g><rect class="an" x="98.83" y="121.54" width="96.94" height="14.67" transform="translate(-25.93 37.78) rotate(-13.45)"/><rect class="h" x="104.29" y="147.76" width="96.94" height="4.52" transform="translate(-30.7 39.63) rotate(-13.45)"/><rect class="h" x="107.61" y="162.23" width="96.94" height="4.52" transform="translate(-33.97 40.8) rotate(-13.45)"/><rect class="h" x="110.93" y="176.69" width="96.94" height="4.52" transform="translate(-37.24 41.97) rotate(-13.45)"/><rect class="h" x="114.25" y="191.16" width="96.94" height="4.52" transform="translate(-40.51 43.14) rotate(-13.45)"/><rect class="h" x="117.57" y="205.62" width="96.94" height="4.52" transform="translate(-43.78 44.3) rotate(-13.45)"/></g><g><polygon class="an" points="319.85 199.52 241.56 217.9 244.98 232.17 323.26 213.79 319.85 199.52"/><polygon class="h" points="326.49 225.6 248.2 243.99 249.25 248.38 327.54 230 326.49 225.6"/><polygon class="h" points="329.81 240.07 251.52 258.45 252.57 262.84 330.86 244.46 329.81 240.07"/><polygon class="h" points="333.13 254.53 254.84 272.91 255.89 277.31 334.18 258.93 333.13 254.53"/><polygon class="h" points="336.45 269 258.16 287.38 259.21 291.77 337.5 273.39 336.45 269"/><polygon class="h" points="339.77 283.46 261.48 301.84 262.53 306.24 340.82 287.85 339.77 283.46"/></g><g><g><rect class="j" x="130.09" y="235.74" width="22.84" height="22.84" transform="translate(-56.38 42.34) rotate(-14.22)"/><polygon class="ad" points="151.04 238.26 129.99 248.16 127.64 238.9 149.78 233.29 151.04 238.26"/><path class="al" d="M133.25,263.54c-1.12,0-2.13-.75-2.42-1.89l-5.61-22.14c-.34-1.34,.47-2.7,1.81-3.04l22.14-5.61c.64-.16,1.32-.06,1.89,.28,.57,.34,.98,.89,1.14,1.53l5.61,22.14c.34,1.34-.47,2.7-1.81,3.04l-22.14,5.61c-.21,.05-.41,.08-.62,.08Zm-2.57-22.83l4.38,17.29,17.29-4.38-4.38-17.29-17.29,4.38Z"/></g><g><path class="h" d="M159.28,240.18c-1.12,0-2.13-.75-2.42-1.89-.34-1.34,.47-2.7,1.81-3.04l56.32-14.25c1.34-.34,2.7,.47,3.04,1.81,.34,1.34-.47,2.7-1.81,3.04l-56.32,14.25c-.21,.05-.41,.08-.62,.08Z"/><path class="h" d="M161.14,247.5c-1.12,0-2.13-.75-2.42-1.89-.34-1.34,.47-2.7,1.81-3.04l49.21-12.45c1.34-.33,2.7,.47,3.04,1.81,.34,1.34-.47,2.7-1.81,3.04l-49.21,12.45c-.21,.05-.41,.08-.62,.08Z"/></g><path class="t" d="M144.8,253.28l-6.75-5.03c-.89-.66-1.07-1.91-.41-2.8,.66-.89,1.91-1.07,2.8-.41l3.05,2.27,14.33-26.34c.53-.97,1.74-1.33,2.71-.8,.97,.53,1.33,1.74,.8,2.71l-16.53,30.39Z"/></g><g><g><rect class="j" x="140.17" y="278.41" width="22.84" height="22.84" transform="translate(-66.56 46.12) rotate(-14.22)"/><polygon class="ad" points="161.11 280.92 140.06 290.82 137.71 281.56 159.85 275.95 161.11 280.92"/><path class="al" d="M143.32,306.2c-1.12,0-2.13-.75-2.42-1.89l-5.61-22.14c-.34-1.34,.47-2.7,1.81-3.04l22.14-5.61c.64-.16,1.32-.06,1.89,.28,.57,.34,.98,.89,1.14,1.53l5.61,22.14c.34,1.34-.47,2.7-1.81,3.04l-22.14,5.61c-.21,.05-.41,.08-.62,.08Zm-2.57-22.83l4.38,17.29,17.29-4.38-4.38-17.29-17.29,4.38Z"/></g><g><path class="h" d="M169.36,282.84c-1.12,0-2.13-.75-2.42-1.89-.34-1.34,.47-2.7,1.81-3.04l56.32-14.25c1.34-.34,2.7,.47,3.04,1.81,.34,1.34-.47,2.7-1.81,3.04l-56.32,14.25c-.21,.05-.41,.08-.62,.08Z"/><path class="h" d="M171.21,290.17c-1.12,0-2.13-.75-2.42-1.89-.34-1.34,.47-2.7,1.81-3.04l49.21-12.45c1.34-.33,2.7,.47,3.04,1.81,.34,1.34-.47,2.7-1.81,3.04l-49.21,12.45c-.21,.05-.41,.08-.62,.08Z"/></g><path class="t" d="M154.87,295.95l-6.75-5.03c-.89-.66-1.07-1.91-.41-2.8,.66-.89,1.91-1.07,2.8-.41l3.05,2.27,14.33-26.34c.53-.97,1.74-1.33,2.71-.8,.97,.53,1.33,1.74,.8,2.71l-16.53,30.39Z"/></g><g><g><rect class="j" x="150.24" y="321.07" width="22.84" height="22.84" transform="translate(-76.73 49.9) rotate(-14.22)"/><polygon class="ad" points="171.18 323.59 150.13 333.49 147.79 324.23 169.93 318.62 171.18 323.59"/><path class="al" d="M153.4,348.87c-1.12,0-2.13-.75-2.42-1.89l-5.61-22.14c-.34-1.34,.47-2.7,1.81-3.04l22.14-5.61c.64-.16,1.32-.06,1.89,.28,.57,.34,.98,.89,1.14,1.53l5.61,22.14c.34,1.34-.47,2.7-1.81,3.04l-22.14,5.61c-.21,.05-.41,.08-.62,.08Zm-2.57-22.83l4.38,17.29,17.29-4.38-4.38-17.29-17.29,4.38Z"/></g><g><path class="h" d="M179.43,325.51c-1.12,0-2.13-.75-2.42-1.89-.34-1.34,.47-2.7,1.81-3.04l56.32-14.25c1.34-.34,2.7,.47,3.04,1.81,.34,1.34-.47,2.7-1.81,3.04l-56.32,14.25c-.21,.05-.41,.08-.62,.08Z"/><path class="h" d="M181.29,332.84c-1.12,0-2.13-.75-2.42-1.89-.34-1.34,.47-2.7,1.81-3.04l49.21-12.45c1.34-.33,2.7,.47,3.04,1.81,.34,1.34-.47,2.7-1.81,3.04l-49.21,12.45c-.21,.05-.41,.08-.62,.08Z"/></g><path class="t" d="M164.95,338.62l-6.75-5.03c-.89-.66-1.07-1.91-.41-2.8,.66-.89,1.91-1.07,2.8-.41l3.05,2.27,14.33-26.34c.53-.97,1.74-1.33,2.71-.8,.97,.53,1.33,1.74,.8,2.71l-16.53,30.39Z"/></g></g><path class="g" d="M299.01,23.58c-1.24-1.83-3.11-3.06-5.28-3.48-2.17-.42-4.37,.03-6.19,1.27-1.83,1.24-3.06,3.11-3.48,5.28l-.64,3.3,2.13-.51,.46-2.41c.32-1.64,1.25-3.06,2.64-4,1.38-.94,3.05-1.28,4.69-.96,1.64,.32,3.06,1.25,4,2.64,.94,1.38,1.28,3.05,.96,4.69l-3.87,20.08h0l-2.25,11.67c-.41,2.12-2.47,3.52-4.6,3.11-1.03-.2-1.92-.79-2.51-1.65-.59-.87-.8-1.91-.6-2.94l4.07-21.12-1.96-.38-4.07,21.12c-.3,1.55,.02,3.13,.91,4.44,.89,1.31,2.23,2.2,3.79,2.5,.38,.07,.75,.11,1.12,.11,2.78,0,5.27-1.97,5.82-4.81l2.46-12.76h0l3.66-18.98c.42-2.17-.03-4.37-1.27-6.19Z"/></g><path class="y" d="M200.25,299.03c44.3,31.39,105.67,20.93,137.06-23.37,9.81-13.84,15.53-29.34,17.41-45.08l-15.91-66.47c-6.48-9.68-14.8-18.38-24.87-25.51-44.3-31.39-105.67-20.93-137.06,23.37-31.39,44.3-20.93,105.67,23.37,137.06Z"/><g><g><path class="am" d="M344.25,262.17l119.21,71.52c11.55,6.93,15.29,21.91,8.36,33.46-6.93,11.55-21.91,15.29-33.46,8.36-1.04-.62-2.12-1.4-3.03-2.14l-106.98-88.77c-5.86-4.86-6.67-13.55-1.81-19.41,4.41-5.31,11.96-6.47,17.7-3.02Z"/><path class="aa" d="M360.83,277.78l96.85,58.72c8.87,5.32,11.75,16.83,6.42,25.7-5.32,8.87-16.83,11.75-25.7,6.42-.8-.48-1.63-1.08-2.32-1.65l-87.46-71.97c-4.5-3.73-5.12-10.41-1.39-14.91,3.38-4.08,9.19-4.97,13.59-2.32Z"/><line class="l" x1="350.39" y1="280.5" x2="448.61" y2="344.91"/><path class="f" d="M311.13,280.85l26.53,18.69c3.12,2.21,7.49,1.47,9.7-1.65l15.77-22.26c2.21-3.12,1.47-7.49-1.65-9.7l-26.53-18.69c-3.12-2.21-7.49-1.47-9.7,1.65l-15.77,22.26c-2.21,3.12-1.47,7.49,1.65,9.7Z"/><path class="ai" d="M350.19,257.97l-13.89-9.78c-3.12-2.21-7.49-1.47-9.7,1.65l-15.77,22.26c-2.21,3.12-1.47,7.49,1.65,9.7l13.87,9.77c5.4-4.18,10.28-9.21,14.43-15.06,4.14-5.84,7.26-12.08,9.41-18.54Z"/><path class="ag" d="M346.75,255.53l-13.89-9.78c-3.12-2.21-7.49-1.47-9.7,1.65l-15.77,22.26c-2.21,3.12-1.47,7.49,1.65,9.7l13.87,9.77c5.4-4.18,10.28-9.21,14.43-15.06,4.14-5.84,7.26-12.08,9.41-18.54Z"/><path class="k" d="M287.84,294.94c.58,3.39,3.94,5.58,7.27,4.7,15.45-4.09,29.6-13.41,39.56-27.46,9.96-14.06,14.06-30.5,12.8-46.43-.27-3.43-3.45-5.88-6.84-5.3l-63.64,10.85,10.85,63.64Z"/><path class="ag" d="M319.66,254.83c.9-1.27,2.67-1.57,3.94-.67l8.22,5.82c-1.37,2.38-2.86,4.72-4.48,7-1.64,2.31-3.38,4.52-5.19,6.63l-8.21-5.81c-1.27-.9-1.57-2.67-.67-3.94l6.4-9.03Z"/><circle class="ae" cx="253.1" cy="214.37" r="90.99" transform="translate(-77.45 241.76) rotate(-45)"/><circle class="a`" cx="253.1" cy="214.37" r="85.87" transform="translate(-77.45 241.76) rotate(-45)"/><circle class="r" cx="253.1" cy="214.37" r="81.54" transform="translate(-77.45 241.76) rotate(-45)"/><circle class="ag" cx="253.1" cy="214.37" r="79.58" transform="translate(-77.45 241.76) rotate(-45)"/><circle class="u" cx="253.1" cy="214.37" r="77.76" transform="translate(-77.45 241.76) rotate(-45)"/><circle class="e" cx="253.1" cy="214.37" r="72.36" transform="translate(-77.45 241.76) rotate(-45)"/><path class="v" d="M219.87,264.79c1.41,8.28,4.09,16.02,7.79,23.07,11.97,4.16,25.13,5.44,38.51,3.16,42.33-7.22,70.8-47.39,63.58-89.72-1.41-8.28-4.09-16.02-7.79-23.07-11.97-4.16-25.13-5.44-38.51-3.16-42.33,7.22-70.8,47.39-63.58,89.72Z"/><line class="m" x1="348.45" y1="269.12" x2="356.15" y2="274.58"/><path class="w" d="M290.08,164.12c-1.54,6.01-13.33,8.18-26.33,4.84-13-3.33-22.3-10.91-20.76-16.91,1.54-6.01,13.33-8.18,26.33-4.84,13,3.33,22.3,10.91,20.76,16.91Z"/></g><g class="ac"><g><rect class="u" x="204.98" y="110.54" width="110.63" height="123.58" transform="translate(-32.93 65.25) rotate(-13.45)"/><g><polygon class="ah" points="284.47 193.88 278.2 193.81 270.5 196.02 269.16 201.91 265.35 197.23 257.47 198.65 251.87 201.49 233.51 217.61 238.87 240.58 261.57 235.27 290.74 228.46 313.44 223.16 308.08 200.19 284.47 193.88"/><polygon class="u" points="267.59 233.87 286.38 229.48 286.7 196.28 269.53 200.29 269.16 201.91 268.11 200.62 251.33 204.54 267.59 233.87"/><path class="ah" d="M267.29,208.85h5.84c2.38,0,4.31,1.93,4.31,4.31v5.84h-10.15v-10.15h0Z" transform="translate(-53.09 332.36) rotate(-58.14)"/><polygon class="ah" points="282.29 230.44 273.01 216.7 270.77 233.13 282.29 230.44"/><g><g><ellipse class="af" cx="269.39" cy="202.5" rx="14.34" ry="7.77" transform="translate(-38.99 66.57) rotate(-13.14)"/><g><path class="af" d="M255.44,188.87l2.44,10.45c1.33,5.71,7.04,9.26,12.75,7.92h0c5.71-1.33,9.26-7.04,7.92-12.75l-2.44-10.45-20.67,4.83Z"/><path class="ab" d="M256.46,193.23c8.89,4.72,16.41,5.76,22.25,5.29,.2-1.3,.16-2.66-.15-4.03l-2.44-10.45-20.67,4.83,1.02,4.36Z"/></g></g><g><g><path class="af" d="M283.93,157.07c4,17.15-2.72,33.37-16.95,36.7-14.24,3.33-27.45-8.25-31.45-25.39-4-17.14,4.19-27.06,18.43-30.38,14.24-3.33,25.97,1.93,29.98,19.08Z"/><path class="ab" d="M279.58,146.42c-5.66-8.58-14.94-10.93-25.63-8.43-9.44,2.2-16.21,7.3-18.55,15.48,22.41,13.34,36.84,2.29,44.18-7.05Z"/><path class="ah" d="M232.97,167.02s-2.58-12.84,3.14-19.29l10.77,2.94-9.54,6.26-.02,11.43-4.34-1.34Z"/><path class="ah" d="M284.18,155.06s-3.37-12.65-11.36-15.91l-8.35,7.41,11.33,1.39,5.08,10.24,3.3-3.12Z"/><g><g><path class="aj" d="M254.21,166.41c.39,1.69-.65,3.38-2.34,3.77-1.69,.39-3.38-.65-3.77-2.34-.39-1.69,.65-3.38,2.34-3.77,1.69-.39,3.38,.65,3.77,2.34Z"/><path class="aj" d="M272.51,162.14c.39,1.69-.65,3.38-2.34,3.77-1.69,.39-3.38-.65-3.77-2.34-.39-1.69,.65-3.38,2.34-3.77,1.69-.39,3.38,.65,3.77,2.34Z"/></g><path class="ab" d="M261.25,160.89l-.55,8.33-4.87,.77s1.09,4.65,5.48,4.65l-2.98-3.37,4.39-.33-1.47-10.06Z"/></g><g><g><path class="af" d="M279.54,162.37c.33,4.89,3.27,8.75,6.56,8.61,3.29-.14,5.69-4.21,5.35-9.11-.33-4.89-3.27-8.75-6.56-8.61-3.29,.14-5.69,4.21-5.35,9.11Z"/><path class="ab" d="M282.98,162.07c-.5,.02-.97,.19-1.4,.46,0-.08-.02-.16-.02-.24-.22-3.23,1.36-5.93,3.54-6.02,2.17-.09,4.11,2.46,4.33,5.69,.17,2.49-.73,4.65-2.14,5.56-.3-3.12-2.19-5.54-4.31-5.45Z"/></g><g><path class="af" d="M241.11,171.35c1.87,4.53,.94,9.29-2.07,10.63-3.01,1.34-6.96-1.26-8.83-5.79-1.87-4.53-.94-9.29,2.07-10.63,3.01-1.34,6.96,1.26,8.83,5.79Z"/><path class="ab" d="M237.89,172.6c.46-.2,.95-.26,1.45-.21-.03-.08-.05-.15-.08-.23-1.23-3-3.85-4.71-5.84-3.83-1.99,.88-2.6,4.03-1.37,7.02,.95,2.3,2.71,3.84,4.38,4.03-1.11-2.93-.49-5.93,1.45-6.79Z"/></g></g><g><path class="aj" d="M270.23,175.18s-6.76,3.37-15.81,3.01c0,0,2.71,5.95,9.57,4.56,6.85-1.4,6.24-7.57,6.24-7.57Z"/><path class="x" d="M256.01,180.39l.24-1-.84-1.18c6.93,.08,12.37-1.96,14.18-2.74l-.58,1.87,.74,.91c-.67,1.76-2.21,3.77-5.76,4.49-3.94,.8-6.51-.82-7.98-2.35Z"/><path class="s" d="M269.31,177.72c-.95,.7-2.66,1.56-5.65,2.2-4.4,.93-6.64,.24-7.5-.17l.09-.35c5.74,1.44,12.76-2.05,12.76-2.05l.31,.37Z"/></g></g><path class="ah" d="M245.56,162.23s3.48-2.71,8.55-3.37l-1.5-3.5s-5.3,1.92-8.11,5.06l1.06,1.81Z"/><path class="ah" d="M272.11,156.03s-4.32-.89-9.16,.77l-.2-3.81s5.61-.62,9.51,.95l-.14,2.09Z"/><g><path class="i" d="M277.41,142.33s-12.82,10.26-29.3,11.12c-16.48,.86-19.93-5.43-19.89-7.34,.04-1.91,2.61-3.24,4.74-2.49,0,0-5.71-6.85-2.2-11.42,3.51-4.57,10.77-2.58,13.85,2.21,0,0-2.49-3.91-.14-5.44s5.57-.33,6.9,3.56c0,0,22.35-6.39,26.05,9.8Z"/><path class="p" d="M276.78,140.24c-17.05,6.23-23.13-1.92-25.27-7.75,.74-.2,4.1-1.03,8.18-1.18,2.27,4.19,6.83,8.77,15.42,5.8,.66,.9,1.22,1.94,1.67,3.12Z"/></g></g></g><polygon class="e" points="286.7 196.28 280.71 192.67 278.23 193.52 270.97 208.76 257.71 198.32 255.11 198.65 251.33 204.54 263.61 220.18 271.4 210.62 282.62 215.74 286.7 196.28"/></g><g><rect class="an" x="45.53" y="147.28" width="128.36" height="19.42" transform="translate(-33.5 29.81) rotate(-13.45)"/><rect class="h" x="52.76" y="182" width="128.36" height="5.98" transform="translate(-39.81 32.26) rotate(-13.45)"/><rect class="h" x="57.15" y="201.15" width="128.36" height="5.98" transform="translate(-44.14 33.81) rotate(-13.45)"/><rect class="h" x="61.55" y="220.3" width="128.36" height="5.98" transform="translate(-48.47 35.35) rotate(-13.45)"/><rect class="h" x="65.94" y="239.45" width="128.36" height="5.98" transform="translate(-52.81 36.9) rotate(-13.45)"/><rect class="h" x="70.34" y="258.6" width="128.36" height="5.98" transform="translate(-57.14 38.45) rotate(-13.45)"/></g><g><polygon class="an" points="338.16 250.53 234.51 274.87 239.03 293.76 342.68 269.42 338.16 250.53"/><polygon class="h" points="346.95 285.06 243.3 309.4 244.69 315.22 348.34 290.88 346.95 285.06"/><polygon class="h" points="351.35 304.21 247.7 328.55 249.09 334.37 352.74 310.03 351.35 304.21"/><polygon class="h" points="355.74 323.36 252.09 347.7 253.49 353.52 357.14 329.18 355.74 323.36"/><polygon class="h" points="360.14 342.51 256.49 366.85 257.88 372.67 361.53 348.33 360.14 342.51"/><polygon class="h" points="364.53 361.66 260.88 386 262.28 391.82 365.93 367.48 364.53 361.66"/></g><g><g><rect class="j" x="86.92" y="298.48" width="30.24" height="30.24" transform="translate(-73.92 34.68) rotate(-14.22)"/><polygon class="ad" points="114.65 301.81 86.78 314.92 83.67 302.66 112.98 295.23 114.65 301.81"/><path class="al" d="M91.1,335.28c-1.48,0-2.83-1-3.21-2.5l-7.43-29.31c-.45-1.77,.62-3.57,2.4-4.02l29.31-7.43c.85-.21,1.75-.08,2.51,.37,.75,.45,1.3,1.18,1.51,2.03l7.43,29.31c.45,1.77-.62,3.57-2.4,4.02l-29.31,7.43c-.27,.07-.55,.1-.82,.1Zm-3.4-30.23l5.8,22.89,22.89-5.8-5.8-22.89-22.89,5.8Z"/></g><g><path class="h" d="M125.57,304.36c-1.48,0-2.83-1-3.21-2.5-.45-1.77,.62-3.57,2.4-4.02l74.57-18.87c1.77-.45,3.57,.62,4.02,2.4,.45,1.77-.62,3.57-2.4,4.02l-74.57,18.87c-.27,.07-.55,.1-.82,.1Z"/><path class="h" d="M128.03,314.05c-1.48,0-2.83-1-3.21-2.5-.45-1.77,.62-3.57,2.4-4.02l65.15-16.48c1.77-.44,3.57,.62,4.02,2.4,.45,1.77-.62,3.57-2.4,4.02l-65.15,16.48c-.27,.07-.55,.1-.82,.1Z"/></g><path class="t" d="M106.39,321.71l-8.93-6.66c-1.17-.87-1.42-2.53-.54-3.7,.87-1.17,2.53-1.42,3.71-.54l4.04,3.01,18.97-34.87c.7-1.28,2.31-1.76,3.59-1.06,1.28,.7,1.76,2.31,1.06,3.59l-21.89,40.24Z"/></g><g><g><rect class="j" x="100.26" y="354.97" width="30.24" height="30.24" transform="translate(-87.38 39.69) rotate(-14.22)"/><polygon class="ad" points="127.99 358.3 100.12 371.42 97.01 359.15 126.32 351.72 127.99 358.3"/><path class="al" d="M104.44,391.78c-1.48,0-2.83-1-3.21-2.5l-7.43-29.31c-.45-1.77,.62-3.57,2.4-4.02l29.31-7.43c.85-.21,1.75-.08,2.51,.37,.75,.45,1.3,1.18,1.51,2.03l7.43,29.31c.45,1.77-.62,3.57-2.4,4.02l-29.31,7.43c-.27,.07-.55,.1-.82,.1Zm-3.4-30.23l5.8,22.89,22.89-5.8-5.8-22.89-22.89,5.8Z"/></g><g><path class="h" d="M138.91,360.85c-1.48,0-2.83-1-3.21-2.5-.45-1.77,.62-3.57,2.4-4.02l74.57-18.87c1.77-.45,3.57,.62,4.02,2.4,.45,1.77-.62,3.57-2.4,4.02l-74.57,18.87c-.27,.07-.55,.1-.82,.1Z"/><path class="h" d="M141.36,370.55c-1.48,0-2.83-1-3.21-2.5-.45-1.77,.62-3.57,2.4-4.02l65.15-16.48c1.77-.44,3.57,.62,4.02,2.4,.45,1.77-.62,3.57-2.4,4.02l-65.15,16.48c-.27,.07-.55,.1-.82,.1Z"/></g><path class="t" d="M119.73,378.2l-8.93-6.66c-1.17-.87-1.42-2.53-.54-3.7,.87-1.17,2.53-1.42,3.71-.54l4.04,3.01,18.97-34.87c.7-1.28,2.31-1.76,3.59-1.06,1.28,.7,1.76,2.31,1.06,3.59l-21.89,40.24Z"/></g><g><g><rect class="j" x="113.6" y="411.47" width="30.24" height="30.24" transform="translate(-100.85 44.7) rotate(-14.22)"/><polygon class="ad" points="141.33 414.8 113.46 427.91 110.35 415.64 139.66 408.22 141.33 414.8"/><path class="al" d="M117.77,448.27c-1.48,0-2.83-1-3.21-2.5l-7.43-29.31c-.45-1.77,.62-3.57,2.4-4.02l29.31-7.43c.85-.21,1.75-.08,2.51,.37,.75,.45,1.3,1.18,1.51,2.03l7.43,29.31c.45,1.77-.62,3.57-2.4,4.02l-29.31,7.43c-.27,.07-.55,.1-.82,.1Zm-3.4-30.23l5.8,22.89,22.89-5.8-5.8-22.89-22.89,5.8Z"/></g><g><path class="h" d="M152.25,417.34c-1.48,0-2.83-1-3.21-2.5-.45-1.77,.62-3.57,2.4-4.02l74.57-18.87c1.77-.45,3.57,.62,4.02,2.4,.45,1.77-.62,3.57-2.4,4.02l-74.57,18.87c-.27,.07-.55,.1-.82,.1Z"/><path class="h" d="M154.7,427.04c-1.48,0-2.83-1-3.21-2.5-.45-1.77,.62-3.57,2.4-4.02l65.15-16.48c1.77-.44,3.57,.62,4.02,2.4,.45,1.77-.62,3.57-2.4,4.02l-65.15,16.48c-.27,.07-.55,.1-.82,.1Z"/></g><path class="t" d="M133.07,434.69l-8.93-6.66c-1.17-.87-1.42-2.53-.54-3.7,.87-1.17,2.53-1.42,3.71-.54l4.04,3.01,18.97-34.87c.7-1.28,2.31-1.76,3.59-1.06,1.28,.7,1.76,2.31,1.06,3.59l-21.89,40.24Z"/></g></g></g><circle class="o" cx="253.1" cy="214.37" r="79.58" transform="translate(-77.45 241.76) rotate(-45)"/></g></g></g></g></g></g></svg>