<svg width="114" height="26" viewBox="0 0 114 26" fill="none" xmlns="http://www.w3.org/2000/svg">
<path d="M1.42 26C1.156 26 0.94 25.916 0.772 25.748C0.604 25.556 0.52 25.34 0.52 25.1V1.7C0.52 1.436 0.604 1.22 0.772 1.052C0.94 0.883999 1.156 0.799998 1.42 0.799998H6.244C6.508 0.799998 6.724 0.883999 6.892 1.052C7.084 1.22 7.18 1.436 7.18 1.7V25.1C7.18 25.34 7.084 25.556 6.892 25.748C6.724 25.916 6.508 26 6.244 26H1.42ZM13.0919 26C12.8279 26 12.6119 25.916 12.4439 25.748C12.2759 25.556 12.1919 25.34 12.1919 25.1V1.7C12.1919 1.436 12.2759 1.22 12.4439 1.052C12.6119 0.883999 12.8279 0.799998 13.0919 0.799998H24.0719C26.1359 0.799998 27.8279 1.088 29.1479 1.664C30.4679 2.24 31.4399 3.068 32.0639 4.148C32.7119 5.204 33.0359 6.464 33.0359 7.928C33.0359 8.792 32.8679 9.56 32.5319 10.232C32.2199 10.88 31.8239 11.42 31.3439 11.852C30.8879 12.284 30.4559 12.596 30.0479 12.788C30.9599 13.22 31.7639 13.928 32.4599 14.912C33.1799 15.896 33.5399 17.048 33.5399 18.368C33.5399 19.952 33.1799 21.32 32.4599 22.472C31.7639 23.6 30.7319 24.476 29.3639 25.1C28.0199 25.7 26.3639 26 24.3959 26H13.0919ZM18.6719 21.32H23.6759C24.7079 21.32 25.4879 21.02 26.0159 20.42C26.5439 19.82 26.8079 19.136 26.8079 18.368C26.8079 17.528 26.5319 16.82 25.9799 16.244C25.4519 15.668 24.6839 15.38 23.6759 15.38H18.6719V21.32ZM18.6719 10.808H23.3519C24.3359 10.808 25.0679 10.556 25.5479 10.052C26.0519 9.524 26.3039 8.876 26.3039 8.108C26.3039 7.34 26.0519 6.716 25.5479 6.236C25.0679 5.732 24.3359 5.48 23.3519 5.48H18.6719V10.808ZM38.4395 26C38.1755 26 37.9595 25.916 37.7915 25.748C37.6235 25.556 37.5395 25.34 37.5395 25.1V1.7C37.5395 1.436 37.6235 1.22 37.7915 1.052C37.9595 0.883999 38.1755 0.799998 38.4395 0.799998H48.2315C51.3515 0.799998 53.7995 1.52 55.5755 2.96C57.3515 4.376 58.2395 6.392 58.2395 9.008C58.2395 10.712 57.8315 12.152 57.0155 13.328C56.1995 14.504 55.1195 15.392 53.7755 15.992L58.7075 24.848C58.7795 24.992 58.8155 25.124 58.8155 25.244C58.8155 25.436 58.7315 25.616 58.5635 25.784C58.4195 25.928 58.2515 26 58.0595 26H53.2715C52.8155 26 52.4795 25.892 52.2635 25.676C52.0475 25.436 51.8915 25.22 51.7955 25.028L47.6915 17.108H44.0195V25.1C44.0195 25.34 43.9235 25.556 43.7315 25.748C43.5635 25.916 43.3475 26 43.0835 26H38.4395ZM44.0195 11.996H48.1595C49.2875 11.996 50.1275 11.72 50.6795 11.168C51.2555 10.616 51.5435 9.872 51.5435 8.936C51.5435 8 51.2675 7.244 50.7155 6.668C50.1875 6.092 49.3355 5.804 48.1595 5.804H44.0195V11.996ZM60.9902 26C60.7982 26 60.6182 25.928 60.4502 25.784C60.3062 25.616 60.2342 25.436 60.2342 25.244C60.2342 25.124 60.2462 25.016 60.2702 24.92L68.7302 1.808C68.8022 1.544 68.9462 1.316 69.1622 1.124C69.4022 0.907998 69.7262 0.799998 70.1342 0.799998H75.4622C75.8702 0.799998 76.1822 0.907998 76.3982 1.124C76.6382 1.316 76.7942 1.544 76.8662 1.808L85.2902 24.92C85.3382 25.016 85.3622 25.124 85.3622 25.244C85.3622 25.436 85.2782 25.616 85.1102 25.784C84.9662 25.928 84.7862 26 84.5702 26H80.1422C79.7822 26 79.5062 25.916 79.3142 25.748C79.1462 25.556 79.0382 25.388 78.9902 25.244L77.5862 21.572H67.9742L66.6062 25.244C66.5582 25.388 66.4502 25.556 66.2822 25.748C66.1142 25.916 65.8262 26 65.4182 26H60.9902ZM69.4502 16.388H76.1462L72.7982 6.884L69.4502 16.388Z" fill="white"/>
<path d="M101.898 24.812C101.634 24.812 101.418 24.728 101.25 24.56C101.082 24.368 100.998 24.152 100.998 23.912V17.324H94.5897C94.3257 17.324 94.0977 17.24 93.9057 17.072C93.7377 16.904 93.6537 16.688 93.6537 16.424V13.796C93.6537 13.532 93.7377 13.316 93.9057 13.148C94.0977 12.956 94.3257 12.86 94.5897 12.86H100.998V6.488C100.998 6.224 101.082 6.008 101.25 5.84C101.418 5.672 101.634 5.588 101.898 5.588H104.85C105.09 5.588 105.294 5.672 105.462 5.84C105.654 6.008 105.75 6.224 105.75 6.488V12.86H112.122C112.386 12.86 112.602 12.956 112.77 13.148C112.938 13.316 113.022 13.532 113.022 13.796V16.424C113.022 16.688 112.938 16.904 112.77 17.072C112.602 17.24 112.386 17.324 112.122 17.324H105.75V23.912C105.75 24.152 105.654 24.368 105.462 24.56C105.294 24.728 105.09 24.812 104.85 24.812H101.898Z" fill="#B41218"/>
</svg>
