<?xml version="1.0" encoding="utf-8"?>
<!-- Generator: Adobe Illustrator 25.2.1, SVG Export Plug-In . SVG Version: 6.00 Build 0)  -->
<svg version="1.1" xmlns="http://www.w3.org/2000/svg" xmlns:xlink="http://www.w3.org/1999/xlink" x="0px" y="0px"
	 viewBox="0 0 2535.2 1714.5" style="enable-background:new 0 0 2535.2 1714.5;" xml:space="preserve">
<style type="text/css">
	.st0{fill:#FFE9DC;}
	.st1{fill:#FF6666;}
	.st2{fill:#ED6A07;}
	.st3{fill:#DB5800;}
	.st4{fill:#EFA48F;}
	.st5{fill:#FFFFFF;}
	.st6{fill:#FAB04F;}
	.st7{fill:#D8827A;}
	.st8{fill:#1E2633;}
	.st9{fill:#666666;}
	.st10{fill:#FFCACA;}
	.st11{fill:#2D3945;}
	.st12{fill:#FFB3B3;}
	.st13{fill:#FF8383;}
	.st14{fill:#ED4C4C;}
	.st15{fill:#D37975;}
	.st16{fill:#FF4D4D;}
	.st17{fill:#FF8080;}
	.st18{fill:#FFA6A6;}
	.st19{fill:#CC6666;}
</style>
<g id="background">
</g>
<g id="illustration">
	<g id="woman">
		<g id="stain">
			<path class="st0" d="M1640.6,1196.5c-42.9-106.8,11.5-166,20.4-356.3s-125.2-291.9-27.3-460.6c76.2-131.4,308.9-140.8,423.8,6
				c124.1,158.5,241,162.5,334.1,268.2c166.9,189.6,59.1,502.8-123.4,605.7C2057.9,1378,1705.2,1357.2,1640.6,1196.5z"/>
		</g>
		<path class="st1" d="M2323.8,1219.7c-17.5,15.4-36.2,28.7-55.6,39.7c-133.1,75-323.2,94.2-461.3,57.5l42.9-284.7
			c0,0,301.1-110.1,364.2-49.8C2288.4,1053.7,2315.5,1145.1,2323.8,1219.7z"/>
		<path class="st2" d="M2151.7,145.3c0,0,34-2.9,56.5,18s23,49.6,37.4,60.5c14.3,11,58.6,21,80.1,54.2c21.5,33.2,0,69.6,10.8,87.3
			c10.8,17.7,47.9,14,68.9,50.5c18,31.2-0.8,68.2,5.2,83.4c6,15.3,41.7,37.9,45.8,78.4c5.5,55.2-26.6,76.8-31.4,95.3
			c-4.8,18.5,29.9,75.4,3.6,113.3c-26.3,37.9-82.5,45-162.5,41.5c-80.1-3.6-412-213.1-437.9-250c-25.9-36.9,1.7-71.2,22.1-94
			c20.4-22.8-8.2-63.9,1.2-104.4c9.4-40.5,45.2-41.7,53-68.6c7.8-26.9-12.4-48.9,0-84.6c12.4-35.8,47.8-44.2,54.7-57.8
			c6.9-13.5,23.7-37.4,46.7-49.4C2089.1,75.6,2151.7,145.3,2151.7,145.3z"/>
		<path class="st3" d="M2161.3,337c0,0,29.5,2.1,48,28.4c20.2,28.6,3.9,56.1,17.4,73.5c17.4,22.4,54.7,14.7,71.3,45.9
			s5.8,74.1,5.8,74.1s-376.6,4.6-391-30.5c-14.3-35.1,24.6-35,31.2-61.7c3.6-14.5-2.7-30.6,7.4-46c17.1-26.4,73.5-19.9,73.5-19.9
			l99.8-79.7L2161.3,337z"/>
		<g>
			<path class="st3" d="M1868.8,516.8c-1.8-7-0.7-14.5,2.9-20.8c1.8-3.1,4.1-5.8,7-8.1c3.3-2.6,7-4.7,10-7.6
				c12.4-12.1,5.5-31-1.4-44c-4-7.5-8.5-15.5-9.5-24.1c-0.5-4,0-7.9,1.5-11.7c-0.1,0.3,0.2-0.4,0.3-0.6c0.2-0.3,0.3-0.6,0.5-1
				c0.4-0.7,0.8-1.4,1.2-2.1c0.4-0.6,0.8-1.2,1.2-1.7c-0.2,0.3,0.3-0.4,0.4-0.5c0.3-0.3,0.6-0.7,0.9-1c4.3-4.7,9-7.8,14.2-11.5
				c5.2-3.6,10.6-7.4,14.6-12.4c2.3-2.8,4.1-5.9,5.4-9.3c1.5-4,2-8.2,2.2-12.4c0.4-8.1-0.8-16.4,0.7-24.5c0.4-2,0.9-4,1.7-6
				c0.5-1.3-0.6-2.9-1.9-3.3c-1.5-0.4-2.8,0.5-3.3,1.9c-3.1,8-2.6,16.8-2.5,25.2c0.1,7.7-0.2,15.7-4.5,22.3
				c-0.9,1.4-1.5,2.1-2.5,3.3c-1,1.2-2.1,2.3-3.3,3.3c-2.4,2.2-4.5,3.7-7.2,5.6c-5.3,3.7-10.8,7.3-15.5,11.7
				c-5.1,4.9-8.7,10.9-9.5,18c-1.1,9,2.5,17.9,6.5,25.8c3.6,7.3,7.9,14.3,10,22.3c1.8,6.9,2.1,14.3-2.1,20.2
				c-2.2,3.1-5.7,5.3-8.8,7.5c-3.4,2.4-6.5,5.1-9,8.5c-4.6,6.2-6.9,14.3-6.4,22c0.1,2,0.5,4,1,6
				C1864.5,521.6,1869.7,520.2,1868.8,516.8L1868.8,516.8z"/>
		</g>
		<path class="st4" d="M1480.4,505c7.3-9.7,70.9,24,70.9,24s-47.9-38.1-38.2-46.1c9.7-8.1,106.1,70.5,106.1,70.5s-5.9-16-5.7-30.2
			c0.3-14.2,12.3-19,12.3-19s6.3,18,27.2,60.7c10.1,20.6,6.5,43.6,5,50.6l88.5,186.5l38.5-120.6l93.1,94.7
			c0,0-61.8,194.8-151.3,188.2c-85-6.3-108.1-249.7-128-320.4c-6.4-2.9-30.2-14-45.7-23.5c-18.1-11.2-82.2-47.9-83.5-56.6
			c-2-13.9,60.9,14.4,60.9,14.4s-61.6-37.6-58.6-50.6c2.1-9.2,18.3-2.6,18.3-2.6S1473,514.7,1480.4,505z"/>
		<path class="st5" d="M1739.9,754.7c0,0,31.8-148.4,61.1-201.7c25.9-47.1,91.6-53.9,91.6-53.9l-5.1,285.5L1739.9,754.7z"/>
		<path class="st0" d="M1823.1,771.8l-40.4-8.4c5.8-39.9,23.2-97.5,46.3-131.7L1823.1,771.8z"/>
		<path class="st5" d="M1993.1,481.2l-100.6,17.9c0,0-160.5,193.1-43.7,539.4c14.8,44,322.6,51.6,402.8-13.2
			c27.1-21.9,23.9-217.7,23.9-217.7l-26.9-297.3l-113.1-30.5L1993.1,481.2z"/>
		<path class="st0" d="M2275.3,862.8l-34.6-7.6c0,0-63.7,74.4-145.7,52.7c-82-21.8,120.4-120.1,120.4-120.1l60.2,30.1L2275.3,862.8z
			"/>
		<path class="st6" d="M2252.5,810.9h-45c1-50.3,0.8-55,4.8-112.4L2252.5,810.9z"/>
		<path class="st5" d="M2010.2,1332.9c-0.4,0-0.9,0.1-1.3,0.1c-1.9-8.4-3.7-16.7-5.4-25.1c-1.5-7.2-2.9-14.3-4.4-21.5l-4.2-21.5
			l-4-21.6c-1.3-7.2-2.6-14.4-3.8-21.6c-2.5-14.4-4.8-28.8-7-43.3c3.3,14.2,6.5,28.5,9.4,42.9c1.5,7.1,2.9,14.3,4.4,21.5l4.2,21.5
			l4,21.6c1.3,7.2,2.6,14.4,3.8,21.6C2007.4,1315.9,2008.8,1324.4,2010.2,1332.9z"/>
		<path class="st5" d="M2112,1138c1.9,6.1,4.7,11.9,7.9,17.3c3.3,5.4,7.2,10.4,11.6,14.9c4.4,4.5,9.3,8.5,14.6,11.8
			c5.3,3.3,11,6.1,16.9,8.2l2.2,0.8c0.7,0.3,1.5,0.5,2.2,0.7l4.5,1.3c1.5,0.4,3.1,0.7,4.6,1.1l2.3,0.5l2.3,0.4l4.7,0.8l4.7,0.5
			l2.4,0.2c0.8,0.1,1.6,0.1,2.4,0.1l4.7,0.3c12.7,0.5,25.4-0.7,38-2.4c-3.1,0.7-6.2,1.4-9.4,2.1c-3.1,0.6-6.3,1-9.5,1.6
			c-3.2,0.4-6.4,0.7-9.6,1l-4.8,0.2c-1.6,0-3.2,0.2-4.8,0.1c-12.8,0-25.9-1.7-38.1-6.2c-6.1-2.3-12-5.1-17.4-8.7
			c-5.4-3.6-10.4-7.8-14.8-12.6c-4.4-4.8-8.1-10.2-11.1-15.8C2115.6,1150.4,2113.2,1144.3,2112,1138z"/>
		<path class="st5" d="M2294.4,1242.9c-1.3,0.9-2.5,1.8-3.8,2.6c-0.2-2.7-0.4-5.4-0.6-8.1l-0.6-8.3c-0.2-2.8-0.6-5.5-0.8-8.3
			l-1.6-16.5c-0.6-5.5-1.4-11-2.1-16.5l-1-8.2c-0.4-2.7-0.9-5.5-1.3-8.2l-1.3-8.2c-0.5-2.7-0.9-5.5-1.4-8.2l-3.2-16.3l-3.7-16.2
			c-1.3-5.4-2.8-10.7-4.2-16l-2.4-7.9l-1.2-4c-0.4-1.3-0.9-2.6-1.3-3.9c-3.4-10.5-7.2-20.9-12.2-30.9c5.9,9.4,10.4,19.7,14.4,30.1
			c0.5,1.3,1,2.6,1.5,3.9l1.4,3.9l2.8,7.9c1.6,5.3,3.3,10.7,4.8,16c1.4,5.4,2.8,10.8,4.2,16.2l3.5,16.3c0.6,2.7,1,5.5,1.5,8.2
			l1.4,8.2c0.5,2.8,1,5.5,1.4,8.2l1.1,8.3C2292.1,1205.7,2293.5,1224.3,2294.4,1242.9z"/>
		<g>
			<g>
				<g>
					<g>
						<path class="st4" d="M2135.6,479.8c0,0-67.4,95-128.5,86.7c-61.1-8.3-20-84.2-20-84.2s7.5-6.2,8.8-16.3
							c0.6-4.7,1.7-12.4,2.8-21c2.9-21.2,6.5-47.7,6.5-47.7l103.4-76.9c0,0,7.6,94.9,10.8,120c0.1,0.5,0.1,1,0.2,1.4
							C2122.6,464.8,2135.6,479.8,2135.6,479.8z"/>
					</g>
				</g>
			</g>
		</g>
		<g>
			<g>
				<g>
					<g>
						<path class="st7" d="M2001,428.2c0,0,22,1.5,45.7-18.7c20.6-17.5,24.4-41.7,24.4-41.7l-67.3,39.1L2001,428.2z"/>
					</g>
				</g>
			</g>
		</g>
		<g>
			<g>
				<g>
					<g>
						<path class="st4" d="M1958.2,200.1c0,0-50.7,118.6-20.5,173.8c30.2,55.2,120.1,43.3,165.8-47.6c45.7-91,41.7-151.8-8.8-175.4
							C2044.2,127.3,1987.9,154.8,1958.2,200.1z"/>
					</g>
				</g>
			</g>
		</g>
		<g>
			<g>
				<path class="st7" d="M2017.3,336.8c8,9.5-17.2,30.5-30.1,9.6C1978.6,332.4,2011.1,329.4,2017.3,336.8z"/>
			</g>
		</g>
		<g>
			<g>
				<path class="st8" d="M1955.1,249.7c2.1-2.1,4.7-3.7,7.5-4.7c2.9-1,6.2-1.3,9.5,0c3.2,1.3,5.5,4.2,6.5,7.1c1,3,1.1,6,0.6,8.9
					c-1.1-2.7-2-5.4-3.3-7.6c-1.3-2.3-3-4-5.1-4.8c-2.1-0.9-4.7-0.9-7.4-0.6C1960.6,248.2,1957.9,248.9,1955.1,249.7z"/>
			</g>
		</g>
		<g>
			<g>
				<path class="st8" d="M1973.4,265.2c-2.5,5.1-7.2,7.9-10.6,6.2c-3.4-1.6-4.1-7.1-1.7-12.2c2.5-5.1,7.2-7.9,10.6-6.2
					C1975.1,254.7,1975.9,260.1,1973.4,265.2z"/>
			</g>
		</g>
		<g>
			<g>
				<path class="st8" d="M2018.3,263.6c2.5-2.1,5.6-3.6,8.9-4.5c3.3-0.8,6.9-1.1,10.4,0.2c1.7,0.6,3.3,1.6,4.7,2.9
					c1.3,1.3,2.3,2.8,3,4.4c1.4,3.2,1.7,6.6,1.3,9.9c-1.1-3.1-2.3-6-3.9-8.5c-1.6-2.5-3.8-4.3-6.3-5.2c-2.6-0.9-5.6-1.1-8.6-0.9
					C2024.7,262.3,2021.6,262.9,2018.3,263.6z"/>
			</g>
		</g>
		<g>
			<g>
				<path class="st8" d="M2040.8,281.5c-2.7,5.6-7.9,8.6-11.6,6.8c-3.7-1.8-4.5-7.8-1.8-13.3c2.7-5.6,7.9-8.6,11.6-6.8
					C2042.7,270,2043.5,276,2040.8,281.5z"/>
			</g>
		</g>
		<g>
			<g>
				<path class="st8" d="M1992.7,269.8c-0.9,3.4-1.8,6.7-3.1,10c-1.2,3.3-2.7,6.5-4.6,9.5c-1.9,3-4.2,5.8-6.8,8.3
					c-2.6,2.4-5.5,4.6-8.5,6.4l0.5-2.2c1.6,2.7,3.2,5.5,4.6,8.3c1.5,2.8,2.9,5.6,4.2,8.6c-2.1-2.4-4.1-4.9-6-7.4
					c-1.9-2.5-3.8-5.1-5.6-7.7l-0.8-1.2l1.3-0.9c2.7-2,5.4-4,7.8-6.3c2.4-2.3,4.6-4.8,6.5-7.5c1.9-2.7,3.7-5.6,5.4-8.6
					C1989.3,275.9,1990.9,272.8,1992.7,269.8z"/>
			</g>
		</g>
		<g>
			<g>
				<path class="st3" d="M2025.2,230.7c-2.2,10.3,40,24,42.1,15C2069.4,236.6,2027.4,220.4,2025.2,230.7z"/>
			</g>
		</g>
		<g>
			<g>
				<path class="st3" d="M1953,221.7c0.6,9.5,40.5,11,40.1,2.6C1992.7,216,1952.4,212.3,1953,221.7z"/>
			</g>
		</g>
		<g>
			<path class="st9" d="M2211.5,271.9c-2.8,3.4-6.1,6.4-9.6,9c-3.5,2.7-7.3,5-11.4,6.9c-4,2-8.2,3.5-12.6,4.6
				c-4.3,1.1-8.8,1.7-13.3,1.9c-4.5,0.1-9-0.1-13.4-0.9l-1.7-0.3l-1.6-0.4c-1.1-0.3-2.2-0.5-3.3-0.8c-2.1-0.7-4.3-1.2-6.3-2.1
				c-8.3-3.2-16-7.7-22.9-13.2c7.6,4.4,15.4,8.3,23.7,10.9c1,0.3,2,0.7,3.1,0.9l3.1,0.8c1,0.3,2.1,0.4,3.2,0.7l1.6,0.3l1.6,0.2
				c4.2,0.7,8.5,0.9,12.8,0.7c4.3-0.1,8.5-0.6,12.7-1.6c4.2-0.9,8.3-2.3,12.2-3.9c4-1.7,7.8-3.7,11.5-6
				C2204.7,277.4,2208.2,274.8,2211.5,271.9z"/>
		</g>
		<g>
			<g>
				<g>
					<g>
						<path class="st2" d="M2179.6,178.4c-30.9-61.8-125.1-71.4-168.2-47.3c-43.2,24.1-53.3,69.5-53.3,69.5s14.2-25,71.1-28.6
							c49-3.1,81.1,25.7,81.1,25.7s-7.5,54,17.8,90.9C2157.7,331.9,2210.5,240.2,2179.6,178.4z"/>
					</g>
				</g>
			</g>
		</g>
		<g>
			<path class="st3" d="M1960.4,196.9c13-17.3,30.2-31.5,50-40.4c20.1-8.9,42.7-11.5,64.3-7.2c13,2.6,25.4,7.5,36.7,14.4
				c3,1.8,5.7-2.8,2.7-4.6c-20.8-12.6-45.4-18.9-69.7-16.8c-22.3,1.9-43.6,10.7-61.4,24.3c-10.4,7.9-19.5,17.2-27.3,27.6
				c-0.9,1.2-0.2,3,1,3.7C1958.1,198.7,1959.5,198.1,1960.4,196.9L1960.4,196.9z"/>
		</g>
		<g>
			<path class="st3" d="M2133.2,188.8c-5.4,12.4-7.3,26.1-6.5,39.5c0.9,13.8,4.5,27.5,10.8,39.7c3.4,6.6,7.7,12.8,12.9,18.1
				c2.4,2.5,6.2-1.3,3.8-3.8c-8.7-9-14.7-20.5-18.3-32.5c-3.8-12.6-5-25.7-3.4-38.8c0.2-1.4,0.5-3.2,0.8-4.9
				c0.3-1.7,0.7-3.4,1.2-5.1c0.5-1.7,1-3.4,1.6-5.1c0.3-0.8,0.6-1.6,0.9-2.4c0.4-0.9,0.5-1.3,0.9-2.1c0.6-1.3,0.4-2.9-1-3.7
				C2135.7,187.2,2133.8,187.5,2133.2,188.8L2133.2,188.8z"/>
		</g>
		<g>
			<path class="st3" d="M2177.1,200.5c14.1-3.8,24.9,10.9,28.6,22.5c2.3,7.1,3.7,14.4,6.3,21.4c2.5,6.9,6.1,13.2,11.6,18.1
				c9.9,8.9,22.9,13.1,33.7,20.8c5.3,3.8,9.5,8.6,12.4,14.5c2.8,5.7,4.1,12,5.1,18.3c2.1,13.3,2.5,27.1,8.3,39.4
				c5.7,12,16.7,19.2,27.1,26.7c4.9,3.6,9.8,7.3,13.7,12.1c4,4.9,6.2,10.8,6.6,17.1c1.1,14-3.9,27.9-1.1,41.9
				c1.5,7.4,5.7,13.4,11,18.6c5.4,5.3,10.7,10.4,14.8,16.8c7.5,11.9,11.2,26.2,10.1,40.3c-0.3,3.4-0.8,6.8-1.7,10.1
				c-0.8,3.3,4.3,4.8,5.2,1.4c3.6-14.2,2.4-29.5-3.1-43.1c-2.8-6.9-6.6-13.3-11.4-19.1c-5-6-11.7-10.6-15.9-17.2
				c-7.8-12.2-3.2-27.7-2.4-41.1c0.4-7,0-14.2-2.8-20.8c-2.5-5.9-6.8-10.8-11.6-15c-9.6-8.3-21.7-14.1-29.5-24.3
				c-8.2-10.7-9.3-24.8-11-37.7c-1.7-13.4-4.2-27.3-14-37.5c-9.5-9.9-23-14.2-34.2-21.7c-5.7-3.8-10.3-8.5-13.4-14.6
				c-3.5-6.8-5-14.4-7-21.7c-2-7.2-4.5-13.9-9.2-19.8c-4.3-5.5-10.4-10.4-17.4-11.8c-3.4-0.7-6.8-0.6-10.1,0.3
				C2172.3,196.3,2173.7,201.5,2177.1,200.5L2177.1,200.5z"/>
		</g>
		<g>
			<path class="st3" d="M1956.9,170.2c-1.5,8.1-2.1,16.3-1.8,24.6c0.1,3.4,5.5,3.5,5.4,0c-0.3-7.8,0.2-15.5,1.6-23.2
				c0.3-1.4-0.4-2.9-1.9-3.3C1958.9,168,1957.1,168.8,1956.9,170.2L1956.9,170.2z"/>
		</g>
		<g>
			<g>
				<path class="st4" d="M2106.3,279.8c-13.8,11.1-17.2,29.7-7.6,41.6c9.6,11.9,28.5,12.5,42.3,1.4c13.8-11.1,17.2-29.7,7.6-41.6
					C2139,269.3,2120.1,268.7,2106.3,279.8z"/>
			</g>
		</g>
		<g>
			<g>
				<path class="st8" d="M2129.8,306.8c-1.6-1.3-3.5-2.1-5.4-2.7c-1.9-0.5-3.9-0.7-5.8-0.5c-1.9,0.2-3.8,0.7-5.6,1.5
					c-1.8,0.8-3.4,1.9-4.8,3.2c-0.7,0.6-1.8,0.6-2.4-0.1c-0.5-0.6-0.5-1.4-0.2-2.1l0-0.1c1.6-2.8,3.4-5.5,5.6-7.9
					c1.1-1.2,2.2-2.4,3.5-3.5c1.3-1.1,2.6-2,4-2.8c2.8-1.6,6.1-2.6,9.4-2.4c3.2,0.1,6.2,1.3,8.7,3c-2.9-0.8-5.9-1.2-8.7-0.9
					c-2.8,0.4-5.5,1.5-7.8,3.1c-1.2,0.8-2.3,1.7-3.4,2.7c-1.1,1-2.1,2.1-3.1,3.2c-1.9,2.3-3.7,4.7-5.3,7.3l-2.5-2.2
					c1.8-1.5,3.8-2.7,5.9-3.5c2.1-0.8,4.4-1.2,6.6-1.1c2.2,0.1,4.4,0.6,6.3,1.5C2126.8,303.6,2128.6,305,2129.8,306.8z"/>
			</g>
		</g>
		<g>
			<g>
				<path class="st8" d="M2015.9,339.6c-3,3.2-6.9,5.7-11.1,7.2c-4.2,1.4-8.8,1.9-13.1,1.4c-4.4-0.5-8.6-1.8-12.3-4
					c4.2,1,8.3,1.6,12.5,1.6c4.1,0,8.2-0.5,12-1.9c3.8-1.3,7.3-3.4,10.5-6c3.1-2.7,5.8-5.9,8.4-9.3"/>
			</g>
		</g>
		<path class="st8" d="M2124.2,471.8l-58.7-33.9c-8.1-4.7-10.9-15-6.2-23.1l91.1-157.7c4.7-8.1,15-10.9,23.1-6.2l58.7,33.9
			c8.1,4.7,10.9,15,6.2,23.1l-91.1,157.7C2142.7,473.7,2132.3,476.5,2124.2,471.8z"/>
		<path class="st4" d="M2319.6,707.4c15.8,7-107.9,223-224.6,200.4c-59-11.4-16.1-122.7-16.1-122.7l150-121.4L2319.6,707.4z"/>
		<path class="st5" d="M2248.6,510.3c0,0,91.4,16.5,110,65.7c39.9,105.5-83,265.5-83,265.5l-154.6-80.1
			C2186.9,647.1,2195.9,603.9,2248.6,510.3z"/>
		<path class="st4" d="M2112.1,488.7c0,0-63.3,200-71.2,293.8c-7.1,84.7,24.3,127,67.5,127c35.2,0,57.5-48.1,63.2-115
			c6.7-78.5-11.8-304.8-11.8-304.8l49.4-89.4l31.9-75.9c0,0-15.6-10.2-24.1,3.2c-7.1,11.1-27.2,49.8-27.2,49.8l-8.7-74.2
			c0,0-10-1.7-16.2,11.1c-3.6,7.3-4.6,16.7-4.6,16.7l-7.1-17.9c0,0-12.3,0.9-13,18.5c-0.4,11.7,6.6,58.1,6.6,58.1l-50.5-25.8
			c0,0-6.6,11.9-0.9,20.1c4.4,6.3,30,27.7,30,27.7S2104,438.3,2104,460C2104.1,481.7,2112.1,488.7,2112.1,488.7z"/>
		<g>
			<g>
				<path class="st7" d="M2142.9,419c3.6-3.7,7.7-6.9,12-9.8c4.3-2.8,8.9-5.3,13.8-7.2c4.9-1.9,10-3.3,15.3-3.6
					c5.2-0.3,10.7,0.5,15.2,3.1c-5-1.1-10-1.1-14.9-0.2c-4.9,0.8-9.6,2.3-14.2,4.1c-4.6,1.8-9.2,3.9-13.7,6.2
					C2151.8,414,2147.4,416.5,2142.9,419z"/>
			</g>
		</g>
		<g>
			<g>
				<path class="st7" d="M1596.5,590.1c4.7,1,8.9,3.8,12.4,7.1c3.5,3.3,6.3,7.5,8.4,11.8l1.4,3.3c0.4,1.1,0.7,2.3,1.1,3.4l0.5,1.7
					c0.2,0.6,0.2,1.2,0.4,1.8c0.2,1.2,0.5,2.4,0.7,3.5c0.4,2.4,0.4,4.8,0.6,7.1c-0.1,2.4-0.2,4.8-0.4,7.1c-0.6-2.3-1.1-4.6-1.5-6.9
					l-1.7-6.7c-0.4-1.1-0.7-2.2-1-3.3l-0.5-1.6l-0.6-1.6l-1.2-3.2l-1.4-3.1c-1.9-4.1-4.2-7.9-7-11.4
					C1603.7,595.9,1600.5,592.7,1596.5,590.1z"/>
			</g>
		</g>
		<g>
			<g>
				<path class="st7" d="M2160.3,331c1.5,4.1,2.7,8.2,3.8,12.4c1,4.2,2,8.3,2.7,12.6c0.8,4.2,1.4,8.4,2,12.7
					c0.5,4.3,0.9,8.5,0.9,12.9c-1.5-4.1-2.7-8.2-3.8-12.4c-1-4.2-2-8.3-2.7-12.6c-0.8-4.2-1.4-8.4-2-12.7
					C2160.8,339.6,2160.4,335.3,2160.3,331z"/>
			</g>
		</g>
		<g>
			<g>
				<path class="st7" d="M1746.5,802.1c2.2,3,4.1,6.1,5.8,9.2c1.8,3.2,3.4,6.4,4.9,9.7c1.5,3.3,2.9,6.6,4.2,10
					c1.3,3.4,2.4,6.8,3.2,10.4c-2.2-3-4.1-6.1-5.8-9.2c-1.8-3.2-3.4-6.4-4.9-9.7c-1.5-3.3-2.9-6.6-4.2-10
					C1748.4,809.1,1747.3,805.7,1746.5,802.1z"/>
			</g>
		</g>
		<g>
			<g>
				<path class="st7" d="M2172.2,787.8c0.6,3.2,0.9,6.3,1,9.5c0.1,3.1,0.1,6.3,0,9.4c-0.1,3.1-0.4,6.3-0.8,9.4
					c-0.4,3.1-1,6.2-1.9,9.3c-0.6-3.2-0.9-6.3-1-9.5c-0.1-3.1-0.1-6.3,0.1-9.4c0.2-3.1,0.4-6.3,0.8-9.4
					C2170.8,794,2171.3,790.9,2172.2,787.8z"/>
			</g>
		</g>
		<path class="st7" d="M2125.4,411.7c-4.3,5.6-8.1,11.5-11.3,17.7c-3.2,6.2-5.8,12.7-7.5,19.4c-0.8,3.4-1.3,6.8-1.5,10.2
			c-0.2,3.4,0,6.8,0.5,10.2c1,6.8,3.8,13.1,7.7,18.8l0,0c0.2,0.3,0.3,0.8,0.2,1.1c-1,3.2-2,6.4-3.1,9.5c-1,3.2-2.1,6.3-3.2,9.5
			c-2.1,6.3-4.3,12.6-6.7,18.9c1.6-6.5,3.3-13,5-19.4c0.9-3.2,1.8-6.4,2.7-9.7c0.9-3.2,1.8-6.4,2.7-9.6l0.2,1.2l-1.5-2.2l-0.8-1.1
			l-0.7-1.2c-0.4-0.8-0.9-1.6-1.3-2.4l-1.1-2.5c-1.4-3.4-2.5-6.8-3-10.5c-0.5-3.6-0.7-7.2-0.4-10.9c0.3-3.6,0.9-7.2,1.8-10.6
			c0.9-3.5,2.1-6.9,3.6-10.1c1.4-3.3,3.1-6.4,4.9-9.5c1.8-3.1,3.8-6,6-8.8C2120.6,416.9,2122.9,414.2,2125.4,411.7z"/>
		<g>
			<path class="st7" d="M1567.3,541.3c-4,2.3-7.5,5.3-10.4,8.6c-3,3.3-5.4,7-7.4,10.9l-1.4,3c-0.3,0.5-0.5,1-0.6,1.5l-0.6,1.6
				c-0.9,2-1.4,4.2-2,6.3c-0.4,1.1-0.5,2.2-0.8,3.3l-0.7,3.3c-0.4,2.2-0.7,4.4-1.2,6.7c-0.2-2.3-0.3-4.5-0.3-6.8l0.3-3.4
				c0.1-1.1,0.2-2.3,0.4-3.4c0.4-2.3,0.8-4.6,1.6-6.8l0.5-1.7c0.2-0.6,0.4-1.1,0.6-1.6l1.4-3.2c0.5-1.1,1.2-2,1.8-3.1
				c0.6-1,1.3-2,2-2.9l1.1-1.4l1.2-1.3l1.2-1.3c0.4-0.4,0.9-0.8,1.3-1.2C1558.6,545.1,1562.8,542.5,1567.3,541.3z"/>
		</g>
		<g>
			<g>
				<path class="st7" d="M1490.9,525.7c4.2,1.5,8.3,3.3,12.2,5.2c2,0.9,4,2,5.9,2.9l5.8,3.1c3.9,2.1,7.7,4.4,11.4,6.7
					c3.7,2.4,7.4,4.8,10.9,7.6c-4.2-1.5-8.3-3.3-12.3-5.2c-4-1.9-7.9-3.9-11.8-6.1l-5.7-3.3c-1.9-1.2-3.8-2.3-5.7-3.5
					C1498.1,530.9,1494.4,528.5,1490.9,525.7z"/>
			</g>
		</g>
	</g>
	<g id="messages_1_">
		<path class="st10" d="M1482.7,82.1l-592.1,0.9c-62.3,0-112.9,50.5-112.9,112.9v70c0,62.3,50.5,112.9,112.9,112.9l523.1-0.9
			l112.4,64.4l-18.7-67.1l-0.2,0c50.6-11.2,88.4-56.3,88.4-110.2v-70C1595.6,132.7,1545,82.1,1482.7,82.1z"/>
		<g>
			<g>
				<g>
					<g>
						<g>
							<path class="st5" d="M1021,175.2h191.6c6.9,0,12.4-5,12.4-11.1c0-6.2-5.6-11.1-12.4-11.1H1021c-6.9,0-12.4,5-12.4,11.1
								C1008.6,170.2,1014.2,175.2,1021,175.2z"/>
						</g>
					</g>
				</g>
			</g>
			<g>
				<g>
					<g>
						<g>
							<path class="st5" d="M867.9,244.2h389.6c6.9,0,12.4-5,12.4-11.1c0-6.2-5.6-11.1-12.4-11.1H867.9c-6.9,0-12.4,5-12.4,11.1
								C855.5,239.2,861,244.2,867.9,244.2z"/>
						</g>
					</g>
				</g>
			</g>
			<g>
				<g>
					<g>
						<g>
							<path class="st5" d="M867.9,309h104.7c6.9,0,12.4-5,12.4-11.1c0-6.2-5.6-11.1-12.4-11.1H867.9c-6.9,0-12.4,5-12.4,11.1
								C855.5,304,861,309,867.9,309z"/>
						</g>
					</g>
				</g>
			</g>
			<g>
				<g>
					<g>
						<g>
							<path class="st5" d="M867.9,175.2h89.9c6.9,0,12.4-5,12.4-11.1c0-6.2-5.6-11.1-12.4-11.1h-89.9c-6.9,0-12.4,5-12.4,11.1
								C855.5,170.2,861,175.2,867.9,175.2z"/>
						</g>
					</g>
				</g>
			</g>
		</g>
		<g>
			<g>
				<g>
					<g>
						<path class="st5" d="M1269.9,175.2h172.3c6.9,0,12.4-5,12.4-11.1c0-6.2-5.6-11.1-12.4-11.1h-172.3c-6.9,0-12.4,5-12.4,11.1
							C1257.5,170.2,1263,175.2,1269.9,175.2z"/>
					</g>
				</g>
			</g>
		</g>
		<g>
			<g>
				<g>
					<g>
						<path class="st5" d="M1313.8,244.2h191.6c6.9,0,12.4-5,12.4-11.1c0-6.2-5.6-11.1-12.4-11.1h-191.6c-6.9,0-12.4,5-12.4,11.1
							C1301.4,239.2,1306.9,244.2,1313.8,244.2z"/>
					</g>
				</g>
			</g>
		</g>
	</g>
	<g id="support">
		<path id="stain_1_" class="st0" d="M1938.2,1683.6c0,0,43.5-370.2-215.5-590.4c-241-204.9-488.5-52-681.9-82.9
			c-216.4-34.5-419.1-309.7-717.3-164.9c-422.8,205.4-163.8,818.3-163.8,818.3L1938.2,1683.6z"/>
		<g id="messages_4_">
			<path class="st10" d="M969.6,609.5h291.8c60.6,0,109.8,49.1,109.8,109.8v68c0,60.6-49.1,109.8-109.8,109.8h-224.7l-109.3,62.6
				l18.2-65.3l0.1,0c-49.2-10.9-86-54.7-86-107.1v-68C859.9,658.6,909,609.5,969.6,609.5z"/>
			<g>
				<g>
					<g>
						<g>
							<g>
								<path class="st5" d="M1093.4,697h167.2c6,0,10.8-4.8,10.8-10.8c0-6-4.8-10.8-10.8-10.8h-167.2c-6,0-10.8,4.8-10.8,10.8
									C1082.6,692.2,1087.4,697,1093.4,697z"/>
							</g>
						</g>
					</g>
				</g>
				<g>
					<g>
						<g>
							<g>
								<path class="st5" d="M959.7,764.1h300.8c6,0,10.8-4.8,10.8-10.8c0-6-4.8-10.8-10.8-10.8H959.7c-6,0-10.8,4.8-10.8,10.8
									C948.9,759.3,953.8,764.1,959.7,764.1z"/>
							</g>
						</g>
					</g>
				</g>
				<g>
					<g>
						<g>
							<g>
								<path class="st5" d="M959.7,827.1h91.4c6,0,10.8-4.8,10.8-10.8c0-6-4.8-10.8-10.8-10.8h-91.4c-6,0-10.8,4.8-10.8,10.8
									C948.9,822.2,953.8,827.1,959.7,827.1z"/>
							</g>
						</g>
					</g>
				</g>
				<g>
					<g>
						<g>
							<g>
								<path class="st5" d="M959.7,697h78.5c6,0,10.8-4.8,10.8-10.8c0-6-4.8-10.8-10.8-10.8h-78.5c-6,0-10.8,4.8-10.8,10.8
									C948.9,692.2,953.8,697,959.7,697z"/>
							</g>
						</g>
					</g>
				</g>
			</g>
		</g>
		<g id="support_1_">
			<g>
				<g>
					<path class="st8" d="M483.7,1100.2c-43.8,52.6-31.4,84.1-57.8,129.1c-26.4,45-104.8,30.9-132.8,112.4
						c-28.1,81.5,13.4,167.2,97.1,203.5c83.8,36.3,169.3,15.5,202.7-45.8c25.5-46.9,15.7-112.2,34.7-147.8
						c18.9-35.6,54.7-74,71.1-125.7c16.4-51.7-40.2-176.1-40.2-176.1S527.8,1047.3,483.7,1100.2z"/>
				</g>
			</g>
			<g>
				<path class="st4" d="M1275.3,1244.9c-7-9.3-67.7,23-67.7,23s45.8-36.3,36.5-44c-9.3-7.7-101.3,67.3-101.3,67.3
					s5.6-15.2,5.4-28.8c-0.2-13.6-11.7-18.1-11.7-18.1s-6,17.2-26,57.9c-9.7,19.7-6.2,41.6-4.8,48.4l-84.5,178l-31-111l-94.6,86.3
					c0,0,59,186,144.4,179.7c81.2-6,103.2-238.4,122.2-305.9c6.1-2.8,28.8-13.3,43.6-22.4c17.3-10.7,78.5-45.7,79.7-54
					c1.9-13.2-58.1,13.7-58.1,13.7s58.8-35.9,56-48.3c-2-8.8-17.4-2.5-17.4-2.5S1282.3,1254.1,1275.3,1244.9z"/>
				<g>
					<g>
						<path class="st7" d="M1164.4,1326.1c-4.5,0.9-8.5,3.6-11.8,6.8c-3.4,3.2-6,7.1-8,11.3l-1.4,3.2c-0.4,1.1-0.7,2.2-1.1,3.3
							l-0.5,1.6c-0.1,0.6-0.2,1.1-0.4,1.7c-0.2,1.1-0.4,2.2-0.6,3.4c-0.3,2.3-0.4,4.5-0.6,6.8c0.1,2.3,0.1,4.5,0.4,6.8
							c0.6-2.2,1-4.4,1.5-6.6l1.6-6.4c0.3-1,0.7-2.1,1-3.1l0.5-1.6l0.6-1.5l1.1-3l1.3-2.9c1.8-3.9,4-7.6,6.7-10.9
							C1157.5,1331.6,1160.6,1328.5,1164.4,1326.1z"/>
					</g>
				</g>
				<g>
					<path class="st7" d="M1186.6,1278.6c4.4,2.5,8.1,5.8,11.4,9.3c3.2,3.6,5.9,7.6,8.1,11.9l1.5,3.3c0.3,0.5,0.5,1.1,0.7,1.7
						l0.6,1.7c1,2.2,1.5,4.6,2.2,6.9c0.4,1.1,0.6,2.4,0.8,3.5l0.8,3.6c0.4,2.4,0.8,4.8,1.3,7.3c0.2-2.5,0.3-4.9,0.4-7.4l-0.3-3.7
						c-0.1-1.2-0.2-2.5-0.4-3.7c-0.5-2.5-0.9-5-1.8-7.4l-0.6-1.8c-0.2-0.6-0.4-1.2-0.7-1.8l-1.6-3.5c-0.6-1.1-1.3-2.2-1.9-3.3
						c-0.6-1.1-1.4-2.2-2.2-3.2l-1.2-1.5l-1.3-1.4l-1.3-1.4c-0.5-0.5-1-0.9-1.4-1.3C1196.1,1282.7,1191.6,1279.9,1186.6,1278.6z"/>
				</g>
				<g>
					<g>
						<path class="st7" d="M1269.8,1261.6c-4.6,1.6-9,3.6-13.3,5.7c-2.2,1-4.3,2.1-6.5,3.2l-6.4,3.4c-4.2,2.3-8.3,4.8-12.4,7.3
							c-4.1,2.6-8.1,5.3-11.9,8.3c4.6-1.6,9-3.6,13.3-5.7c4.3-2.1,8.6-4.3,12.8-6.6l6.3-3.6c2.1-1.3,4.1-2.4,6.1-3.8
							C1261.9,1267.3,1265.9,1264.6,1269.8,1261.6z"/>
					</g>
				</g>
				<g>
					<g>
						<path class="st7" d="M1021.2,1528.5c-2.1,2.8-3.9,5.8-5.6,8.8c-1.7,3-3.2,6.1-4.7,9.2c-1.4,3.1-2.8,6.3-4,9.6
							c-1.2,3.2-2.3,6.5-3.1,10c2.1-2.8,3.9-5.8,5.6-8.8c1.7-3,3.2-6.1,4.7-9.2c1.4-3.1,2.8-6.3,4-9.6
							C1019.3,1535.2,1020.4,1531.9,1021.2,1528.5z"/>
					</g>
				</g>
			</g>
			<g id="cup_4_">
				<g>
					<g>
						<g>
							<path class="st5" d="M715.7,1368c0,0-41.1,19-30.9,43.4c10.2,24.4,40.9,26.6,39.7,50.9c-1.3,24.2-30.5,37.9-30.5,37.9
								s17.4-19.4,3-39.2c-14.4-19.8-50.7-23.3-45.7-53.7C656.2,1376.8,715.7,1368,715.7,1368z"/>
						</g>
					</g>
				</g>
				<g>
					<g>
						<g>
							<g>
								<path class="st11" d="M701.1,1652.7h-3.7c-32.8,0-59.4-26.6-59.4-59.4v-76.8h122.5v76.8
									C760.4,1626.1,733.8,1652.7,701.1,1652.7z"/>
							</g>
						</g>
					</g>
				</g>
				<g>
					<g>
						<g>
							<g>
								<path class="st11" d="M638,1544.8c-5.6-7.2-13.3-11.7-21.9-11.7c-17,0-30.8,17.6-30.8,39.2c0,9.9,2.9,18.9,7.7,25.8
									c0.1,0.2,0.3,0.4,0.4,0.6c5.6,7.8,13.7,12.7,22.7,12.7c2.6,0,5.2-0.4,7.6-1.2c1.7-0.6,3.3-1.3,4.9-2.2
									c4.5-2.6,8.4-6.4,11.5-11.3c1.1-1.8,2.2-3.7,3-5.8c2.4-5.6,3.7-11.9,3.7-18.7C646.8,1561.5,643.4,1551.9,638,1544.8z
									 M618.3,1598.4c-0.8,0.1-1.5,0.2-2.3,0.2c-1.1,0-2.1-0.1-3.1-0.3c-2.5-0.5-4.8-1.5-6.9-3c-0.1,0-0.1-0.1-0.2-0.1
									c-6.3-4.5-10.5-13.1-10.5-23c0-14.6,9.3-26.4,20.7-26.4c9.4,0,17.3,7.9,19.8,18.8c0,0.1,0,0.2,0.1,0.2
									c0.5,2.3,0.8,4.8,0.8,7.3c0,0.4,0,0.8,0,1.2c0,0.1,0,0.3,0,0.4c0,0.4,0,0.7-0.1,1.1c-0.2,2.1-0.5,4.2-1.1,6.2
									c-0.2,0.6-0.4,1.3-0.6,1.9c-0.5,1.6-1.2,3-2,4.4C629.6,1593.4,624.4,1597.6,618.3,1598.4z"/>
							</g>
						</g>
					</g>
				</g>
			</g>
			<g>
				<g>
					<g>
						<path class="st12" d="M285.7,1696.8c0,0-56-175.8,21.4-305c105.5-176.2,367-90.6,400.4-28.3c57,106.3,67.7,335.2,67.7,335.2
							L285.7,1696.8z"/>
					</g>
				</g>
			</g>
			<g>
				<g>
					<g>
						<path class="st13" d="M316.7,1375.7c0,0-50.6,151.7-13.1,331.8c0,0-37.5,7-37.5-8.8C266.1,1632.7,247.9,1462.8,316.7,1375.7z"
							/>
					</g>
				</g>
			</g>
			<g>
				<g>
					<path class="st1" d="M928.1,1486.4l84.4-6.9c0,0-32.1-159.4-56-215.1c-25.7-60.1-87-79.1-87-79.1L928.1,1486.4z"/>
				</g>
			</g>
			<g>
				<g>
					<path class="st14" d="M948.3,1484l30.3-1.5c0,0-21.4-121.8-46.4-165C907.3,1274.2,948.3,1484,948.3,1484z"/>
				</g>
			</g>
			<polygon class="st5" points="961.8,1492.9 1021.2,1486.4 1021.2,1435.7 958.3,1448.6 			"/>
			<g>
				<g>
					<path class="st1" d="M452.9,1337.9c0,0-30.7,46.5-29,96.1c0.7,21,0.4,224.2,37.7,256.8c8.9,7.8,454.2,7.8,472.7,0
						c72.1-30.4,19.7-253,10.4-327.6c-8.9-71.4-75.1-178.1-75.1-178.1l-99.2-27.2h-132l-117.3,22.5L452.9,1337.9z"/>
				</g>
			</g>
			<g>
				<g>
					<path class="st14" d="M423.9,1434.1c0.7,21,1.5,78,2.4,94.4l176.2-8.6c0-27-27-172.9-54.9-208.1c-14.4-18.1-63,13.1-85.6,40.3
						L423.9,1434.1z"/>
				</g>
			</g>
			<path class="st5" d="M1067,1655.3H890.2c0-29.7,15.6-61.9,64.4-61.9C1003.4,1593.4,1067,1625.6,1067,1655.3z"/>
			<g>
				<g>
					<g>
						<path class="st4" d="M423.9,1434.1c0,0,4.4,142.6,52.1,202.7c28.5,35.9,359,31.8,394.4,25.2c35.4-6.6,80.9-44.7,92.9-41.4
							c12,3.3,42.6,12.9,51.2,7.9c8.6-5.1-35.3-23.9-35.3-23.9s53.8,18.9,60.1,12.6c4.6-4.7-7.3-13.4-7.3-13.4s17.1,7.4,19.5-0.5
							c3-10.1-49.5-30.7-49.5-30.7s49.9,19.1,48.1,8.2c-1.8-10.9-76.6-35.2-92.1-32.9c-15.5,2.3-106.1,58.2-106.1,58.2l-274.9-73.5
							l-13.3-99L423.9,1434.1z"/>
					</g>
				</g>
			</g>
			<g>
				<g>
					<path class="st1" d="M521.1,1180.5c0,0-77.9,14.3-97.2,104.8c-9,42.1-18.2,201.1-18.2,201.1l171.1-7.8
						C559.8,1317.5,563.1,1257.6,521.1,1180.5z"/>
				</g>
			</g>
			<polygon class="st5" points="580.2,1462.6 580.2,1507.9 402.5,1516.5 381.9,1444.6 			"/>
			<g>
				<g>
					<g>
						<path class="st15" d="M870.5,1661.9c8.2-1.7,16-4.7,23.6-8.1c7.6-3.5,14.9-7.5,22.2-11.6l21.6-12.6c3.6-2.1,7.3-4.1,11.1-6
							c3.8-1.8,7.6-3.7,12.1-4.2c1.1-0.1,2.5,0.1,3.4,0.4l3,0.8l6,1.7c4,1.1,8.1,2.1,12.1,3.1c8,1.8,16.4,3.6,24.3,3
							c1-0.1,1.9-0.3,2.7-0.6c0.9-0.3,1.7-0.8,1.5-0.9c0.1,0-0.2-0.9-0.8-1.5c-0.6-0.7-1.3-1.3-2.1-2c-3.1-2.5-6.7-4.6-10.3-6.6
							c-7.3-4-14.8-7.5-22.4-10.8c-0.8-0.3-1.1-1.2-0.8-2c0.3-0.7,1.1-1.1,1.9-0.8c12.4,4.2,25,8.1,37.8,11.1
							c3.2,0.7,6.4,1.4,9.6,1.9c3.2,0.5,6.5,0.9,9.3,0.5c1.5-0.2,2.1-0.7,2.3-1.6c0.2-0.8-0.3-2.2-1.1-3.4c-1.6-2.5-4.1-4.7-6.6-6.6
							c-0.7-0.5-0.8-1.5-0.3-2.2c0.4-0.6,1.2-0.8,1.9-0.5c3.2,1.3,6.7,2.4,10,2.9c1.7,0.2,3.4,0.3,4.8-0.1c1.4-0.4,2.3-1.3,2.6-2.4
							c0.2-0.8-0.7-2.4-1.8-3.5c-1.1-1.2-2.5-2.4-3.9-3.5c-2.8-2.2-5.8-4.1-8.9-6c-12.4-7.3-25.6-13.5-38.9-19.2
							c-0.7-0.3-1-1.1-0.7-1.8c0.3-0.7,1.1-1,1.8-0.7c12.1,4.8,24.3,9.5,36.8,12.9c3.1,0.8,6.3,1.5,9.4,1.8c1.5,0.1,3.2,0.2,4.4-0.3
							c0.6-0.2,0.8-0.5,0.9-0.9c0.1-0.5-0.1-1-0.5-1.6c-1.7-2.3-4.6-4.1-7.3-5.8c-2.8-1.6-5.7-3.1-8.6-4.5
							c-11.8-5.4-24.1-9.9-36.5-13.9c-6.2-1.9-12.5-3.7-18.8-5.2c-3.2-0.7-6.4-1.4-9.6-2c-3.2-0.5-6.5-1-9.7-0.6
							c3.2-0.4,6.5,0,9.8,0.4c3.2,0.4,6.5,1,9.7,1.7c6.4,1.4,12.7,3,19,4.8c12.6,3.6,25,7.8,37,13.2c3,1.4,6,2.8,8.8,4.4
							c2.8,1.7,5.8,3.3,8,6.3c0.5,0.8,1,1.8,0.9,3c-0.1,1.3-1.2,2.3-2.2,2.6c-1.9,0.7-3.6,0.6-5.3,0.5c-3.4-0.3-6.6-1-9.8-1.7
							c-12.8-3.3-25.1-7.7-37.3-12.6l1.1-2.6c13.4,5.7,26.7,11.8,39.4,19.2c3.2,1.9,6.3,3.8,9.2,6.1c1.5,1.2,2.9,2.4,4.3,3.8
							c0.7,0.7,1.3,1.5,1.8,2.5c0.5,0.9,1,2.1,0.8,3.6c-0.4,2.5-2.6,4.4-4.7,4.9c-2.1,0.6-4.1,0.5-6,0.3c-3.8-0.5-7.4-1.6-10.9-3
							l1.5-2.7c2.8,2.1,5.3,4.3,7.4,7.4c0.9,1.5,2,3.4,1.6,5.8c-0.3,1.2-0.9,2.2-1.9,3c-1.1,0.7-2.1,0.9-3,1.1
							c-3.7,0.5-7,0-10.4-0.5c-3.3-0.5-6.6-1.2-9.8-2c-12.9-3.1-25.5-7.1-38.1-11.4l1.1-2.8c7.7,3.4,15.3,7,22.6,11.1
							c3.7,2.1,7.3,4.2,10.7,6.9c0.8,0.7,1.7,1.4,2.4,2.4c0.7,0.9,1.8,2,1.3,4.1c-0.3,1-1,1.6-1.6,1.9c-0.6,0.3-1.1,0.6-1.7,0.8
							c-1.1,0.4-2.3,0.6-3.4,0.7c-4.4,0.4-8.7-0.1-12.8-0.8c-4.2-0.7-8.3-1.6-12.4-2.6c-4.1-1-8.1-2.1-12.1-3.3l-6-1.7l-3-0.9
							c-1.1-0.3-1.7-0.5-2.7-0.4c-3.8,0.3-7.7,2.1-11.4,3.9c-3.7,1.8-7.4,3.8-11,5.8c-7.3,4.1-14.5,8.2-21.9,12.2
							c-7.4,4-14.8,7.8-22.5,11.1C886.7,1657.6,878.7,1660.5,870.5,1661.9z"/>
					</g>
				</g>
			</g>
			<g>
				<g>
					<g>
						<path class="st15" d="M950.2,1555.1c2.9,3.4,4.7,7.7,6,12c1.3,4.3,1.8,8.8,2,13.3c0.2,4.5-0.2,9-0.8,13.4
							c-0.3,2.2-0.9,4.4-1.3,6.5c-0.7,2.1-1.2,4.3-2,6.4l0.8-13.1c0.1-4.3,0.3-8.7,0.1-13c-0.1-4.3-0.5-8.6-1.3-12.8
							C952.9,1563.4,952,1559.2,950.2,1555.1z"/>
					</g>
				</g>
			</g>
			<g>
				<path class="st15" d="M1031.9,1605.4c-0.2,0-0.3-0.1-0.5-0.1l-40.2-17.3c-0.8-0.4-1.2-1.3-0.9-2.1c0.4-0.8,1.3-1.2,2.1-0.9
					l40.2,17.3c0.8,0.4,1.2,1.3,0.9,2.1C1033.2,1605,1032.6,1605.4,1031.9,1605.4z"/>
			</g>
			<g>
				<path class="st8" d="M652.1,1063.1c0,0-135.2-54.3-94.8-184.1c31.7-101.8,218.3-114.2,251.7,0.1
					C839.7,984.2,652.1,1063.1,652.1,1063.1z"/>
			</g>
			<g>
				<g>
					<g>
						<path class="st4" d="M616,1162.3c0.5,0.9,159.1,196.6,159.1,196.6l11.8-196.3l-16.5-4.5c-3-21.7-10.6-76.6-10.6-76.6
							l-103.3-75.3c0,0-11.5,131.8-18,151.9C638.5,1158,616,1162.3,616,1162.3z"/>
					</g>
				</g>
			</g>
			<g>
				<g>
					<g>
						<path class="st15" d="M764.2,1113.1c0,0-23.1,1.5-47.9-19.2c-21.5-18-25.6-42.8-25.6-42.8l70.4,40.1L764.2,1113.1z"/>
					</g>
				</g>
			</g>
			<g>
				<g>
					<g>
						<path class="st4" d="M809,879.1c0,0,53.1,121.8,21.5,178.4c-31.6,56.6-125.8,44.5-173.7-48.9c-47.9-93.4-43.7-155.8,9.2-180
							C719,804.3,777.9,832.5,809,879.1z"/>
					</g>
				</g>
			</g>
			<g>
				<path class="st8" d="M600.3,858.6c29.1-57.1,117.8-66,158.5-43.7c40.7,22.3,50.2,64.2,50.2,64.2s-13.4-23.1-67-26.4
					c-46.2-2.8-76.4,23.7-76.4,23.7s7,49.9-16.8,83.9C620.9,1000.2,571.1,915.6,600.3,858.6z"/>
			</g>
			<g>
				<path class="st15" d="M747.1,1019.3c-8.4,9.8,18,31.3,31.5,9.9C787.7,1014.8,753.7,1011.7,747.1,1019.3z"/>
			</g>
			<g>
				<path class="st8" d="M810.3,928.1c-2.2-2.2-4.9-3.8-7.9-4.8c-3-1-6.5-1.3-9.9,0c-3.4,1.3-5.8,4.3-6.8,7.3
					c-1.1,3-1.2,6.1-0.6,9.1c1.1-2.8,2.1-5.6,3.5-7.8c1.4-2.3,3.2-4.1,5.4-4.9c2.2-0.9,4.9-1,7.7-0.6
					C804.4,926.6,807.3,927.3,810.3,928.1z"/>
			</g>
			<g>
				<path class="st8" d="M797.3,941.9c2.6,5.2,7.5,8.1,11.1,6.4c3.5-1.7,4.3-7.3,1.8-12.5c-2.6-5.2-7.5-8.1-11.1-6.4
					C795.5,931.1,794.7,936.7,797.3,941.9z"/>
			</g>
			<g>
				<path class="st8" d="M746,944.2c-2.7-2.2-5.9-3.7-9.3-4.6c-3.4-0.9-7.3-1.1-10.9,0.2c-1.8,0.7-3.5,1.7-4.9,3
					c-1.4,1.3-2.4,2.9-3.1,4.6c-1.4,3.3-1.8,6.8-1.3,10.2c1.2-3.2,2.4-6.2,4.1-8.7c1.7-2.6,3.9-4.4,6.6-5.3c2.7-1,5.8-1.1,9-0.9
					C739.4,942.8,742.7,943.4,746,944.2z"/>
			</g>
			<g>
				<path class="st8" d="M733.3,959.8c2.8,5.7,8.3,8.8,12.1,7c3.9-1.8,4.7-8,1.9-13.7c-2.8-5.7-8.3-8.8-12.1-7
					C731.4,948,730.5,954.1,733.3,959.8z"/>
			</g>
			<g>
				<path class="st8" d="M772.9,950.6c0.9,3.5,1.9,6.9,3.2,10.3c1.3,3.4,2.9,6.7,4.9,9.8c1.9,3.1,4.4,6,7.1,8.5
					c2.7,2.5,5.8,4.7,8.9,6.6l-0.5-2.2c-1.7,2.8-3.3,5.6-4.9,8.5c-1.6,2.9-3.1,5.8-4.4,8.8c2.2-2.5,4.3-5,6.3-7.6
					c2-2.6,3.9-5.2,5.8-7.9l0.9-1.3l-1.4-1c-2.9-2-5.6-4.1-8.2-6.5c-2.6-2.3-4.8-5-6.8-7.7c-2-2.8-3.9-5.8-5.6-8.9
					C776.5,956.8,774.8,953.6,772.9,950.6z"/>
			</g>
			<g>
				<path class="st8" d="M738.9,910.4c2.3,10.6-41.9,24.7-44.1,15.3C692.6,916.4,736.6,899.8,738.9,910.4z"/>
			</g>
			<g>
				<path class="st8" d="M814.4,901.2c-0.6,9.7-42.4,11.3-42,2.7C772.9,895.4,815.1,891.5,814.4,901.2z"/>
			</g>
			<g>
				<path class="st4" d="M653.9,960.9c14.4,11.4,18,30.5,7.9,42.7c-10,12.2-29.8,12.8-44.3,1.4c-14.4-11.4-18-30.5-7.9-42.7
					C619.7,950.1,639.5,949.5,653.9,960.9z"/>
			</g>
			<g>
				<path class="st8" d="M629.3,988.5c1.7-1.4,3.7-2.2,5.7-2.7c2-0.5,4.1-0.7,6.1-0.5c2,0.2,4,0.7,5.8,1.6c1.8,0.8,3.5,2,5,3.3
					c0.7,0.7,1.9,0.6,2.5-0.1c0.5-0.6,0.6-1.5,0.2-2.1l0-0.1c-1.7-2.8-3.6-5.6-5.8-8.1c-1.1-1.3-2.3-2.4-3.6-3.6
					c-1.3-1.1-2.7-2.1-4.2-2.9c-3-1.7-6.4-2.7-9.8-2.5c-3.4,0.1-6.5,1.3-9.2,3.1c3.1-0.8,6.2-1.3,9.1-0.9c3,0.4,5.7,1.5,8.2,3.2
					c1.2,0.8,2.4,1.8,3.5,2.8c1.1,1,2.2,2.1,3.2,3.3c2,2.4,3.9,4.9,5.6,7.5l2.6-2.3c-1.9-1.5-3.9-2.7-6.2-3.6
					c-2.2-0.8-4.6-1.2-6.9-1.1c-2.3,0.1-4.6,0.6-6.6,1.6C632.5,985.3,630.6,986.7,629.3,988.5z"/>
			</g>
			<g>
				<path class="st8" d="M786.9,1026.8c-4.4,1.1-8.7,1.6-13.1,1.6c-4.3,0-8.6-0.6-12.6-1.9c-4-1.3-7.7-3.5-11-6.2
					c-3.3-2.8-6.1-6-8.8-9.6c1.5,4.2,3.9,8,7.1,11.3c3.2,3.3,7.2,5.9,11.6,7.4c4.4,1.5,9.2,1.9,13.8,1.4
					C778.5,1030.4,783,1029.1,786.9,1026.8z"/>
			</g>
			<g>
				<path class="st16" d="M596.5,953c-22.3-39.3-18.2-91,12.7-129.2c13.5-16.7,28.5-23.3,47.9-29.2c33.5-10.2,72.3,9,72.3,9
					c-39.1-12.5-80.4-1.9-105.1,28.6c-26.6,32.8-31.9,79-13,112.3L596.5,953z"/>
			</g>
			
				<ellipse transform="matrix(0.7071 -0.7071 0.7071 0.7071 -513.577 734.5181)" class="st16" cx="629.9" cy="987.2" rx="51.2" ry="51.2"/>
			
				<ellipse transform="matrix(0.2317 -0.9728 0.9728 0.2317 -480.4254 1362.8668)" class="st10" cx="622.6" cy="985.6" rx="38.6" ry="38.6"/>
			<g>
				<path class="st16" d="M772.9,1102.5c-57.6-0.6-92.3-22.1-111.2-40.1c-20.7-19.6-27-37.6-27.2-38.4l8.7-4.6l-4.6,1.6l4.6-1.6
					c0.1,0.2,6.5,18.3,25.7,36.3c25.3,23.8,61.3,36.6,104.2,37.1L772.9,1102.5z"/>
			</g>
			<ellipse class="st16" cx="794.1" cy="1097.6" rx="27.5" ry="15.5"/>
			
				<ellipse transform="matrix(0.2315 -0.9728 0.9728 0.2315 -1115.2102 1551.8962)" class="st1" cx="424.6" cy="1481.8" rx="17.5" ry="17.5"/>
			<polygon class="st5" points="786.9,1162.5 832.9,1210.6 775.1,1358.8 			"/>
			<polygon class="st5" points="616,1162.3 775.1,1358.8 595.3,1238 			"/>
		</g>
		<g id="Keyboard">
			<polygon class="st17" points="1652.4,1589.1 1274.4,1590.7 1272.6,1655.6 1652.4,1653.7 			"/>
			<path class="st18" d="M1273.5,1655.6h-143.3v-21.2c0-4,7-11.6,9.3-12l134.9-31.7L1273.5,1655.6z"/>
		</g>
		<g id="computer">
			<path class="st10" d="M1916.1,1525h-695.3c-14.2,0-24.7-13.2-21.5-27l85.4-375.8c2.3-10.1,11.2-17.2,21.5-17.2h695.3
				c14.2,0,24.7,13.2,21.5,27l-85.4,375.8C1935.3,1517.9,1926.4,1525,1916.1,1525z"/>
			<path class="st5" d="M1886.8,1496.2h-622.6c-12,0-20.9-11.1-18.4-22.8l70.9-324.5c1.9-8.6,9.5-14.8,18.4-14.8h628.4
				c12.1,0,21.1,11.3,18.3,23.1l-76.7,324.5C1903.1,1490.2,1895.5,1496.2,1886.8,1496.2z"/>
			<path class="st18" d="M1562.5,1652.1l-81.4,0.6l76-311.1c1.9-7.7,9.4-13.2,18-13.2h58.9c11.8,0,20.6,10.1,18,20.7l-71.7,289.7
				C1578.4,1646.5,1571,1652,1562.5,1652.1z"/>
			<path class="st18" d="M1538.7,1614.5l195.8-1.2c10.4-0.1,18.9,8.2,18.9,18.4v21.1H1520v-19.8
				C1520,1622.8,1528.4,1614.6,1538.7,1614.5z"/>
		</g>
		<g id="desk_4_">
			<g>
				<g>
					<g>
						<path class="st19" d="M1986.8,1714.5H94.7V1686c0-18.4,14.9-33.3,33.3-33.3h1825.6c18.4,0,33.3,14.9,33.3,33.3V1714.5z"/>
					</g>
				</g>
			</g>
		</g>
	</g>
</g>
</svg>
