<svg width="66" height="28" viewBox="0 0 66 28" fill="none" xmlns="http://www.w3.org/2000/svg">
<path d="M8.26404 25.8905C8.26404 27.2817 7.15457 28.2071 5.78755 27.9607C5.73288 27.9535 5.67864 27.9432 5.62509 27.9296L2.37989 27.3583C1.91212 27.2426 1.47606 27.016 1.1054 26.6962C0.734738 26.3764 0.439396 25.9718 0.242188 25.5137L0.307567 24.9713C0.451705 23.9482 0.913153 23.0027 1.6211 22.28C1.67657 22.2241 1.72412 22.1745 1.77761 22.1289C1.87469 22.1682 1.97573 22.2117 2.06687 22.2428C2.20986 22.2961 2.35702 22.3363 2.50669 22.3628C2.52906 22.3657 2.55168 22.3657 2.57405 22.3628L5.65877 22.9177C5.69969 22.9179 5.74037 22.9242 5.77962 22.9363C7.15457 23.1868 8.26404 24.5117 8.26404 25.8905Z" fill="#720107"/>
<path d="M1.28005 9.31612C0.872801 9.73592 0.529387 10.2183 0.261719 10.7466L0.279549 10.287C0.293365 9.85135 0.406814 9.42543 0.610409 9.04492L0.640127 9.06562C0.765973 9.14019 0.898731 9.20123 1.03637 9.2478C1.10831 9.2779 1.18348 9.29876 1.26024 9.30991C1.26378 9.30915 1.26744 9.30932 1.2709 9.3104C1.27435 9.31149 1.2775 9.31345 1.28005 9.31612V9.31612Z" fill="#720107"/>
<path d="M10.2826 2.62503C10.2826 4.34745 8.91759 6.00362 7.20188 6.30173C7.15447 6.31488 7.10609 6.32388 7.05725 6.32864L3.21374 7.01388C3.18962 7.01548 3.16573 7.01965 3.14242 7.0263H3.12855C2.94285 7.0592 2.75999 7.10766 2.58174 7.17122C2.02798 7.35857 1.51118 7.64892 1.05622 8.02828C1.00319 8.07327 0.952906 8.12167 0.905648 8.1732C0.864429 8.21005 0.82601 8.2502 0.790739 8.29327C0.686979 8.40656 0.594694 8.53074 0.515353 8.66384C0.46852 8.72843 0.428031 8.79779 0.394501 8.87086V8.87086C0.335274 8.96763 0.286754 9.07111 0.249873 9.17932C0.248514 9.18334 0.248514 9.18772 0.249873 9.19174C0.214497 9.26675 0.185974 9.34507 0.164682 9.42568C0.146106 9.48139 0.130237 9.53805 0.117134 9.59543C0.0529519 9.81686 0.0143742 10.0455 0.00222435 10.2765C-0.000741449 10.2172 -0.000741449 10.1578 0.00222435 10.0985V4.50892C0.00222435 2.80721 1.31576 1.18416 2.97401 0.811523L7.00376 0.0952298C7.07112 0.0828085 7.1365 0.0621064 7.20188 0.0496851C7.37928 0.0181088 7.55883 0.00149355 7.73878 0C7.91484 0.000567068 8.09051 0.0171919 8.2638 0.0496851C8.42829 0.0820239 8.58948 0.130545 8.74523 0.1946C9.04842 0.313485 9.32395 0.498371 9.55356 0.736996C9.66784 0.851422 9.77073 0.97766 9.86064 1.11377C9.93606 1.23445 10.0023 1.36112 10.0588 1.49262C10.073 1.51615 10.085 1.54112 10.0944 1.56715C10.1549 1.73017 10.2013 1.89853 10.2331 2.07021C10.265 2.2533 10.2816 2.43894 10.2826 2.62503V2.62503Z" fill="#B41218"/>
<path d="M20.6168 11.3866C20.6168 14.8418 17.8431 18.1417 14.4335 18.7524C14.338 18.773 14.2414 18.7875 14.1442 18.7959L4.12332 20.5825C3.13799 20.7683 2.23004 21.2629 1.52004 22.0006C1.49084 22.0258 1.46306 22.0528 1.43683 22.0813C0.696854 22.8312 0.210133 23.812 0.0499911 24.8761C0.043388 24.8947 0.0393845 24.9142 0.0381039 24.9341L0.00244242 24.4683V12.9641C0.00220128 12.6148 0.0448141 12.2669 0.129239 11.929C0.153069 11.7958 0.189572 11.6654 0.238204 11.5398C0.26298 11.44 0.296814 11.343 0.339245 11.25C0.62083 10.5298 1.05583 9.88624 1.61117 9.36813C2.30772 8.68181 3.18078 8.22278 4.12332 8.04734C4.22897 8.02925 4.33543 8.01681 4.4423 8.01007L14.0352 6.28973C14.168 6.26488 14.3007 6.23383 14.4315 6.20899C14.7898 6.14142 15.1531 6.10747 15.5172 6.10755C16.3717 6.10159 17.2154 6.30658 17.9798 6.70584C18.1244 6.78865 18.2631 6.86939 18.4018 6.95841C19.7549 7.86723 20.6168 9.44473 20.6168 11.3866Z" fill="#B41218"/>
<path d="M27.0376 9.46458H25.2228C25.1614 9.45768 25.0993 9.4642 25.0404 9.48371C24.9815 9.50323 24.9272 9.53532 24.8808 9.57795C24.8344 9.62058 24.797 9.67281 24.7709 9.73135C24.7449 9.78988 24.7308 9.85343 24.7295 9.91796V22.5607C24.7386 22.6849 24.7943 22.8003 24.8845 22.8817C24.9747 22.9632 25.092 23.0041 25.2109 22.9955H27.0376C27.1564 23.0035 27.2734 22.9624 27.3635 22.8811C27.4535 22.7998 27.5094 22.6847 27.519 22.5607V9.89933C27.5089 9.77556 27.4529 9.66083 27.3629 9.57961C27.273 9.49839 27.1562 9.45711 27.0376 9.46458V9.46458Z" fill="white"/>
<path d="M37.9858 16.0895C39.4122 15.8949 39.7807 13.9117 39.7807 13.2119C39.7807 11.9967 38.9664 9.46484 34.4057 9.46484H29.5439C29.1477 9.46484 29.0308 9.72362 29.0308 9.91822V22.561C29.0404 22.6854 29.0965 22.8007 29.187 22.8821C29.2775 22.9635 29.3951 23.0043 29.5142 22.9958H35.0992C39.4974 22.9958 40.1235 20.3045 40.1235 18.992C40.1229 18.3297 39.913 17.6861 39.5265 17.1613C39.1399 16.6364 38.5983 16.2597 37.9858 16.0895V16.0895ZM34.3998 11.9719C35.2141 11.9719 35.7985 12.0982 36.1591 12.3486C36.5197 12.5991 36.7019 13.0173 36.7019 13.5908C36.714 13.8075 36.6746 14.0239 36.5871 14.2208C36.4996 14.4177 36.3669 14.5888 36.2007 14.719C35.8698 14.9695 35.3032 15.102 34.5147 15.1082H31.8143V12.6695C31.8143 12.4066 31.1586 11.9719 31.1586 11.9719H34.3998ZM36.5038 20.0809C36.1472 20.3521 35.6479 20.4949 34.9961 20.4949H31.8143V17.9527C31.8143 17.6691 31.1526 17.2406 31.1526 17.2406H35.1645C36.4067 17.2406 37.0209 17.814 37.0209 18.9485C37.0296 19.167 36.987 19.3844 36.8969 19.5818C36.8067 19.7791 36.6718 19.9505 36.5038 20.0809V20.0809Z" fill="white"/>
<path d="M52.1273 22.4099C52.1111 22.3726 52.0883 22.3389 52.06 22.3105L49.0723 17.3917C51.0793 16.7375 51.7965 15.7169 51.7965 13.5514C51.7965 10.6531 48.9574 9.46484 46.4988 9.46484H41.5458C41.0029 9.46484 41.0029 9.91822 41.0029 9.91822V22.561C41.0126 22.6854 41.0687 22.8007 41.1592 22.8821C41.2497 22.9635 41.3672 23.0043 41.4863 22.9958H43.529C43.647 23.0032 43.7631 22.9617 43.8521 22.8803C43.9411 22.799 43.9958 22.6842 44.0044 22.561V18.8843C44.0044 18.6069 43.2932 18.2115 43.2932 18.2115H46.1382L48.8306 22.6935L48.892 22.8012C48.9039 22.8012 48.9039 22.8136 48.9099 22.8198C48.9585 22.8736 49.0172 22.9164 49.0823 22.9456C49.1474 22.9747 49.2175 22.9897 49.2883 22.9895H51.6657C51.7845 22.9976 51.9015 22.9565 51.9916 22.8751C52.0816 22.7938 52.1375 22.6788 52.1471 22.5548C52.1457 22.5059 52.1391 22.4573 52.1273 22.4099V22.4099ZM48.1867 15.2138C47.8063 15.5347 47.2457 15.6983 46.4988 15.6983H44.0044V12.6695C44.0044 12.3735 43.2932 11.9719 43.2932 11.9719H46.4928C47.2338 11.9719 47.7945 12.1416 48.1748 12.4749C48.3545 12.6499 48.498 12.8614 48.5965 13.0964C48.6949 13.3315 48.7463 13.5851 48.7474 13.8417C48.7485 14.0983 48.6994 14.3524 48.6029 14.5884C48.5065 14.8244 48.3649 15.0372 48.1867 15.2138V15.2138Z" fill="white"/>
<path d="M62.293 21.1758C62.3405 21.3083 62.4059 21.478 62.4792 21.6602L62.293 21.1758Z" fill="white"/>
<path d="M65.986 22.4741L65.9444 22.3726L60.9657 9.91822C60.9657 9.91822 60.7973 9.46484 60.4308 9.46484H58.087C57.7185 9.46484 57.562 9.91822 57.562 9.91822L52.821 22.4099C52.8014 22.4577 52.7907 22.509 52.7893 22.561C52.7875 22.6087 52.7963 22.6562 52.815 22.6997C52.822 22.7116 52.826 22.7251 52.8269 22.739C52.8728 22.8192 52.9383 22.8852 53.0166 22.9303C53.0949 22.9754 53.1833 22.998 53.2727 22.9958H55.4362C55.5079 22.9965 55.5791 22.9819 55.6452 22.9527C55.7114 22.9235 55.771 22.8803 55.8205 22.826C55.8205 22.826 55.8205 22.8136 55.8324 22.8074L55.8879 22.7121V22.6997C55.8879 22.6997 55.9949 22.3788 56.0067 22.3291L56.1454 21.9151C56.2544 21.4369 55.6224 21.1719 55.6224 21.1719L56.4466 21.0601H56.4723L61.9305 20.2465L62.1841 20.9028L62.2198 21.0021L62.2871 21.1719L62.4734 21.6563L62.5328 21.8075C62.6596 22.1242 62.7923 22.4637 62.8894 22.6956C62.8963 22.7075 62.9004 22.721 62.9013 22.7349C62.948 22.8144 63.0136 22.8798 63.0917 22.9248C63.1699 22.9698 63.2579 22.9928 63.3471 22.9916H65.5046C65.5764 22.9924 65.6475 22.9777 65.7137 22.9485C65.7798 22.9193 65.8395 22.8762 65.8889 22.8219C65.8889 22.8219 65.8889 22.8094 65.9008 22.8032L65.9761 22.6935C65.9933 22.6495 66.0014 22.6023 65.9999 22.5548C65.9978 22.5275 65.9932 22.5004 65.986 22.4741V22.4741ZM60.6269 17.8575C60.4585 17.9092 57.4808 18.3171 57.4808 18.3171L59.3312 13.2554L60.7834 17.2468C60.7834 17.2468 60.9538 17.7581 60.6269 17.8575Z" fill="white"/>
<path d="M25.296 5.95915V6.72513H26.4847V7.26339H25.296V8.3192H24.7017V5.4209H26.6531V5.95708L25.296 5.95915Z" fill="white"/>
<path d="M28.652 7.69813H27.4514L27.2235 8.3192H26.6094L27.7624 5.4209H28.3568L29.5118 8.3192H28.8838L28.652 7.69813ZM28.4539 7.18886L28.0438 6.07923L27.6337 7.18886H28.4539Z" fill="white"/>
<path d="M29.5776 6.87067C29.5694 6.67446 29.5998 6.47859 29.667 6.29518C29.7342 6.11178 29.8368 5.94474 29.9683 5.80443C30.0998 5.66411 30.2574 5.5535 30.4315 5.47944C30.6056 5.40539 30.7923 5.36947 30.9802 5.3739C31.1835 5.36637 31.3856 5.40869 31.5703 5.49749C31.7551 5.58629 31.9174 5.71909 32.0441 5.88525L31.6598 6.28273C31.5841 6.17731 31.486 6.09175 31.3732 6.03282C31.2604 5.97389 31.1361 5.94321 31.01 5.94321C30.8959 5.94226 30.783 5.96611 30.6782 6.01323C30.5735 6.06036 30.4793 6.12974 30.4016 6.21697C30.3239 6.30419 30.2644 6.40735 30.2269 6.51989C30.1894 6.63243 30.1747 6.75188 30.1838 6.87067C30.1747 6.98945 30.1894 7.10891 30.2269 7.22144C30.2644 7.33398 30.3239 7.43714 30.4016 7.52436C30.4793 7.61159 30.5735 7.68097 30.6782 7.7281C30.783 7.77523 30.8959 7.79907 31.01 7.79812C31.1365 7.79829 31.2613 7.76726 31.3742 7.70755C31.4871 7.64784 31.585 7.56113 31.6598 7.45447L32.0441 7.85195C31.9181 8.02044 31.7556 8.15523 31.5699 8.24522C31.3842 8.3352 31.1808 8.3778 30.9763 8.3695C30.7885 8.37338 30.602 8.33697 30.4283 8.26254C30.2545 8.1881 30.0973 8.07721 29.9662 7.93673C29.8351 7.79625 29.7329 7.62916 29.6661 7.44579C29.5993 7.26243 29.5691 7.06668 29.5776 6.87067Z" fill="white"/>
<path d="M32.4004 7.0448V5.42383H32.9947V7.01996C32.9947 7.57064 33.2087 7.79836 33.5693 7.79836C33.9299 7.79836 34.1458 7.57064 34.1458 7.01996V5.42383H34.7402V7.0448C34.7402 7.89773 34.3043 8.36974 33.5713 8.36974C32.8382 8.36974 32.4004 7.89773 32.4004 7.0448Z" fill="white"/>
<path d="M35.3311 5.42383H35.9255V7.77352H37.2212V8.32005H35.3271L35.3311 5.42383Z" fill="white"/>
<path d="M37.5596 5.42383H38.7324C39.5784 5.42383 40.1569 5.99314 40.1569 6.87298C40.1569 7.75282 39.5784 8.32213 38.7324 8.32213H37.5596V5.42383ZM38.7027 7.76938C38.8174 7.77856 38.9327 7.76153 39.0405 7.71948C39.1482 7.67742 39.246 7.61135 39.3268 7.52585C39.4077 7.44036 39.4698 7.33748 39.5088 7.22438C39.5478 7.11128 39.5628 6.99066 39.5526 6.87091C39.5628 6.75115 39.5478 6.63054 39.5088 6.51743C39.4698 6.40433 39.4077 6.30146 39.3268 6.21596C39.246 6.13046 39.1482 6.06439 39.0405 6.02233C38.9327 5.98028 38.8174 5.96325 38.7027 5.97243H38.1579V7.76938H38.7027Z" fill="white"/>
<path d="M42.2731 7.69813H41.0725L40.8446 8.3192H40.2305L41.3835 5.4209H41.9779L43.1329 8.3192H42.5049L42.2731 7.69813ZM42.075 7.18886L41.6649 6.07923L41.2547 7.18886H42.075Z" fill="white"/>
<path d="M43.3901 5.42383H44.5789C45.4248 5.42383 46.0033 5.99314 46.0033 6.87298C46.0033 7.75282 45.4248 8.32213 44.5789 8.32213H43.3901V5.42383ZM44.5333 7.76938C44.648 7.77856 44.7632 7.76153 44.871 7.71948C44.9788 7.67742 45.0765 7.61135 45.1574 7.52585C45.2383 7.44036 45.3004 7.33748 45.3394 7.22438C45.3784 7.11128 45.3933 6.99066 45.3832 6.87091C45.3933 6.75115 45.3784 6.63054 45.3394 6.51743C45.3004 6.40433 45.2383 6.30146 45.1574 6.21596C45.0765 6.13046 44.9788 6.06439 44.871 6.02233C44.7632 5.98028 44.648 5.96325 44.5333 5.97243H43.9865V7.76938H44.5333Z" fill="white"/>
<path d="M48.4463 7.78778V8.32603H46.4453V5.42773H48.3988V5.96392H47.0397V6.58498H48.2403V7.10668H47.0397V7.78778H48.4463Z" fill="white"/>
</svg>
