<svg xmlns="http://www.w3.org/2000/svg" width="386.9528796282068" height="117.50262029496253" fill="none"><rect id="backgroundrect" width="100%" height="100%" x="0" y="0" fill="none" stroke="none" style="" class="selected"/>
<g class="currentLayer" style=""><title>Layer 1</title><path d="M32.5632,30.575587802410134 C32.5632,33.80158780241013 30.8736,35.18358780241013 27.648,35.18358780241013 H20.8896 V25.967587802410122 H27.648 C30.8736,25.967587802410122 32.5632,27.811587802410116 32.5632,30.575587802410134 zM3.84,11.68358780241013 V66.05758780241013 H20.8896 V46.55058780241012 H20.9664 L31.1808,66.05758780241013 H49.92 L38.0928,45.24458780241014 C45.8496,42.71058780241012 49.8432,36.64358780241014 49.8432,29.500587802410138 C49.8432,19.51658780241013 42.8544,11.68358780241013 29.184,11.68358780241013 H3.84 zM76.7172,72.73958780241011 H81.4788 V66.59558780241014 C95.1492,66.28758780241012 102.676,59.06858780241012 102.676,50.00658780241014 C102.676,37.10358780241012 89.85,34.569587802410126 81.4788,31.881587802410138 V24.43158780241013 C82.4772,25.04658780241013 83.1684,26.275587802410122 83.3988,28.348587802410123 H101.754 C101.063,17.67358780241014 93.5364,11.68358780241013 81.4788,10.838587802410132 V4.617587802410129 H76.7172 V10.838587802410132 C65.5044,11.299587802410116 56.058,16.98258780241015 56.058,27.35058780241014 C56.058,40.48358780241011 68.2692,43.09458780241013 76.7172,45.398587802410134 V52.924587802410116 C75.4116,52.23358780241012 74.49,50.92758780241013 74.3364,48.62358780241013 H56.2116 C56.9028,59.60658780241013 65.3508,65.36658780241012 76.7172,66.44158780241011 V72.73958780241011 zM84.474,50.390587802410124 C84.474,52.23358780241012 83.2452,53.23158780241016 81.4788,53.61558780241012 V47.01158780241013 C83.322,47.85558780241013 84.474,48.85458780241012 84.474,50.390587802410124 zM74.3364,26.58258780241013 C74.3364,25.04658780241013 75.1812,24.124587802410133 76.7172,23.817587802410117 V29.961587802410122 C75.258,29.11658780241013 74.3364,28.041587802410135 74.3364,26.58258780241013 zM110.717,106.77758780241012 H176.893 V83.86558780241012 H147.581 C162.429,74.52158780241012 176.509,59.033587802410125 176.509,40.47358780241012 C176.509,25.625587802410134 168.189,12.441587802410112 144.893,12.441587802410112 C127.357,12.441587802410112 111.229,22.041587802410135 110.333,46.87358780241013 H137.853 C137.341,39.321587802410136 139.901,36.24958780241014 142.973,36.24958780241014 C145.917,36.24958780241014 147.837,38.553587802410135 147.837,42.64958780241014 C147.837,56.089587802410136 128.765,71.83358780241014 110.717,85.40158780241012 V106.77758780241012 zM185.649,78.87358780241013 C186.545,93.97758780241011 197.425,108.95358780241011 218.673,108.95358780241011 C244.145,108.95358780241011 252.465,90.39358780241014 252.465,58.265587802410124 C252.465,31.769587802410122 245.425,12.441587802410112 216.497,12.441587802410112 C196.401,12.441587802410112 183.473,24.60158780241018 183.473,43.92958780241014 C183.473,63.89758780241013 194.865,73.75358780241012 210.481,73.75358780241012 C217.905,73.75358780241012 223.921,70.68158780241012 226.993,66.07358780241015 C226.993,78.48958780241011 226.225,86.29758780241013 219.313,86.29758780241013 C215.089,86.29758780241013 213.041,83.73758780241013 212.145,78.87358780241013 H185.649 zM217.521,51.99358780241013 C213.041,51.99358780241013 209.969,49.43358780241013 209.969,44.69758780241011 C209.969,39.44958780241012 212.913,37.14558780241012 217.521,37.14558780241012 C222.129,37.14558780241012 225.073,39.44958780241012 225.073,44.69758780241011 C225.073,49.43358780241013 222.001,51.99358780241013 217.521,51.99358780241013 zM258.466,78.42258780241013 H269.678 L279.816,50.31358780241017 H262.92 L258.466,78.42258780241013 zM288.622,48.547587802410135 C289.159,57.60958780241012 295.687,66.59558780241014 308.436,66.59558780241014 C323.719,66.59558780241014 328.711,55.45958780241011 328.711,36.182587802410126 C328.711,20.28458780241013 324.487,8.687587802410121 307.13,8.687587802410121 C295.073,8.687587802410121 287.316,15.9835878024101 287.316,27.580587802410122 C287.316,39.56158780241012 294.151,45.47558780241013 303.521,45.47558780241013 C307.975,45.47558780241013 311.585,43.63158780241019 313.428,40.86758780241013 C313.428,48.31658780241011 312.967,53.001587802410114 308.82,53.001587802410114 C306.286,53.001587802410114 305.057,51.46558780241011 304.519,48.547587802410135 H288.622 zM307.745,32.419587802410135 C305.057,32.419587802410135 303.214,30.88358780241012 303.214,28.041587802410135 C303.214,24.892587802410134 304.98,23.51058780241013 307.745,23.51058780241013 C310.51,23.51058780241013 312.276,24.892587802410134 312.276,28.041587802410135 C312.276,30.88358780241012 310.433,32.419587802410135 307.745,32.419587802410135 zM335.599,37.180587802410116 C335.599,54.07658780241012 342.357,65.75058780241015 358.639,65.75058780241015 C374.843,65.75058780241015 381.679,54.07658780241012 381.679,37.180587802410116 C381.679,20.361587802410128 374.843,8.687587802410121 358.639,8.687587802410121 C342.357,8.687587802410121 335.599,20.361587802410128 335.599,37.180587802410116 zM364.859,37.180587802410116 C364.859,44.24658780241012 364.168,49.62258780241012 358.639,49.62258780241012 C353.032,49.62258780241012 352.341,44.24658780241012 352.341,37.180587802410116 C352.341,30.191587802410112 353.032,24.815587802410143 358.639,24.815587802410143 C364.168,24.815587802410143 364.859,30.191587802410112 364.859,37.180587802410116 z" fill="white" id="svg_2" class=""/></g></svg>