<svg xmlns="http://www.w3.org/2000/svg" width="388.3507823686597" height="173.93718332303308" fill="none"><rect id="backgroundrect" width="100%" height="100%" x="0" y="0" fill="none" stroke="none" style="" class=""/>
<g class="currentLayer" style=""><title>Layer 1</title><path d="M11.76,9.580730850696568 H3.08 V37.460730850696564 H11.76 C20.92,37.460730850696564 26.56,32.22073085069657 26.56,23.58073085069657 C26.56,14.940730850696575 20.92,9.580730850696568 11.76,9.580730850696568 zM6.72,34.460730850696564 V12.540730850696562 H11.76 C19.04,12.540730850696562 22.84,16.780730850696557 22.84,23.58073085069657 C22.84,30.380730850696573 19.04,34.460730850696564 11.76,34.460730850696564 H6.72 zM40.6813,18.26073085069656 C44.4413,18.26073085069656 47.6413,20.62073085069656 47.6013,24.90073085069656 H33.7613 C34.1612,20.62073085069656 37.1213,18.26073085069656 40.6813,18.26073085069656 zM50.9213,30.70073085069656 H47.0013 C46.2013,33.06073085069656 44.1213,34.740730850696565 40.8413,34.740730850696565 C37.1213,34.740730850696565 34.0013,32.30073085069657 33.7213,27.86073085069657 H51.2413 C51.3213,27.100730850696564 51.3613,26.460730850696564 51.3613,25.660730850696567 C51.3613,19.660730850696567 47.2013,15.180730850696566 40.8413,15.180730850696566 C34.4413,15.180730850696566 30.0013,19.540730850696562 30.0013,26.460730850696564 C30.0013,33.42073085069656 34.6013,37.82073085069656 40.8413,37.82073085069656 C46.2813,37.82073085069656 49.8013,34.70073085069656 50.9213,30.70073085069656 zM59.7259,35.22073085069657 C59.7259,33.82073085069656 58.6459,32.740730850696565 57.3259,32.740730850696565 C55.9259,32.740730850696565 54.8459,33.82073085069656 54.8459,35.22073085069657 C54.8459,36.62073085069656 55.9259,37.70073085069656 57.3259,37.70073085069656 C58.6459,37.70073085069656 59.7259,36.62073085069656 59.7259,35.22073085069657 zM59.7259,18.100730850696564 C59.7259,16.70073085069656 58.6459,15.62073085069656 57.3259,15.62073085069656 C55.9259,15.62073085069656 54.8459,16.70073085069656 54.8459,18.100730850696564 C54.8459,19.50073085069657 55.9259,20.58073085069657 57.3259,20.58073085069657 C58.6459,20.58073085069657 59.7259,19.50073085069657 59.7259,18.100730850696564 zM90.2656,17.780730850696557 C90.2656,20.90073085069656 88.4656,23.14073085069657 84.3456,23.14073085069657 H78.9856 V12.580730850696568 H84.3456 C88.5056,12.580730850696568 90.2656,14.62073085069656 90.2656,17.780730850696557 zM75.3456,9.580730850696568 V37.460730850696564 H78.9856 V26.060730850696558 H83.3856 L90.0256,37.460730850696564 H94.3856 L87.3856,25.780730850696557 C92.0656,24.740730850696565 94.0256,21.340730850696566 94.0256,17.780730850696557 C94.0256,13.220730850696576 90.9056,9.580730850696568 84.3456,9.580730850696568 H75.3456 zM107.282,40.940730850696575 H109.442 V37.70073085069656 C114.882,37.34073085069656 117.682,33.54073085069656 117.682,29.820730850696563 C117.682,24.26073085069656 113.402,23.100730850696564 109.442,22.100730850696564 V12.340730850696566 C111.882,12.86073085069657 113.202,14.660730850696567 113.442,16.380730850696573 H117.322 C116.922,12.340730850696566 114.002,9.660730850696567 109.442,9.26073085069656 V5.940730850696568 H107.282 V9.26073085069656 C102.282,9.580730850696568 99.0016,12.660730850696567 99.0016,16.98073085069656 C99.0016,22.50073085069657 103.282,23.660730850696567 107.282,24.70073085069656 V34.70073085069656 C104.442,34.26073085069656 103.122,32.30073085069657 102.922,30.22073085069658 H99.0416 C99.1216,34.460730850696564 102.482,37.26073085069656 107.282,37.70073085069656 V40.940730850696575 zM114.042,30.020730850696573 C114.042,32.42073085069656 112.402,34.42073085069656 109.442,34.740730850696565 V25.300730850696567 C112.002,26.060730850696558 114.042,27.180730850696563 114.042,30.020730850696573 zM102.722,16.780730850696557 C102.722,13.940730850696577 104.602,12.50073085069657 107.282,12.26073085069656 V21.50073085069657 C104.722,20.70073085069656 102.722,19.62073085069656 102.722,16.780730850696557 zM125.284,29.70073085069656 C125.684,33.940730850696575 128.484,37.50073085069657 134.244,37.50073085069657 C141.844,37.50073085069657 144.044,32.100730850696564 144.044,22.460730850696564 C144.044,13.50073085069657 141.764,7.98073085069656 133.924,7.98073085069656 C127.684,7.98073085069656 124.404,11.98073085069656 124.404,17.50073085069657 C124.404,23.62073085069656 128.364,26.940730850696575 133.684,26.940730850696575 C136.804,26.940730850696575 139.684,25.540730850696562 140.844,23.100730850696564 C140.964,31.58073085069657 138.684,34.460730850696564 134.444,34.460730850696564 C131.084,34.460730850696564 129.164,32.70073085069656 128.644,29.70073085069656 H125.284 zM134.284,23.86073085069657 C129.964,23.86073085069657 127.884,21.14073085069657 127.884,17.420730850696557 C127.884,13.580730850696568 130.244,11.020730850696566 134.004,11.020730850696566 C138.164,11.020730850696566 140.404,13.780730850696557 140.404,17.70073085069656 C140.404,21.58073085069657 137.764,23.86073085069657 134.284,23.86073085069657 zM150.48,29.70073085069656 C150.88,33.940730850696575 153.68,37.50073085069657 159.44,37.50073085069657 C167.04,37.50073085069657 169.24,32.100730850696564 169.24,22.460730850696564 C169.24,13.50073085069657 166.96,7.98073085069656 159.12,7.98073085069656 C152.88,7.98073085069656 149.6,11.98073085069656 149.6,17.50073085069657 C149.6,23.62073085069656 153.56,26.940730850696575 158.88,26.940730850696575 C162,26.940730850696575 164.88,25.540730850696562 166.04,23.100730850696564 C166.16,31.58073085069657 163.88,34.460730850696564 159.64,34.460730850696564 C156.28,34.460730850696564 154.36,32.70073085069656 153.84,29.70073085069656 H150.48 zM159.48,23.86073085069657 C155.16,23.86073085069657 153.08,21.14073085069657 153.08,17.420730850696557 C153.08,13.580730850696568 155.44,11.020730850696566 159.2,11.020730850696566 C163.36,11.020730850696566 165.6,13.780730850696557 165.6,17.70073085069656 C165.6,21.58073085069657 162.96,23.86073085069657 159.48,23.86073085069657 zM171.795,43.18073085069656 H174.235 L178.715,32.42073085069656 H174.715 L171.795,43.18073085069656 zM183.605,29.70073085069656 C184.005,33.940730850696575 186.805,37.50073085069657 192.565,37.50073085069657 C200.165,37.50073085069657 202.365,32.100730850696564 202.365,22.460730850696564 C202.365,13.50073085069657 200.085,7.98073085069656 192.245,7.98073085069656 C186.005,7.98073085069656 182.725,11.98073085069656 182.725,17.50073085069657 C182.725,23.62073085069656 186.685,26.940730850696575 192.005,26.940730850696575 C195.125,26.940730850696575 198.005,25.540730850696562 199.165,23.100730850696564 C199.285,31.58073085069657 197.005,34.460730850696564 192.765,34.460730850696564 C189.405,34.460730850696564 187.485,32.70073085069656 186.965,29.70073085069656 H183.605 zM192.605,23.86073085069657 C188.285,23.86073085069657 186.205,21.14073085069657 186.205,17.420730850696557 C186.205,13.580730850696568 188.565,11.020730850696566 192.325,11.020730850696566 C196.485,11.020730850696566 198.725,13.780730850696557 198.725,17.70073085069656 C198.725,21.58073085069657 196.085,23.86073085069657 192.605,23.86073085069657 zM207.48,22.70073085069656 C207.48,31.100730850696564 209.56,37.460730850696564 217.56,37.460730850696564 C225.52,37.460730850696564 227.6,31.100730850696564 227.6,22.70073085069656 C227.6,14.420730850696557 225.52,8.100730850696564 217.56,8.100730850696564 C209.56,8.100730850696564 207.48,14.420730850696557 207.48,22.70073085069656 zM224,22.70073085069656 C224,28.940730850696575 223.24,34.14073085069657 217.56,34.14073085069657 C211.84,34.14073085069657 211.08,28.940730850696575 211.08,22.70073085069656 C211.08,16.70073085069656 211.84,11.420730850696557 217.56,11.420730850696557 C223.24,11.420730850696557 224,16.70073085069656 224,22.70073085069656 zM247.501,19.58073085069657 V15.540730850696562 H243.861 V47.86073085069657 H247.501 V33.42073085069656 C248.861,35.66073085069657 251.701,37.82073085069656 255.701,37.82073085069656 C261.581,37.82073085069656 266.101,33.22073085069657 266.101,26.420730850696557 C266.101,19.58073085069657 261.581,15.180730850696566 255.701,15.180730850696566 C251.701,15.180730850696566 248.821,17.26073085069656 247.501,19.58073085069657 zM262.381,26.420730850696557 C262.381,31.58073085069657 258.981,34.62073085069656 254.941,34.62073085069656 C250.981,34.62073085069656 247.501,31.62073085069656 247.501,26.460730850696564 C247.501,21.380730850696573 250.981,18.340730850696566 254.941,18.340730850696566 C258.981,18.340730850696566 262.381,21.26073085069656 262.381,26.420730850696557 zM291.693,26.460730850696564 C291.693,19.540730850696562 286.853,15.180730850696566 280.613,15.180730850696566 C274.413,15.180730850696566 269.533,19.540730850696562 269.533,26.460730850696564 C269.533,33.42073085069656 274.253,37.82073085069656 280.453,37.82073085069656 C286.693,37.82073085069656 291.693,33.42073085069656 291.693,26.460730850696564 zM273.253,26.460730850696564 C273.253,20.940730850696575 276.733,18.340730850696566 280.573,18.340730850696566 C284.333,18.340730850696566 287.973,20.940730850696575 287.973,26.460730850696564 C287.973,32.02073085069657 284.253,34.62073085069656 280.453,34.62073085069656 C276.653,34.62073085069656 273.253,32.02073085069657 273.253,26.460730850696564 zM300.118,25.540730850696562 C300.118,20.460730850696564 302.758,18.90073085069656 306.238,18.90073085069656 H307.198 V15.140730850696578 C303.718,15.140730850696578 301.358,16.660730850696567 300.118,19.100730850696564 V15.540730850696562 H296.478 V37.460730850696564 H300.118 V25.540730850696562 z" fill="white" id="svg_1" class=""/><path d="M32.5632,83.97873085069656 C32.5632,87.20473085069656 30.8736,88.58673085069657 27.648,88.58673085069657 H20.8896 V79.37073085069656 H27.648 C30.8736,79.37073085069656 32.5632,81.21473085069655 32.5632,83.97873085069656 zM3.84,65.08673085069657 V119.46073085069656 H20.8896 V99.95373085069656 H20.9664 L31.1808,119.46073085069656 H49.92 L38.0928,98.64773085069658 C45.8496,96.11373085069656 49.8432,90.04673085069658 49.8432,82.90373085069658 C49.8432,72.91973085069657 42.8544,65.08673085069657 29.184,65.08673085069657 H3.84 zM76.7172,126.14273085069655 H81.4788 V119.99873085069657 C95.1492,119.69073085069655 102.676,112.47173085069656 102.676,103.40973085069658 C102.676,90.50673085069656 89.85,87.97273085069656 81.4788,85.28473085069658 V77.83473085069656 C82.4772,78.44973085069657 83.1684,79.67873085069655 83.3988,81.75173085069656 H101.754 C101.063,71.07673085069658 93.5364,65.08673085069657 81.4788,64.24173085069657 V58.020730850696566 H76.7172 V64.24173085069657 C65.5044,64.70273085069655 56.058,70.38573085069659 56.058,80.75373085069657 C56.058,93.88673085069655 68.2692,96.49773085069657 76.7172,98.80173085069657 V106.32773085069655 C75.4116,105.63673085069655 74.49,104.33073085069657 74.3364,102.02673085069657 H56.2116 C56.9028,113.00973085069657 65.3508,118.76973085069656 76.7172,119.84473085069655 V126.14273085069655 zM84.474,103.79373085069656 C84.474,105.63673085069655 83.2452,106.6347308506966 81.4788,107.01873085069656 V100.41473085069657 C83.322,101.25873085069657 84.474,102.25773085069656 84.474,103.79373085069656 zM74.3364,79.98573085069657 C74.3364,78.44973085069657 75.1812,77.52773085069657 76.7172,77.22073085069655 V83.36473085069656 C75.258,82.51973085069656 74.3364,81.44473085069657 74.3364,79.98573085069657 zM110.717,160.18073085069656 H176.893 V137.26873085069656 H147.581 C162.429,127.92473085069656 176.509,112.43673085069656 176.509,93.87673085069656 C176.509,79.02873085069658 168.189,65.84473085069655 144.893,65.84473085069655 C127.357,65.84473085069655 111.229,75.44473085069657 110.333,100.27673085069657 H137.853 C137.341,92.72473085069657 139.901,89.65273085069657 142.973,89.65273085069657 C145.917,89.65273085069657 147.837,91.95673085069657 147.837,96.05273085069658 C147.837,109.49273085069657 128.765,125.23673085069657 110.717,138.80473085069656 V160.18073085069656 zM185.649,132.27673085069657 C186.545,147.38073085069655 197.425,162.35673085069655 218.673,162.35673085069655 C244.145,162.35673085069655 252.465,143.79673085069658 252.465,111.66873085069656 C252.465,85.17273085069655 245.425,65.84473085069655 216.497,65.84473085069655 C196.401,65.84473085069655 183.473,78.0047308506966 183.473,97.33273085069658 C183.473,117.30073085069657 194.865,127.15673085069656 210.481,127.15673085069656 C217.905,127.15673085069656 223.921,124.08473085069656 226.993,119.47673085069658 C226.993,131.89273085069655 226.225,139.70073085069657 219.313,139.70073085069657 C215.089,139.70073085069657 213.041,137.14073085069657 212.145,132.27673085069657 H185.649 zM217.521,105.39673085069657 C213.041,105.39673085069657 209.969,102.83673085069657 209.969,98.10073085069655 C209.969,92.85273085069656 212.913,90.54873085069656 217.521,90.54873085069656 C222.129,90.54873085069656 225.073,92.85273085069656 225.073,98.10073085069655 C225.073,102.83673085069657 222.001,105.39673085069657 217.521,105.39673085069657 zM258.466,131.82573085069657 H269.678 L279.816,103.71673085069659 H262.92 L258.466,131.82573085069657 zM288.622,101.95073085069657 C289.159,111.01273085069656 295.687,119.99873085069657 308.436,119.99873085069657 C323.719,119.99873085069657 328.711,108.86273085069655 328.711,89.58573085069656 C328.711,73.68773085069657 324.487,62.09073085069656 307.13,62.09073085069656 C295.073,62.09073085069656 287.316,69.38673085069655 287.316,80.98373085069656 C287.316,92.96473085069655 294.151,98.87873085069657 303.521,98.87873085069657 C307.975,98.87873085069657 311.585,97.0347308506966 313.428,94.27073085069657 C313.428,101.71973085069655 312.967,106.40473085069655 308.82,106.40473085069655 C306.286,106.40473085069655 305.057,104.86873085069655 304.519,101.95073085069657 H288.622 zM307.745,85.82273085069656 C305.057,85.82273085069656 303.214,84.28673085069656 303.214,81.44473085069657 C303.214,78.29573085069657 304.98,76.91373085069657 307.745,76.91373085069657 C310.51,76.91373085069657 312.276,78.29573085069657 312.276,81.44473085069657 C312.276,84.28673085069656 310.433,85.82273085069656 307.745,85.82273085069656 zM335.599,90.58373085069655 C335.599,107.47973085069657 342.357,119.15373085069658 358.639,119.15373085069658 C374.843,119.15373085069658 381.679,107.47973085069657 381.679,90.58373085069655 C381.679,73.76473085069657 374.843,62.09073085069656 358.639,62.09073085069656 C342.357,62.09073085069656 335.599,73.76473085069657 335.599,90.58373085069655 zM364.859,90.58373085069655 C364.859,97.64973085069656 364.168,103.02573085069656 358.639,103.02573085069656 C353.032,103.02573085069656 352.341,97.64973085069656 352.341,90.58373085069655 C352.341,83.59473085069655 353.032,78.21873085069657 358.639,78.21873085069657 C364.168,78.21873085069657 364.859,83.59473085069655 364.859,90.58373085069655 z" fill="white" id="svg_2" class=""/><path d="M54.325,17.143330850696564 L235.378,26.701530850696557 " stroke="#FF0C0C" stroke-width="2" id="svg_3" class=""/><path d="M302.56,140.14273085069655 L295.997,164.52273085069658 H292.348 L298.911,140.14273085069655 H302.56 zM304.6,161.46073085069656 V146.18773085069657 H308.637 V148.88273085069656 H308.816 C309.135,147.98773085069655 309.665,147.28173085069656 310.407,146.76473085069657 C311.15,146.24773085069657 312.038,145.98873085069656 313.072,145.98873085069656 C314.119,145.98873085069656 315.011,146.25073085069656 315.747,146.77473085069656 C316.483,147.29173085069655 316.973,147.99473085069656 317.218,148.88273085069656 H317.377 C317.689,148.00773085069656 318.252,147.30873085069658 319.068,146.7847308506966 C319.89,146.2547308506966 320.861,145.98873085069656 321.981,145.98873085069656 C323.406,145.98873085069656 324.563,146.44273085069656 325.451,147.35173085069655 C326.346,148.25273085069657 326.794,149.53173085069656 326.794,151.18973085069658 V161.46073085069656 H322.568 V152.02473085069656 C322.568,151.17573085069657 322.342,150.5397308506966 321.892,150.11573085069656 C321.441,149.69173085069656 320.877,149.47873085069656 320.201,149.47873085069656 C319.432,149.47873085069656 318.833,149.72473085069657 318.402,150.21473085069655 C317.971,150.69873085069656 317.755,151.33873085069655 317.755,152.13373085069657 V161.46073085069656 H313.649 V151.93473085069655 C313.649,151.18573085069656 313.433,150.58973085069655 313.002,150.14573085069657 C312.578,149.70173085069658 312.018,149.47873085069656 311.322,149.47873085069656 C310.851,149.47873085069656 310.427,149.59873085069657 310.049,149.83673085069657 C309.678,150.06873085069657 309.383,150.39773085069658 309.164,150.82173085069655 C308.946,151.23873085069658 308.836,151.72973085069657 308.836,152.29273085069656 V161.46073085069656 H304.6 zM337.1,161.75873085069657 C335.529,161.75873085069657 334.176,161.44073085069655 333.043,160.80473085069656 C331.916,160.16173085069656 331.048,159.25373085069657 330.438,158.07973085069656 C329.828,156.89973085069656 329.523,155.5047308506966 329.523,153.89373085069658 C329.523,152.32273085069656 329.828,150.94373085069657 330.438,149.75773085069656 C331.048,148.57073085069658 331.906,147.64673085069657 333.013,146.98373085069656 C334.127,146.32073085069658 335.433,145.98873085069656 336.931,145.98873085069656 C337.938,145.98873085069656 338.876,146.15173085069657 339.745,146.47673085069658 C340.62,146.7947308506966 341.382,147.27473085069656 342.032,147.91773085069656 C342.688,148.56073085069656 343.198,149.36973085069656 343.563,150.34473085069655 C343.927,151.31173085069656 344.11,152.44573085069658 344.11,153.74473085069656 V154.90773085069657 H331.213 V152.28273085069657 H340.123 C340.123,151.67373085069656 339.99,151.13273085069656 339.725,150.66273085069656 C339.46,150.19173085069656 339.092,149.82373085069656 338.621,149.55873085069658 C338.157,149.28673085069656 337.617,149.15073085069656 337,149.15073085069656 C336.357,149.15073085069656 335.787,149.2997308506966 335.29,149.59873085069657 C334.8,149.8897308506966 334.415,150.28473085069658 334.137,150.78173085069656 C333.858,151.27273085069658 333.716,151.81873085069657 333.709,152.42273085069655 V154.91773085069656 C333.709,155.67373085069656 333.848,156.32673085069658 334.127,156.87673085069656 C334.412,157.42673085069657 334.813,157.85173085069658 335.33,158.14973085069656 C335.847,158.44773085069656 336.46,158.59673085069656 337.169,158.59673085069656 C337.64,158.59673085069656 338.071,158.53073085069656 338.462,158.39873085069655 C338.853,158.26573085069657 339.188,158.06673085069656 339.466,157.80173085069657 C339.745,157.53673085069656 339.957,157.21173085069657 340.103,156.82673085069658 L344.02,157.08573085069656 C343.821,158.02673085069657 343.414,158.84873085069657 342.797,159.55173085069657 C342.187,160.24773085069657 341.399,160.79073085069658 340.431,161.18273085069657 C339.47,161.56673085069656 338.359,161.75873085069657 337.1,161.75873085069657 zM338.83,144.35873085069656 L336.831,141.93273085069657 L334.833,144.35873085069656 H331.223 V144.21973085069655 L335.25,139.84473085069655 H338.402 L342.439,144.21973085069655 V144.35873085069656 H338.83 zM359.581,150.54273085069656 L355.703,150.78173085069656 C355.637,150.45073085069657 355.495,150.15173085069657 355.276,149.88673085069655 C355.057,149.61473085069656 354.769,149.39973085069656 354.411,149.24073085069656 C354.06,149.0747308506966 353.639,148.99173085069657 353.148,148.99173085069657 C352.492,148.99173085069657 351.938,149.13073085069655 351.488,149.40973085069658 C351.037,149.68173085069657 350.811,150.04573085069657 350.811,150.50373085069657 C350.811,150.86773085069657 350.957,151.17573085069657 351.249,151.42773085069658 C351.541,151.67973085069656 352.041,151.88173085069656 352.75,152.0347308506966 L355.515,152.5917308506966 C356.999,152.89673085069657 358.106,153.38673085069655 358.836,154.06273085069657 C359.565,154.73873085069656 359.929,155.62773085069657 359.929,156.72773085069656 C359.929,157.72873085069656 359.634,158.60673085069655 359.044,159.36273085069655 C358.461,160.11873085069655 357.659,160.70873085069655 356.638,161.13273085069656 C355.624,161.54973085069656 354.454,161.75873085069657 353.128,161.75873085069657 C351.106,161.75873085069657 349.496,161.33773085069657 348.296,160.49673085069657 C347.103,159.64773085069658 346.403,158.49473085069656 346.198,157.03573085069655 L350.364,156.81773085069656 C350.49,157.43373085069658 350.795,157.90473085069655 351.279,158.22873085069656 C351.763,158.54773085069655 352.382,158.70673085069657 353.138,158.70673085069657 C353.881,158.70673085069657 354.477,158.56373085069657 354.928,158.27873085069658 C355.385,157.98773085069655 355.617,157.61273085069655 355.624,157.15573085069656 C355.617,156.77073085069657 355.455,156.45573085069657 355.137,156.21073085069656 C354.819,155.95873085069655 354.328,155.76673085069658 353.665,155.63373085069657 L351.02,155.10673085069655 C349.529,154.80873085069658 348.418,154.29173085069655 347.689,153.55573085069656 C346.967,152.81973085069657 346.605,151.88173085069656 346.605,150.74173085069657 C346.605,149.76073085069658 346.871,148.91573085069658 347.401,148.20673085069657 C347.938,147.49673085069657 348.69,146.95073085069657 349.658,146.56573085069655 C350.632,146.1817308506966 351.773,145.98873085069656 353.078,145.98873085069656 C355.007,145.98873085069656 356.525,146.39673085069657 357.632,147.21173085069657 C358.746,148.02773085069657 359.396,149.13773085069656 359.581,150.54273085069656 z" fill="white" id="svg_6" class=""/></g></svg>