<?xml version="1.0" encoding="UTF-8"?><svg xmlns="http://www.w3.org/2000/svg" viewBox="0 0 543.42 420.74"><defs><style>.d{fill:#fff;}.e{fill:#8c6265;}.f{fill:#e69772;}.g{fill:#ddf1ec;}.h{fill:#d06951;}.i{fill:#32333f;}.j{fill:#b7e0e0;}.k{fill:#8c8c8c;}.l{fill:#dc775c;}.m{fill:#d6dede;}.n{fill:#6ababa;}.o{fill:#c96b49;}.p{fill:#e58e76;}.q{fill:#75c6ca;}.r{fill:#1f233f;}.s{fill:#b5b5b5;}.t{fill:#b57f83;}</style></defs><g id="a"/><g id="b"><g id="c"><g><rect class="s" width="543.42" height="420.74"/><g><circle class="j" cx="244.59" cy="177.49" r="165.63"/><g><g><path class="d" d="M268.5,238.75s-46.17,56.03-62.5,54.57-27.52-28.77-27.52-28.77c0,0,.56-.3,1.51-.87,4.78-2.82,19.48-12.16,22.92-22.13,3.33-5.41,27.55-44.68,34.92-54.7,7.93-10.77,17.26-11.19,17.26-11.19,5.26,8.65,11.9,15.23,20.13,16.47,1.13,.17,2.23,.28,3.28,.33,.5,3.52,3.81,21.48,19.94,30.67,0,0,.62-12.51,8.89-13.62,0,0,8.76-4.8,15.99,2.22,0,0,11.46-12.3,0-46.84l-8.18-7.4h0l-3.75-8.93s41.85-2.09,51.53,6.88c9.68,8.96,71.6,90.9,71.6,90.9l-90.07,69.93s-54.61-54.16-75.94-77.52Z"/><path class="g" d="M323.32,164.89c11.46,34.54,0,46.84,0,46.84-7.23-7.02-15.99-2.22-15.99-2.22l11.68-42.82-3.87-9.2,8.18,7.4Z"/><path class="g" d="M295.22,201.52l12.11,7.99c-8.27,1.11-8.89,13.62-8.89,13.62-16.13-9.19-19.44-27.15-19.94-30.67,1.02,.05,2.01,.04,2.95-.02l13.77,9.08Z"/><path class="i" d="M268.22,238.3c-5.04-6.22-10.08-12.44-15.11-18.65-.41-.5-1.11,.21-.71,.71,5.04,6.22,10.08,12.44,15.11,18.65,.41,.5,1.11-.21,.71-.71Z"/><path class="i" d="M263.81,239.52c-3.57-1.53-7.13-3.06-10.7-4.59-.59-.25-1.1,.61-.5,.86,3.57,1.53,7.13,3.06,10.7,4.59,.58,.25,1.09-.61,.5-.86Z"/><path class="i" d="M343.42,268.05c-4.53-7.5-9.07-15-13.6-22.5-4.51-7.47-9.03-14.93-13.54-22.4-2.56-4.23-5.12-8.46-7.67-12.69-.33-.55-1.2-.05-.86,.5,4.53,7.5,9.07,15,13.6,22.5,4.51,7.47,9.03,14.93,13.54,22.4,2.56,4.23,5.12,8.46,7.67,12.69,.33,.55,1.2,.05,.86-.5Z"/></g><g><path class="f" d="M203.64,237.86c-.05,1.23-.3,2.46-.73,3.69-3.44,9.97-18.14,19.31-22.92,22.13l-1.51-5.53s-7.75,1.74-13.42-3.17c-.15,.29-.39,.55-.67,.73-.8,.49-1.81,.49-2.75,.41-4.25-.38-8.39-2.01-11.76-4.64-1.99-1.55-3.78-3.56-4.33-6.02-.53-2.33,.36-5.1,2.43-6.24-.08-.37-.13-.75-.15-1.13-.09-2.17,1.05-4.25,2.6-5.77,1.43-1.42,3.2-2.43,4.97-3.39,.02-.09,.04-.17,.06-.25,.43-1.54,1.53-2.82,2.81-3.77,1.16-.86,2.48-1.48,3.8-2.08-6.41-3.3-12.56-6.96-11.94-8.6,1.25-3.33,14.38-2.15,27.66,2.5,13.27,4.66,17.61,11.6,17.61,11.6,4.13-1.83,8.65-1.47,8.24,9.53Z"/><path class="i" d="M198.77,239.73c-3.09,1.33-6.19,2.66-9.28,3.98-1.57,.67-3.13,1.34-4.7,2.02-1.29,.55-2.86,1.45-4.3,1.01-1.56-.48-1.57-2.22-.98-3.47,.6-1.25,1.53-2.39,2.39-3.46,1.7-2.12,3.62-4.06,5.72-5.79,2.43-2,5.11-3.7,7.95-5.07,.58-.28,.07-1.14-.5-.86-5.49,2.64-10.37,6.54-14.13,11.33-1.47,1.87-4.24,5.17-2.03,7.51,1.01,1.07,2.62,1.07,3.93,.67,1.62-.5,3.19-1.31,4.75-1.98,3.9-1.67,7.79-3.34,11.69-5.02,.59-.25,.08-1.11-.5-.86Z"/><path class="i" d="M174.38,229.75c-3.88-2.32-7.76-4.63-11.64-6.95-.55-.33-1.06,.53-.5,.86l11.64,6.95c.55,.33,1.06-.53,.5-.86Z"/><path class="i" d="M176.19,248.48c-.11-.95-.53-1.82-.9-2.69-.4-.96-.8-1.91-1.2-2.87-1.84-4.39-3.67-8.79-5.51-13.18-.24-.59-1.21-.33-.96,.27,1.48,3.55,2.97,7.11,4.45,10.66,.75,1.8,1.5,3.59,2.25,5.39,.46,1.09,1.86,3.96-.17,4.42-1.42,.32-3.07-1.09-4.15-1.85-1.24-.87-2.43-1.83-3.55-2.86-2.22-2.04-4.19-4.35-5.85-6.87-1.87-2.85-3.34-5.95-4.35-9.21-.19-.61-1.15-.35-.96,.27,1.95,6.31,5.59,12.06,10.46,16.53,1.18,1.08,2.44,2.09,3.75,3.02,1.24,.88,2.74,2.04,4.34,2.02,1.63-.03,2.51-1.53,2.34-3.03Z"/><path class="i" d="M167.79,249.01c-.38-.51-1.25,0-.86,.5,.68,.9,.74,2.12-.05,2.97-.79,.85-1.96,.86-2.96,.41-1.03-.45-1.92-1.21-2.8-1.9-.91-.72-1.81-1.45-2.68-2.21-3.48-3-6.68-6.32-9.57-9.9-.4-.5-1.11,.21-.71,.71,2.65,3.29,5.57,6.35,8.73,9.16,1.54,1.37,3.13,2.68,4.78,3.91,1.45,1.08,3.34,2.12,5.12,1.14,1.73-.95,2.19-3.24,1.01-4.8Z"/></g><g><path class="f" d="M319.01,166.69l-11.68,42.82-12.11-7.99c12.46-17.7,10.03-38.72,10.03-38.72,0,0-1.94,28.31-23.8,29.64-.94,.06-1.93,.07-2.95,.02-1.05-.05-2.15-.16-3.28-.33-8.23-1.24-14.87-7.82-20.13-16.47-10.45-17.18-15.5-42.48-16.87-50.25,12.31-1.61,24.27-6.78,35.95-11.44,3.61-1.44,7.42-2.87,11.29-2.44,3.96,.43,7.51,2.79,10.17,5.76,2.33,2.61,4.07,5.67,5.71,8.76,.46-2.82,2.37-11.28,8.77-8.84,.74,.28,1.4,.73,1.97,1.3,5.31,5.36,3.36,22-2.66,25.39l1.96,4.66,3.75,8.92h0l3.87,9.21Z"/><path class="i" d="M305.25,162.8s2.43,21.02-10.03,38.72l-13.77-9.08c21.86-1.33,23.8-29.64,23.8-29.64Z"/><path class="i" d="M311,103.39c-.59-3.76-1.51-7.67-4.02-10.53-2.25-2.55-6.14-3.91-9.19-2.65,.87-3.36,.45-7.03-1.27-10.06-1.78-3.13-4.83-5.49-8.32-6.4-8.48-2.21-16.22,3.37-23.11,7.45-3.68,2.18-7.52,3.92-11.7,4.91-4.07,.96-8.29,1.25-12.45,.85-2.11-.2-4.2-.6-6.25-1.15-2.05-.55-4.09-1.18-6.21-1.35-3.53-.28-7.12,1.06-8.54,4.51-1.32,3.21-.64,6.96,.64,10.07,.9,2.18,2.19,4.2,3.76,5.95-3.84-.4-7.91,1.57-9.83,4.94-2.18,3.82-1.41,9.08,1.77,12.12,2.75,2.63,6.73,3.47,10.52,3.75,3.84,.29,7.64,.12,11.41-.38,12.31-1.61,24.27-6.78,35.95-11.44,3.61-1.44,7.42-2.87,11.29-2.44,3.96,.43,7.51,2.79,10.17,5.76,2.33,2.61,4.07,5.67,5.71,8.76,.46-2.82,2.37-11.28,8.77-8.84,.74,.28,1.4,.73,1.97,1.3,.07-5.05-.29-10.12-1.08-15.12Zm-21.23-24.53c-4.78-1.72-10.14-.6-14.8,1.42-4.66,2.01-8.92,4.87-13.6,6.82-8.55,3.54-18.39,3.85-27.13,.84-3.24-1.12-6.78-2.68-9.93-1.34-2.44,1.04-3.8,3.6-4.06,6.29,0-.6,.03-1.21,.13-1.8,.27-1.6,.98-3.13,2.25-4.17,1.38-1.13,3.24-1.52,4.98-1.5,2.06,.01,4.06,.6,6.04,1.14,1.92,.53,3.85,.97,5.83,1.23,7.67,1.02,15.6-.28,22.52-3.74,7.1-3.55,13.59-9.49,21.9-9.75,3.72-.12,7.3,1.18,9.9,3.88,2.62,2.72,3.84,6.56,3.33,10.3-.02,.13-.05,.25-.08,.38,.19-4.26-3.14-8.49-7.29-9.99Z"/><path class="d" d="M289.96,163.14s5.56,10.16-2.92,16.06c-8.48,5.91-14.46-2.48-14.46-2.48l17.38-13.58Z"/><path class="l" d="M261.05,144.73l11.53,22.94s-9.38,5.28-11.53,2.22c-2.16-3.06,0-25.16,0-25.16Z"/><path class="i" d="M256.81,149.91c.88,2.99-.08,5.92-2.16,6.53-2.08,.61-4.48-1.31-5.37-4.31-.88-2.99,.08-5.92,2.16-6.53,2.08-.61,4.48,1.31,5.37,4.31Z"/><path class="i" d="M281.14,141.7c.88,2.99-.08,5.92-2.16,6.53s-4.48-1.31-5.37-4.31c-.88-2.99,.08-5.92,2.16-6.53,2.08-.61,4.48,1.31,5.37,4.31Z"/><path class="i" d="M251.75,137.8c-1.89,.45-3.72,1.19-5.43,2.14-.92,.51-1.23,1.89-.64,2.76,.64,.93,1.77,1.19,2.76,.64,.42-.23,.86-.44,1.29-.65,1.02-.44,2.07-.79,3.15-1.05,1.02-.24,1.69-1.5,1.35-2.48-.37-1.07-1.39-1.61-2.48-1.35Z"/><path class="i" d="M280.25,131.07c-.42-.36-.86-.49-1.41-.54-2.42-.23-4.95,.14-7.2,1.06-.51,.21-.92,.47-1.19,.96-.23,.43-.32,1.05-.16,1.52,.32,.94,1.45,1.78,2.48,1.35,.93-.38,1.9-.65,2.89-.82,1.08-.14,2.17-.18,3.25-.07,.48,.05,1.1-.29,1.42-.63,.33-.35,.57-.92,.54-1.41-.03-.52-.22-1.07-.63-1.42Z"/><path class="i" d="M297.53,73.39c-.25-.59-1.12-.08-.86,.5,1.86,4.31,2.78,8.97,2.73,13.65,0,.64,.99,.64,1,0,.05-4.87-.94-9.69-2.87-14.16Z"/><path class="i" d="M302.11,82.01c-.43,1.76-.85,3.52-1.28,5.27-.15,.63,.81,.89,.96,.27,.43-1.76,.85-3.52,1.28-5.27,.15-.63-.81-.89-.96-.27Z"/></g></g><g><g><polygon class="k" points="295.31 378.18 295.31 384.57 206.09 384.57 138.08 347.6 138.08 341.85 207.39 378.18 295.31 378.18"/><polygon class="s" points="295.31 378.18 207.39 378.18 138.08 341.85 226 341.85 295.31 378.18"/><polygon class="k" points="216.69 375.38 205.87 375.38 197.33 370.91 208.16 370.91 216.69 375.38"/><polygon class="k" points="205.25 369.41 194.43 369.41 185.89 364.93 196.72 364.93 205.25 369.41"/><polygon class="k" points="195.57 363.66 184.74 363.66 176.21 359.19 187.04 359.19 195.57 363.66"/><polygon class="k" points="184.13 357.68 173.3 357.68 164.77 353.21 175.59 353.21 184.13 357.68"/><polygon class="k" points="229.76 374.51 218.93 374.51 210.4 370.04 221.23 370.04 229.76 374.51"/><polygon class="k" points="220.08 368.77 209.25 368.77 200.72 364.3 211.54 364.3 220.08 368.77"/><polygon class="k" points="208.64 362.79 197.81 362.79 189.28 358.32 200.1 358.32 208.64 362.79"/><polygon class="k" points="232.12 367.71 221.3 367.71 212.76 363.23 223.59 363.23 232.12 367.71"/><polygon class="k" points="222.44 361.96 211.62 361.96 203.08 357.49 213.91 357.49 222.44 361.96"/><polygon class="k" points="211 355.98 200.17 355.98 191.64 351.51 202.47 351.51 211 355.98"/><polygon class="k" points="272.01 375.92 261.18 375.92 252.64 371.45 263.47 371.45 272.01 375.92"/><polygon class="k" points="260.57 369.95 249.74 369.95 241.2 365.47 252.03 365.47 260.57 369.95"/><polygon class="k" points="250.88 364.2 240.06 364.2 231.52 359.73 242.35 359.73 250.88 364.2"/><polygon class="k" points="239.44 358.23 228.62 358.23 220.08 353.75 230.91 353.75 239.44 358.23"/><polygon class="k" points="285.07 375.06 274.25 375.06 265.71 370.58 276.54 370.58 285.07 375.06"/><polygon class="k" points="275.39 369.31 264.57 369.31 256.03 364.84 266.86 364.84 275.39 369.31"/><polygon class="k" points="263.95 363.33 253.12 363.33 244.59 358.86 255.42 358.86 263.95 363.33"/></g><g><polygon class="m" points="351.48 408.88 263.56 408.88 218.67 385.3 306.59 385.3 351.48 408.88"/><polygon class="q" points="290.5 406.05 264.92 406.05 251.85 399.19 277.44 399.19 290.5 406.05"/><path class="s" d="M298.49,405.62c-.16,0-.32-.04-.46-.11l-30.34-15.94c-.49-.26-.68-.86-.42-1.35,.26-.49,.86-.67,1.35-.42l30.34,15.94c.49,.26,.68,.86,.42,1.35-.18,.34-.53,.54-.89,.54Z"/><path class="s" d="M308.7,405.03c-.16,0-.32-.04-.46-.11l-30.34-15.94c-.49-.26-.68-.86-.42-1.35,.26-.49,.86-.67,1.35-.42l30.34,15.94c.49,.26,.68,.86,.42,1.35-.18,.34-.53,.54-.89,.54Z"/><path class="s" d="M322.58,405.91c-.16,0-.32-.04-.46-.11l-30.34-15.94c-.49-.26-.68-.86-.42-1.35,.26-.49,.86-.67,1.35-.42l30.34,15.94c.49,.26,.68,.86,.42,1.35-.18,.34-.53,.54-.89,.54Z"/><path class="s" d="M332.78,405.33c-.16,0-.32-.04-.46-.11l-30.34-15.94c-.49-.26-.68-.86-.42-1.35,.26-.49,.86-.67,1.35-.42l30.34,15.94c.49,.26,.68,.86,.42,1.35-.18,.34-.53,.54-.89,.54Z"/></g></g><g><path class="j" d="M424.46,140.01l17.11-8.91c6.82,1.79,14.23,1.69,21.44-.69,19.88-6.57,30.67-28.01,24.1-47.89-6.57-19.88-28.01-30.67-47.89-24.1-19.87,6.56-30.66,28.01-24.09,47.89,1.9,5.75,5.05,10.75,9.05,14.78l.29,18.93Z"/><g><polygon class="k" points="461.8 120.72 461.8 123.2 459.66 123.2 445.21 123.2 442.99 123.2 442.99 116.11 461.8 120.72"/><path class="s" d="M445.21,123.2h14.45s-.34,2.99-7.27,2.99-7.18-2.99-7.18-2.99Z"/><polygon class="s" points="461.8 113.97 461.8 120.72 442.99 116.11 442.99 113.97 444.33 113.97 460.87 113.97 461.8 113.97"/><path class="q" d="M474.79,84.22c0,8.17-4.42,15.32-11.01,19.17l-2.91,10.58h-16.54l-2.9-10.58c-6.59-3.85-11.02-11-11.02-19.17,0-12.25,9.94-22.18,22.19-22.18s22.18,9.93,22.18,22.18Z"/><path class="d" d="M443.7,89.36c-.08-.53-.89-.3-.81,.22,1.24,7.95,2.48,15.9,3.72,23.85,.08,.53,.89,.3,.81-.22-1.24-7.95-2.48-15.9-3.72-23.85Z"/><path class="d" d="M461.29,88.55c-1.34,8.37-2.68,16.74-4.01,25.1-.08,.53,.72,.75,.81,.22,1.34-8.37,2.68-16.74,4.01-25.1,.08-.53-.72-.75-.81-.22Z"/><path class="d" d="M463.55,94.6c-.63,1.73-2.57,2.9-4.39,2.55-1.54-.3-2.72-1.44-3.53-2.76,.75-1.08,1.29-2.34,1.57-3.51,.3-1.23,.38-2.51,.2-3.77-.13-.96-.58-2.18-1.69-2.32-1.29-.17-1.95,1.12-2.16,2.19-.27,1.37-.27,2.79-.02,4.16,.19,1.06,.55,2.15,1.07,3.16-.11,.14-.22,.27-.34,.4-.72,.78-1.62,1.51-2.73,1.57-1.05,.06-1.79-.6-2.33-1.42,.56-.8,.94-1.75,1.14-2.69,.29-1.39,.42-2.93,.32-4.34-.07-1.1-.83-2.39-2.12-2.02-1.33,.38-1.55,2-1.64,3.16-.1,1.33,.07,2.69,.47,3.96,.2,.63,.47,1.3,.82,1.92-.54,.63-1.25,1.09-2.16,1.24-2.51,.42-3.46-2.15-3.95-4.11-.13-.52-.94-.3-.81,.22,.54,2.17,1.6,4.77,4.24,4.76,1.27,0,2.32-.56,3.11-1.4,.2,.28,.42,.53,.67,.75,.96,.86,2.26,1.01,3.45,.53,.88-.36,1.65-.97,2.3-1.72,.77,1.17,1.81,2.14,3.13,2.64,2.46,.93,5.27-.48,6.15-2.92,.18-.51-.62-.72-.81-.22Zm-15.73-6.25c.08-.53,.18-1.17,.6-1.55,.51-.46,1.09-.16,1.31,.41,.21,.53,.12,1.17,.11,1.72-.02,.59-.04,1.18-.1,1.76-.11,1.1-.4,2.34-.98,3.35-.88-1.74-1.22-3.76-.94-5.69Zm7.27,5.03c-.9-1.99-1.19-4.39-.66-6.53,.12-.48,.35-1.06,.87-1.22,.51-.16,.86,.28,1.04,.7,.38,.86,.36,1.95,.28,2.87-.12,1.52-.64,3.03-1.47,4.32-.02-.05-.05-.1-.07-.14Z"/></g></g><g><path class="d" d="M210.46,145.62l-17.8,2.76c-4.15,5.12-9.78,9.14-16.51,11.33-18.59,6.05-38.57-4.11-44.62-22.7-6.05-18.59,4.11-38.57,22.7-44.62,18.58-6.05,38.56,4.11,44.61,22.7,1.75,5.38,2.14,10.88,1.37,16.12l10.25,14.4Z"/><polygon class="q" points="193.31 114.69 160.17 147.84 142.15 129.81 150.88 121.07 160.17 130.35 184.57 105.95 193.31 114.69"/></g><g><g><path class="f" d="M400.56,224.41l-22.58,25.34-5.77,15.57-1.18-14.6-2.37-17.79,.24-3.29,1.35-18.59c-3.75,.35-7.4,.25-10.83-.37-13.5-2.4-23.8-12.71-25.09-35.02-.79-13.59,.89-23.83,3.16-31.21,3.33-10.84,7.96-15.49,7.96-15.49,0,0,16.89,28.29,39.27,31.42,0,0,4.1-9.67,10.49-6.82,6.4,2.85,6.4,22.09-3.74,24.61-1.33,13.31,.61,26.95,5.61,39.36,.96,2.37,2.07,4.75,3.48,6.88Z"/><circle class="l" cx="378.48" cy="177.49" r="9.05"/><path class="i" d="M381.52,208.82l-11.98,11.96,.71-9.73c3.68-.33,7.47-1.1,11.27-2.23Z"/><path class="i" d="M369.54,220.78l-.64,8.86s-12.98,5.82-18.93,19.57c-1.29-4.18-1.15-8.75-.22-13.04,1.05-4.8,3.03-9.33,5.03-13.8,1.71-3.83,3.45-7.68,4.64-11.69,3.43,.62,7.08,.72,10.83,.37l-.71,9.73Z"/><path class="l" d="M348.09,164.68l5.15,21.69s-8.97,2.71-10.15,.55c-1.18-2.15,5-22.24,5-22.24Z"/><path class="i" d="M474.31,229.14c-2.68-10.97-9.19-20.46-16.6-28.79-6-6.74-12.67-12.84-19-19.27-1.98-3.23-3.84-6.53-5.49-9.95-6.2-12.79-9.45-26.86-15.83-39.55-6.39-12.7-17.1-24.52-31.14-26.71-20.62-3.22-40.3,15.06-60.81,11.21-.81,10.43,3.49,21.15,11.29,28.13l.77,.24c2.86-9.3,6.66-14.03,7.69-15.19,1.23,6.14,5.5,11.19,9.72,15.65,4.93,5.22,10.49,10.07,17.23,12.76,2.91,1.16,6,1.88,9.13,2.01,1.14,.29,2.29,.54,3.46,.7,0,0,4.1-9.67,10.49-6.82,6.4,2.85,6.4,22.09-3.74,24.61-1.33,13.31,.61,26.95,5.61,39.36,.96,2.37,2.07,4.75,3.48,6.88,.87,1.33,1.86,2.56,3.01,3.64h0c.41,.39,.84,.76,1.3,1.11,8.79,6.71,21.74,2.69,32.09,6.58,9.58,3.6,15.52,13.68,17.08,23.8,1.57,10.12-.47,20.41-2.49,30.45l.18,.06c.2-.6,.39-1.21,.58-1.81,13.43-4.76,21.39-19.32,22.03-33.65,1.93-8.34,2-17.13-.04-25.45Zm-109.83-76.9c-2.81-2.05-5.38-4.42-7.8-6.91-2.37-2.44-4.71-4.96-6.66-7.76-1.47-2.11-2.71-4.4-3.45-6.85,3.45,5.22,14.68,20.81,29.5,27.19-4.17-1.07-8.1-3.12-11.59-5.66Zm109.79,97.32c-.97-14.49-7.98-28.01-16.07-40.14-5.51-8.25-11.6-16.16-17.02-24.46,3.85,3.81,7.77,7.57,11.53,11.47,7.94,8.24,15.46,17.44,19.28,28.38,2.76,7.91,3.45,16.47,2.28,24.75Z"/><path class="i" d="M344.32,164.87c0,3.12-1.76,5.65-3.93,5.65s-3.93-2.53-3.93-5.65,1.76-5.65,3.93-5.65,3.93,2.53,3.93,5.65Z"/><path class="i" d="M364.67,164.06c0,3.12-1.76,5.65-3.93,5.65s-3.93-2.53-3.93-5.65,1.76-5.65,3.93-5.65,3.93,2.53,3.93,5.65Z"/><path class="i" d="M342.9,151.82c-1.95-.1-3.91,.09-5.81,.51-1.02,.23-1.72,1.47-1.4,2.46,.35,1.07,1.36,1.64,2.46,1.4,.47-.1,.95-.18,1.42-.25,1.1-.13,2.21-.17,3.32-.11,1.05,.06,2.05-.96,2-2-.05-1.13-.88-1.94-2-2Z"/><path class="i" d="M366.83,153.61c-.3-.47-.69-.71-1.2-.92-2.26-.91-4.79-1.27-7.21-1.02-.54,.06-1.01,.19-1.41,.59-.35,.35-.61,.92-.59,1.41,.04,.99,.89,2.11,2,2,1-.1,2-.08,3,.03,1.08,.17,2.13,.44,3.14,.85,.45,.18,1.14,.03,1.54-.2,.41-.24,.81-.72,.92-1.2,.12-.51,.09-1.09-.2-1.54Z"/><path class="o" d="M368.35,193.71c1.45,3.58,.09,7.51-3.04,8.78-3.13,1.27-6.84-.61-8.29-4.19s-.09-7.51,3.04-8.78c3.13-1.27,6.85,.61,8.29,4.19Z"/><path class="d" d="M369.43,188.73s2.99,8.55-5.63,11.4c-7.02,2.32-9.97-2.29-10.76-3.87l16.39-7.53Z"/></g><g><path class="q" d="M451.55,289.99l.18,.06c-2.78,8.63-5.94,17.29-9.13,25.46h0c-9.86,25.25-20.02,45.84-20.33,46.45-9.74-13.45-27.88-22.38-33.77-25.03-1.21-.54-1.9-.82-1.9-.82l-3.71,11.12c.31,.29,.63,.58,.93,.86l-33.63,4.48v-13.86s-.83-1.8-2.06-4.66c-1.68-3.9-4.11-9.78-6.14-15.7-2.23-6.5-3.98-13.05-3.77-17.08,.56-10.38,23.3-50.41,23.3-50.41,.03,5.77,1.31,10.43,1.31,10.43,.1-.62,.33-1.28,.67-1.95,.1,.43,3.32,13.71,9.33,23.77l12.8-21.82c.53,1.37,1.05,2.9,1.52,4.58,0,0,14.2-22.96,16.42-37.81,.41,.38,.84,.75,1.3,1.1,8.79,6.71,21.74,2.69,32.09,6.58,9.58,3.6,15.52,13.68,17.08,23.8,1.57,10.12-.47,20.41-2.49,30.45Z"/><path class="q" d="M442.6,315.52l5.99,52.65h-26.98l2.24-3.89c-.49-.79-1.02-1.56-1.58-2.32,.31-.61,10.47-21.2,20.33-46.44Z"/><path class="n" d="M422.27,361.96c.56,.76,1.09,1.53,1.58,2.32l-2.24,3.89-11.29,19.65s-3.97-18.67-26.5-39.73c-.3-.28-.62-.57-.93-.86l3.71-11.12s.69,.28,1.9,.82c5.89,2.65,24.03,11.58,33.77,25.03Z"/><path class="f" d="M410.32,387.82s-25.83,.46-98.04-3.71c0,0-16.87,11.68-23.72,10.94-6.86-.74-20.39-13.44-23.73-18.72-3.33-5.28,5.38-13.16,5.38-13.16,0,0,.09-3.98,5.56-6.3,2.44-1.03,9.13-.89,15.81-.42,8.32,.6,16.62,1.72,16.62,1.72l20.09-2.68,21.9-2.92,33.63-4.48c22.53,21.06,26.5,39.73,26.5,39.73Z"/><path class="d" d="M403.57,228.05h0c-2.22,14.86-16.42,37.82-16.42,37.82-.47-1.68-.99-3.21-1.52-4.58-3.43-8.88-7.65-11.54-7.65-11.54l22.58-25.34c.87,1.33,1.86,2.56,3.01,3.64Z"/><path class="g" d="M385.63,261.29l-12.8,21.82c-6.01-10.06-9.23-23.34-9.33-23.77h0c2.01-4.07,7.53-8.62,7.53-8.62l1.18,14.6,5.77-15.57s4.22,2.66,7.65,11.54Z"/><path class="d" d="M361.48,313.97h15.6l.62,31.96h-23.07l-.47-31.96h7.32Zm10.72,18.08v-15.01h-12.54v15.01h12.54Z"/><rect class="q" x="359.66" y="317.04" width="12.54" height="15.01"/><path class="d" d="M368.66,232.93l2.37,17.79s-5.52,4.55-7.53,8.61h0c-.34,.68-.57,1.34-.67,1.96,0,0-1.28-4.66-1.31-10.43-.03-6.13,1.34-13.53,7.14-17.93Z"/><polygon class="s" points="365.5 309.1 369.35 313.97 361.48 313.97 365.5 309.1"/><path class="q" d="M349.97,249.21c5.95-13.75,18.93-19.57,18.93-19.57l-.24,3.29c-5.8,4.4-7.17,11.8-7.14,17.93,0,0-22.74,40.03-23.3,50.41-.21,4.03,1.54,10.58,3.77,17.08l-1.36,.34-9.76-4.74,.31-.63s12.42-44.02,17.42-60.42c.39-1.29,.85-2.52,1.37-3.69Z"/><path class="f" d="M350.19,338.71v13.86l-21.9,2.92-66.65-.14c-11.28,4.85-17.11,5.11-21.47,2.94-1.78,.12-8.46,.86-10.24,.97-.17,1.92-.76,3.63-2.35,3.63-3.61,0-7.64-8.06-7.64-8.06,0,0-1.11,8.06-4.73,6.12-3.61-1.95-2.64-12.98-2.64-12.98,0,0-8.2,8.04-9.31,5.01-1.11-3.04,4.31-17.47,17.79-18.72s43.92,4.17,43.92,4.17l60.37-10.1,22.79,5.72c1.23,2.86,2.06,4.66,2.06,4.66Z"/><path class="n" d="M348.13,334.05l-22.79-5.72c-1.4-11.21,2.32-15.94,2.32-15.94l3.21,1.56,11.12,4.4h0c2.03,5.92,4.46,11.8,6.14,15.7Z"/><g><path class="h" d="M302.26,333.94c1.43,.98,1.82,2.94,.95,4.44-7.05-.91-8.73-4.12-8.73-4.12,.58-.98,1.73-2.14,2.86-2.2,1.38-.06,3.18,.69,4.92,1.88Z"/><path class="p" d="M303.21,338.38l-4.26,7.35c-5.61-.81-8.61-4.52-8.61-4.52l4.14-6.95s1.68,3.21,8.73,4.12Z"/><path class="q" d="M298.95,345.73l-6.64,11.46-11.34-.24,9.37-15.74s3,3.71,8.61,4.52Z"/></g><path class="i" d="M408.2,266.8c-2.74,8.64-5.49,17.28-8.23,25.93-2.73,8.6-5.46,17.21-8.2,25.81-1.55,4.88-3.1,9.75-4.65,14.63-.2,.61,.77,.88,.96,.27,2.74-8.64,5.49-17.28,8.23-25.93,2.73-8.6,5.46-17.21,8.2-25.81,1.55-4.88,3.1-9.75,4.65-14.63,.2-.61-.77-.88-.96-.27Z"/><path class="i" d="M442.1,316.94c-5.75,11.43-11.03,23.1-15.83,34.96-1.35,3.35-2.67,6.71-3.94,10.08-.23,.6,.74,.86,.96,.27,4.49-11.89,9.47-23.6,14.92-35.08,1.55-3.26,3.13-6.5,4.75-9.73,.29-.57-.57-1.08-.86-.5Z"/><path class="i" d="M360.16,252.02c-4.76,8.82-9.63,17.58-14.24,26.47-4.17,8.02-7.84,16.62-7.81,25.82,.02,4.78,1.06,9.56,3.43,13.74,.32,.56,1.18,.06,.86-.5-4.32-7.6-3.93-16.86-1.44-24.99,1.34-4.39,3.26-8.56,5.35-12.64,2.18-4.26,4.5-8.44,6.77-12.65,2.65-4.91,5.3-9.83,7.95-14.74,.31-.57-.56-1.07-.86-.5Z"/><path class="i" d="M385.58,262.46c-5.4,12.22-10.81,24.44-16.21,36.66-1.32,2.98-2.63,5.96-3.95,8.93-2.02-12.18-2.89-24.55-2.55-36.89,.1-3.66,.31-7.32,.61-10.98,.05-.64-.95-.64-1,0-1.09,12.99-.87,26.08,.66,39.02,.42,3.54,.94,7.07,1.55,10.58,0,.09,.02,.18,.06,.25,.05,.16,.17,.25,.31,.28,.2,.08,.43,.04,.54-.22v-.02s.07-.1,.08-.16c5.38-12.16,10.75-24.32,16.13-36.48,1.54-3.49,3.09-6.98,4.63-10.48,.26-.58-.6-1.09-.86-.5Z"/><path class="i" d="M349.48,352.81c-7.09,.69-14.18,1.39-21.27,2.08-.63,.06-.64,1.06,0,1,7.09-.69,14.18-1.39,21.27-2.08,.63-.06,.64-1.06,0-1Z"/><path class="i" d="M250.6,354.67c-5.96,1.89-12.12,3.14-18.35,3.7-.71,.06-1.43,.12-2.15,.16-.6,.04-1.22,.11-1.82-.01-.46-.09-.97-.31-.93-.86,.04-.68,.91-1.32,1.36-1.75,2.05-1.94,4.25-3.73,6.58-5.33,2.63-1.81,5.42-3.39,8.32-4.72,.58-.27,.08-1.13-.5-.86-5.65,2.6-10.85,6.13-15.34,10.43-.84,.81-1.94,2-1.14,3.22,.58,.87,1.81,.97,2.76,.93,3.38-.14,6.77-.58,10.11-1.16,3.85-.67,7.65-1.6,11.37-2.78,.61-.19,.35-1.16-.27-.96Z"/><path class="i" d="M220.45,354.71c-1.32-4.42-1.33-9.11-.05-13.54,.18-.62-.78-.88-.96-.27-1.33,4.59-1.32,9.49,.05,14.07,.18,.62,1.15,.35,.96-.27Z"/><path class="i" d="M216.69,339.55c-.26-.15-.52-.03-.68,.18-1.86,2.43-3.13,5.29-3.69,8.3-.12,.63,.85,.9,.96,.27,.55-2.94,1.77-5.69,3.59-8.07,.17-.22,.03-.56-.18-.68Z"/><path class="i" d="M370.62,250.69c-2.89,2.86-5.6,5.89-8.12,9.08-.39,.5,.31,1.21,.71,.71,2.52-3.19,5.23-6.22,8.12-9.08,.46-.45-.25-1.16-.71-.71Z"/><path class="i" d="M387.31,264.84c-1.7-5.71-4.64-10.98-8.61-15.43-.43-.48-1.13,.23-.71,.71,3.85,4.31,6.71,9.44,8.35,14.98,.18,.62,1.15,.35,.96-.27Z"/><path class="i" d="M373.01,266.16c-.03-.64-1.03-.64-1,0,.19,4.43,.38,8.87,.57,13.3,.03,.64,1.03,.64,1,0-.19-4.43-.38-8.87-.57-13.3Z"/><path class="i" d="M376.63,268.71c-.28-.57-1.02-.88-1.61-.65-.18,.07-.34,.18-.48,.31-.02,.01-.04,.02-.05,.04-.03,.03-.04,.08-.07,.11-.05,.06-.11,.1-.14,.17-.02,.04-.02,.08-.03,.11-.01,.03-.02,.07-.03,.1-.04,.12-.07,.25-.07,.37,0,.01,0,.03,0,.04,0,.04,.02,.07,.02,.1,0,.08,0,.16,.02,.24,0,.03,.03,.06,.04,.09,.02,.06,.05,.11,.08,.17,.05,.09,.09,.17,.16,.25,.01,.02,.02,.04,.03,.06,.03,.04,.08,.06,.12,.09,.05,.04,.09,.1,.14,.13,.02,.01,.05,.01,.07,.03,.06,.03,.13,.05,.2,.07,.08,.03,.16,.06,.25,.07,.32,.05,.65-.01,.9-.2,.26-.19,.46-.45,.55-.77,.09-.32,.05-.65-.09-.95Z"/></g></g><g><polygon class="e" points="121.58 357.22 118.61 381.7 169.76 378.55 169.76 388.75 95.26 397.09 75.06 381.7 98.1 327.17 106.38 307.57 126.95 312.95 124.37 334.26 121.58 357.22"/><polygon class="e" points="148.91 172.19 183.48 352.33 168.65 352.33 133.9 172.19 148.91 172.19"/><polygon class="t" points="169.76 378.55 118.61 381.7 121.58 357.22 169.76 378.55"/><polygon class="t" points="133.9 172.19 168.65 352.33 124.37 334.26 126.95 312.95 106.38 307.57 98.1 327.17 94.43 325.61 54.39 172.19 133.9 172.19"/><path class="r" d="M161.35,312.3c-1.92-11.28-3.89-22.55-5.9-33.81-2.03-11.32-4.11-22.62-6.24-33.92-2.12-11.24-4.29-22.47-6.51-33.7s-4.49-22.44-6.81-33.64c-.29-1.4-.58-2.8-.87-4.2-.13-.63-1.1-.36-.96,.27,2.33,11.2,4.61,22.41,6.85,33.63,2.23,11.22,4.41,22.45,6.55,33.69,2.14,11.3,4.23,22.6,6.27,33.92,2.03,11.26,4.01,22.53,5.94,33.8,1.93,11.28,3.81,22.56,5.64,33.85,.23,1.41,.46,2.82,.68,4.24,.1,.63,1.07,.36,.96-.27-1.82-11.29-3.68-22.58-5.6-33.86Z"/><path class="r" d="M120.77,312.52c-3.04,10.84-6.21,21.65-9.49,32.43-3.28,10.73-6.68,21.43-10.2,32.08-1.99,6.03-4.02,12.04-6.09,18.04-.21,.61,.76,.87,.96,.27,3.67-10.65,7.22-21.34,10.65-32.07,3.41-10.69,6.71-21.42,9.88-32.18,1.79-6.09,3.55-12.19,5.26-18.3,.17-.62-.79-.89-.96-.27Z"/></g></g></g></g></g></svg>