<svg width="20" height="15" viewBox="0 0 20 15" fill="none" xmlns="http://www.w3.org/2000/svg">
<path d="M6.80892 14.5469C5.96755 14.5475 5.16092 14.2114 4.56892 13.6136L0.586234 9.63763C-0.195078 8.85681 -0.195453 7.5905 0.585359 6.80919C0.585672 6.80887 0.585984 6.80856 0.586234 6.80825C1.36723 6.0275 2.63323 6.0275 3.41423 6.80825L6.80892 10.2016L16.4249 0.585562C17.2059 -0.195188 18.4719 -0.195188 19.2529 0.585562C20.0342 1.36637 20.0346 2.63269 19.2538 3.414C19.2535 3.41431 19.2532 3.41462 19.2529 3.41487L9.04761 13.6202C8.45498 14.2156 7.64892 14.5492 6.80892 14.5469Z" fill="#43AD81"/>
</svg>
