<svg width="17" height="17" viewBox="0 0 17 17" fill="none" xmlns="http://www.w3.org/2000/svg">
<path d="M11.3265 8.46795L16.4226 3.37128C16.7535 2.99557 16.9287 2.50809 16.9128 2.00792C16.8968 1.50774 16.6908 1.03242 16.3366 0.678566C15.9824 0.32471 15.5066 0.118878 15.006 0.102909C14.5054 0.08694 14.0174 0.262032 13.6414 0.592595L8.53997 5.68401L3.42938 0.576844C3.24633 0.393962 3.02901 0.248892 2.78984 0.149917C2.55067 0.0509418 2.29433 1.92698e-09 2.03546 0C1.77659 -1.92698e-09 1.52025 0.0509418 1.28108 0.149917C1.04191 0.248892 0.824596 0.393962 0.641544 0.576844C0.458493 0.759726 0.313288 0.976839 0.214222 1.21579C0.115155 1.45473 0.0641657 1.71083 0.0641657 1.96947C0.0641657 2.2281 0.115155 2.4842 0.214222 2.72315C0.313288 2.9621 0.458493 3.17921 0.641544 3.36209L5.75345 8.46795L0.65731 13.5633C0.457449 13.7418 0.296139 13.9591 0.183251 14.2021C0.0703635 14.445 0.00827074 14.7084 0.00077134 14.9761C-0.00672806 15.2438 0.0405237 15.5102 0.139636 15.7591C0.238749 16.0079 0.387638 16.234 0.577194 16.4233C0.76675 16.6127 0.992988 16.7615 1.24207 16.8605C1.49114 16.9595 1.75783 17.0067 2.02579 16.9992C2.29376 16.9917 2.55738 16.9297 2.80053 16.8169C3.04367 16.7041 3.26123 16.543 3.43989 16.3433L8.53997 11.2519L13.6348 16.3433C14.0045 16.7126 14.5059 16.9201 15.0287 16.9201C15.5515 16.9201 16.0529 16.7126 16.4226 16.3433C16.7923 15.974 17 15.473 17 14.9507C17 14.4283 16.7923 13.9274 16.4226 13.5581L11.3265 8.46795Z" fill="#B81D1D"/>
</svg>
